<?xml version="1.0" encoding="UTF-8"?>
<svg width="200px" height="200px" viewBox="0 0 200 200" version="1.1" xmlns="http://www.w3.org/2000/svg" xmlns:xlink="http://www.w3.org/1999/xlink">
    <title>account-icon</title>
    <g id="Page-1" stroke="none" stroke-width="1" fill="none" fill-rule="evenodd">
        <g id="account-icon" fill="#FFFFFF" fill-rule="nonzero">
            <path d="M100,0 C44.8,0 0,44.8 0,100 C0,155.2 44.8,200 100,200 C155.2,200 200,155.2 200,100 C200,44.8 155.2,0 100,0 Z M50.7,162.8 C55,153.8 81.2,145 100,145 C118.8,145 145.1,153.8 149.3,162.8 C135.7,173.6 118.6,180 100,180 C81.4,180 64.3,173.6 50.7,162.8 Z M163.6,148.3 C149.3,130.9 114.6,125 100,125 C85.4,125 50.7,130.9 36.4,148.3 C26.2,134.9 20,118.2 20,100 C20,55.9 55.9,20 100,20 C144.1,20 180,55.9 180,100 C180,118.2 173.8,134.9 163.6,148.3 Z M100,40 C80.6,40 65,55.6 65,75 C65,94.4 80.6,110 100,110 C119.4,110 135,94.4 135,75 C135,55.6 119.4,40 100,40 Z M100,90 C91.7,90 85,83.3 85,75 C85,66.7 91.7,60 100,60 C108.3,60 115,66.7 115,75 C115,83.3 108.3,90 100,90 Z" id="Shape"></path>
        </g>
    </g>
</svg>