<?xml version="1.0" encoding="UTF-8"?>
<svg width="990px" height="296px" viewBox="0 0 990 296" version="1.1" xmlns="http://www.w3.org/2000/svg" xmlns:xlink="http://www.w3.org/1999/xlink">
    <title>app-store</title>
    <g id="Page-1" stroke="none" stroke-width="1" fill="none" fill-rule="evenodd">
        <g id="app-store" transform="translate(-9.000000, -1.000000)" fill-rule="nonzero">
            <path d="M17.2809346,81.999 C17.2809346,59.0464054 17.2809346,47.5701081 21.6030841,38.5174865 C27.3658879,26.4472703 38.4195327,16.8574865 52.332243,11.8578486 C62.766729,8.10810811 75.9948598,8.10810811 102.451121,8.10810811 L905.484112,8.10810811 C931.940187,8.10810811 945.168224,8.10810811 955.607477,11.8578486 C969.514019,16.8574865 980.570093,26.4472703 986.336449,38.5174865 C990.654206,47.5701081 990.654206,59.0464054 990.654206,81.999 L990.654206,215.706486 C990.654206,238.658919 990.654206,250.135135 986.336449,259.187838 C980.570093,271.258378 969.514019,280.847838 955.607477,285.847297 C945.168224,289.597297 931.940187,289.597297 905.484112,289.597297 L102.451121,289.597297 C75.9948598,289.597297 62.766729,289.597297 52.332243,285.847297 C38.4195327,280.847838 27.3658879,271.258378 21.6030841,259.187838 C17.2809346,250.135135 17.2809346,238.658919 17.2809346,215.706486 L17.2809346,81.999 Z" id="Path" fill="#0C0D10"></path>
            <path d="M678.573832,143.227297 L678.573832,159.35027 L666.925234,159.35027 L666.925234,169.923243 L678.573832,169.923243 L678.573832,205.847838 C678.573832,218.114595 684.970093,223.021622 701.062617,223.021622 C703.88972,223.021622 706.583178,222.72973 708.940187,222.379459 L708.940187,211.923243 C706.919626,212.098378 705.641121,212.215135 703.418692,212.215135 C696.214019,212.215135 693.049533,209.294595 693.049533,202.635405 L693.049533,169.923243 L708.940187,169.923243 L708.940187,159.35027 L693.049533,159.35027 L693.049533,143.227297 L678.573832,143.227297 Z" id="Path" fill="#FFFFFF"></path>
            <path d="M749.933645,223.898108 C771.345794,223.898108 784.474766,211.455405 784.474766,190.835676 C784.474766,170.331892 771.278505,157.831622 749.933645,157.831622 C728.52243,157.831622 715.326168,170.331892 715.326168,190.835676 C715.326168,211.455405 728.45514,223.898108 749.933645,223.898108 Z M749.933645,212.740541 C737.342991,212.740541 730.272897,204.737838 730.272897,190.835676 C730.272897,177.049459 737.342991,168.988378 749.933645,168.988378 C762.457944,168.988378 769.594393,177.049459 769.594393,190.835676 C769.594393,204.679459 762.457944,212.740541 749.933645,212.740541 Z" id="Shape" fill="#FFFFFF"></path>
            <path d="M795.708411,222.671351 L810.185047,222.671351 L810.185047,185.110541 C810.185047,176.173784 817.928037,170.156757 828.902804,170.156757 C831.461682,170.156757 835.771028,170.565405 836.982243,170.916486 L836.982243,158.532162 C835.433645,158.181892 832.673832,158.006757 830.518692,158.006757 C820.957944,158.006757 812.81028,162.562703 810.723364,168.813243 L809.645794,168.813243 L809.645794,159.057568 L795.708411,159.057568 L795.708411,222.671351 Z" id="Path" fill="#FFFFFF"></path>
            <path d="M872.927103,168.521351 C883.63271,168.521351 890.634579,175.005405 890.971963,184.993784 L853.939252,184.993784 C854.747664,175.063784 862.221495,168.521351 872.927103,168.521351 Z M890.904673,205.497568 C888.211215,210.462973 882.218692,213.208378 873.465421,213.208378 C861.884112,213.208378 854.41028,206.13973 853.939252,194.982973 L853.939252,194.281622 L905.716822,194.281622 L905.716822,189.900811 C905.716822,169.923243 893.395327,157.831622 872.994393,157.831622 C852.323364,157.831622 839.193458,170.740541 839.193458,191.069189 C839.193458,211.397027 852.054206,223.898108 873.061682,223.898108 C889.827103,223.898108 901.542991,216.888649 904.842056,205.497568 L890.904673,205.497568 Z" id="Shape" fill="#FFFFFF"></path>
            <path d="M583.640187,199.17973 C584.757009,214.800811 599.761682,224.79 622.093458,224.79 C645.960748,224.79 660.894393,214.315946 660.894393,197.605946 C660.894393,184.467568 652.380374,177.201892 631.724299,173.024595 L620.628037,170.663514 C607.507477,167.999189 602.203738,164.426757 602.203738,158.190811 C602.203738,150.32027 610.439252,145.174054 622.790654,145.174054 C634.514953,145.174054 642.61028,150.199459 644.075701,158.251622 L659.28972,158.251622 C658.382243,143.539459 643.447664,133.186216 623,133.186216 C601.017757,133.186216 586.362617,143.539459 586.362617,159.098919 C586.362617,171.934865 594.66729,179.562973 612.881308,183.256216 L625.861682,185.981351 C639.190654,188.705676 645.053271,192.701351 645.053271,199.361351 C645.053271,207.111081 635.841121,212.742162 623.279439,212.742162 C609.81028,212.742162 600.458879,207.474324 599.133645,199.17973 L583.640187,199.17973 Z" id="Path" fill="#FFFFFF"></path>
            <path d="M433.681308,158.006757 C423.716822,158.006757 415.098131,162.329189 410.654206,169.572162 L409.576636,169.572162 L409.576636,159.057568 L395.639252,159.057568 L395.639252,243.817297 L410.115888,243.817297 L410.115888,213.033243 L411.260748,213.033243 C415.098131,219.750811 423.380374,223.722973 433.815888,223.722973 C452.33271,223.722973 464.114953,211.046757 464.114953,190.835676 C464.114953,170.623784 452.33271,158.006757 433.681308,158.006757 Z M429.574766,212.448649 C417.45514,212.448649 409.846729,204.154054 409.846729,190.894054 C409.846729,177.575676 417.45514,169.28027 429.642056,169.28027 C441.896262,169.28027 449.235514,177.39973 449.235514,190.835676 C449.235514,204.329189 441.896262,212.448649 429.574766,212.448649 Z" id="Shape" fill="#FFFFFF"></path>
            <path d="M514.770093,158.006757 C504.804673,158.006757 496.186916,162.329189 491.742991,169.572162 L490.665421,169.572162 L490.665421,159.057568 L476.728037,159.057568 L476.728037,243.817297 L491.203738,243.817297 L491.203738,213.033243 L492.348598,213.033243 C496.186916,219.750811 504.468224,223.722973 514.904673,223.722973 C533.420561,223.722973 545.203738,211.046757 545.203738,190.835676 C545.203738,170.623784 533.420561,158.006757 514.770093,158.006757 Z M510.662617,212.448649 C498.542991,212.448649 490.934579,204.154054 490.934579,190.894054 C490.934579,177.575676 498.542991,169.28027 510.729907,169.28027 C522.984112,169.28027 530.323364,177.39973 530.323364,190.835676 C530.323364,204.329189 522.984112,212.448649 510.662617,212.448649 Z" id="Shape" fill="#FFFFFF"></path>
            <path d="M369.666355,222.671351 L386.275701,222.671351 L349.916822,135.304865 L333.098131,135.304865 L296.739252,222.671351 L312.790654,222.671351 L322.071963,199.482973 L360.45514,199.482973 L369.666355,222.671351 Z M340.704673,151.167568 L341.891589,151.167568 L356.476636,188.1 L326.049533,188.1 L340.704673,151.167568 Z" id="Shape" fill="#FFFFFF"></path>
            <path d="M306.463551,69.4090541 L306.463551,111.555405 L324.002804,111.555405 C338.479439,111.555405 346.861682,103.815405 346.861682,90.3502703 C346.861682,77.0905135 338.41215,69.4090541 324.002804,69.4090541 L306.463551,69.4090541 Z M314.004673,75.3672973 L323.161682,75.3672973 C333.227103,75.3672973 339.185981,80.9166486 339.185981,90.4378378 C339.185981,100.105946 333.328037,105.596757 323.161682,105.596757 L314.004673,105.596757 L314.004673,75.3672973 Z" id="Shape" fill="#FFFFFF"></path>
            <path d="M372.535514,112.168378 C383.241121,112.168378 389.805607,105.947027 389.805607,95.6367568 C389.805607,85.3853514 383.207477,79.1350541 372.535514,79.1350541 C361.829907,79.1350541 355.230841,85.3853514 355.230841,95.6367568 C355.230841,105.947027 361.796262,112.168378 372.535514,112.168378 Z M372.535514,106.59 C366.240187,106.59 362.704673,102.588649 362.704673,95.6367568 C362.704673,88.7442162 366.240187,84.7135946 372.535514,84.7135946 C378.797196,84.7135946 382.365421,88.7442162 382.365421,95.6367568 C382.365421,102.559459 378.797196,106.59 372.535514,106.59 Z" id="Shape" fill="#FFFFFF"></path>
            <polygon id="Path" fill="#FFFFFF" points="445.711215 79.7483514 438.472897 79.7483514 431.942056 104.01973 431.369159 104.01973 423.828037 79.7483514 416.893458 79.7483514 409.352336 104.01973 408.814019 104.01973 402.248598 79.7483514 394.909346 79.7483514 405.009346 111.555405 412.449533 111.555405 419.990654 88.1308378 420.562617 88.1308378 428.137383 111.555405 435.64486 111.555405"></polygon>
            <path d="M454.046729,111.555405 L461.285047,111.555405 L461.285047,92.9497297 C461.285047,87.9848108 464.685047,84.8888919 470.038318,84.8888919 C475.390654,84.8888919 477.949533,87.4298919 477.949533,92.5410811 L477.949533,111.555405 L485.18785,111.555405 L485.18785,90.9640541 C485.18785,83.3992703 480.676636,79.1350541 472.495327,79.1350541 C466.974766,79.1350541 463.338318,81.2671622 461.554206,84.8012432 L461.015888,84.8012432 L461.015888,79.7483514 L454.046729,79.7483514 L454.046729,111.555405 Z" id="Path" fill="#FFFFFF"></path>
            <polygon id="Path" fill="#FFFFFF" points="496.586916 111.555405 503.825234 111.555405 503.825234 67.3353243 496.586916 67.3353243"></polygon>
            <path d="M531.046729,112.168378 C541.752336,112.168378 548.317757,105.947027 548.317757,95.6367568 C548.317757,85.3853514 541.718692,79.1350541 531.046729,79.1350541 C520.341121,79.1350541 513.742991,85.3853514 513.742991,95.6367568 C513.742991,105.947027 520.307477,112.168378 531.046729,112.168378 Z M531.046729,106.59 C524.751402,106.59 521.216822,102.588649 521.216822,95.6367568 C521.216822,88.7442162 524.751402,84.7135946 531.046729,84.7135946 C537.308411,84.7135946 540.87757,88.7442162 540.87757,95.6367568 C540.87757,102.559459 537.308411,106.59 531.046729,106.59 Z" id="Shape" fill="#FFFFFF"></path>
            <path d="M569.883178,106.794324 C565.94486,106.794324 563.083178,105.12973 563.083178,102.266757 C563.083178,99.462973 565.371963,97.9735135 570.42243,97.6816216 L579.37757,97.1854054 L579.37757,99.8432432 C579.37757,103.786216 575.337383,106.794324 569.883178,106.794324 Z M568.031776,112.080811 C572.845794,112.080811 576.852336,110.27027 579.040187,107.086216 L579.613084,107.086216 L579.613084,111.555405 L586.581308,111.555405 L586.581308,89.8248649 C586.581308,83.1072162 581.397196,79.1350541 572.206542,79.1350541 C563.890654,79.1350541 557.966355,82.6398649 557.225234,88.1016486 L564.228037,88.1016486 C565.035514,85.8527027 567.829907,84.5675676 571.870093,84.5675676 C576.818692,84.5675676 579.37757,86.4660811 579.37757,89.8248649 L579.37757,92.5702703 L569.445794,93.0664865 C560.726168,93.5343243 555.811215,96.8343243 555.811215,102.559459 C555.811215,108.371351 560.961682,112.080811 568.031776,112.080811 Z" id="Shape" fill="#FFFFFF"></path>
            <path d="M611.143925,112.080811 C616.194393,112.080811 620.469159,110.006757 622.657944,106.531622 L623.229907,106.531622 L623.229907,111.555405 L630.165421,111.555405 L630.165421,67.3353243 L622.927103,67.3353243 L622.927103,84.8012432 L622.388785,84.8012432 C620.401869,81.2963514 616.160748,79.2226216 611.143925,79.2226216 C601.885981,79.2226216 595.927103,85.5898378 595.927103,95.6367568 C595.927103,105.713514 601.818692,112.080811 611.143925,112.080811 Z M613.198131,84.8596216 C619.257944,84.8596216 623.061682,89.0362703 623.061682,95.6659459 C623.061682,102.325946 619.291589,106.444054 613.198131,106.444054 C607.071028,106.444054 603.400935,102.384324 603.400935,95.6367568 C603.400935,88.9486216 607.104673,84.8596216 613.198131,84.8596216 Z" id="Shape" fill="#FFFFFF"></path>
            <path d="M677.101869,112.168378 C687.807477,112.168378 694.372897,105.947027 694.372897,95.6367568 C694.372897,85.3853514 687.773832,79.1350541 677.101869,79.1350541 C666.396262,79.1350541 659.798131,85.3853514 659.798131,95.6367568 C659.798131,105.947027 666.362617,112.168378 677.101869,112.168378 Z M677.101869,106.59 C670.806542,106.59 667.271963,102.588649 667.271963,95.6367568 C667.271963,88.7442162 670.806542,84.7135946 677.101869,84.7135946 C683.363551,84.7135946 686.93271,88.7442162 686.93271,95.6367568 C686.93271,102.559459 683.363551,106.59 677.101869,106.59 Z" id="Shape" fill="#FFFFFF"></path>
            <path d="M703.953271,111.555405 L711.191589,111.555405 L711.191589,92.9497297 C711.191589,87.9848108 714.591589,84.8888919 719.94486,84.8888919 C725.298131,84.8888919 727.856075,87.4298919 727.856075,92.5410811 L727.856075,111.555405 L735.094393,111.555405 L735.094393,90.9640541 C735.094393,83.3992703 730.583178,79.1350541 722.402804,79.1350541 C716.881308,79.1350541 713.245794,81.2671622 711.460748,84.8012432 L710.92243,84.8012432 L710.92243,79.7483514 L703.953271,79.7483514 L703.953271,111.555405 Z" id="Path" fill="#FFFFFF"></path>
            <path d="M768.429907,71.8332162 L768.429907,79.8943784 L762.605607,79.8943784 L762.605607,85.1809459 L768.429907,85.1809459 L768.429907,103.143243 C768.429907,109.277027 771.628037,111.730541 779.674766,111.730541 C781.088785,111.730541 782.435514,111.584595 783.613084,111.408649 L783.613084,106.180541 C782.603738,106.268919 781.963551,106.327297 780.852336,106.327297 C777.250467,106.327297 775.668224,104.866216 775.668224,101.537027 L775.668224,85.1809459 L783.613084,85.1809459 L783.613084,79.8943784 L775.668224,79.8943784 L775.668224,71.8332162 L768.429907,71.8332162 Z" id="Path" fill="#FFFFFF"></path>
            <path d="M793.328972,111.555405 L800.56729,111.555405 L800.56729,92.9789189 C800.56729,88.160027 803.866355,84.9180811 809.791589,84.9180811 C814.909346,84.9180811 817.635514,87.4882703 817.635514,92.5702703 L817.635514,111.555405 L824.873832,111.555405 L824.873832,91.0224324 C824.873832,83.4577297 820.059813,79.1642432 812.249533,79.1642432 C806.728037,79.1642432 802.857009,81.2963514 801.071963,84.8596216 L800.5,84.8596216 L800.5,67.3353243 L793.328972,67.3353243 L793.328972,111.555405 Z" id="Path" fill="#FFFFFF"></path>
            <path d="M850.985047,84.4799189 C856.338318,84.4799189 859.839252,87.7219459 860.007477,92.7162162 L841.491589,92.7162162 C841.895327,87.7511351 845.631776,84.4799189 850.985047,84.4799189 Z M859.973832,102.968108 C858.627103,105.450811 855.630841,106.823514 851.254206,106.823514 C845.463551,106.823514 841.727103,103.289189 841.491589,97.7108108 L841.491589,97.3605405 L867.380374,97.3605405 L867.380374,95.1697297 C867.380374,85.1809459 861.219626,79.1350541 851.018692,79.1350541 C840.683178,79.1350541 834.118692,85.5898378 834.118692,95.7543243 C834.118692,105.917838 840.548598,112.168378 851.052336,112.168378 C859.435514,112.168378 865.292523,108.663243 866.942991,102.968108 L859.973832,102.968108 Z" id="Shape" fill="#FFFFFF"></path>
            <path d="M218.193458,150.970541 C218.369159,139.140811 225.691589,127.947568 237.308411,121.752162 C229.979439,112.671892 217.704673,106.914324 204.934579,106.567297 C191.313084,105.327568 178.108411,113.639189 171.16729,113.639189 C164.091589,113.639189 153.404673,106.690541 141.897196,106.896486 C126.897196,107.316486 112.913084,114.715135 105.614953,126.093243 C89.9275701,149.656216 101.629065,184.286757 116.656075,203.334324 C124.174766,212.661081 132.961682,223.079189 144.459813,222.709459 C155.71028,222.304865 159.91215,216.485676 173.493458,216.485676 C186.948598,216.485676 190.890654,222.709459 202.621495,222.474324 C214.694393,222.304865 222.300935,213.106216 229.556075,203.691081 C234.957944,197.045676 239.114953,189.700541 241.872897,181.928919 C227.684112,176.722703 218.209346,164.335135 218.193458,150.970541 Z" id="Path" fill="#FFFFFF"></path>
            <path d="M196.035514,94.0410811 C202.617757,87.1856757 205.860748,78.3738649 205.075701,69.4771622 C195.018692,70.3935405 185.728972,74.5635405 179.057944,81.1561622 C172.533645,87.5975676 169.138318,96.2545946 169.780374,104.811081 C179.841121,104.901081 189.730841,100.843784 196.035514,94.0410811 Z" id="Path" fill="#FFFFFF"></path>
            <path d="M52.332243,285.847297 L55.4363551,279.346216 L52.332243,285.847297 Z M21.6030841,259.187838 L14.1090654,261.880541 L21.6030841,259.187838 Z M986.336449,259.187838 L993.82243,261.880541 L986.336449,259.187838 Z M955.607477,285.847297 L952.495327,279.346216 L955.607477,285.847297 Z M955.607477,11.8578486 L952.495327,18.3594324 L955.607477,11.8578486 Z M986.336449,38.5174865 L993.82243,35.8244595 L986.336449,38.5174865 Z M102.451121,15.1453378 L905.484112,15.1453378 L905.484112,1.07087838 L102.451121,1.07087838 L102.451121,15.1453378 Z M982.542056,81.999 L982.542056,215.706486 L998.766355,215.706486 L998.766355,81.999 L982.542056,81.999 Z M905.484112,282.56027 L102.451121,282.56027 L102.451121,296.634324 L905.484112,296.634324 L905.484112,282.56027 Z M25.3923364,215.706486 L25.3923364,81.999 L9.16949065,81.999 L9.16949065,215.706486 L25.3923364,215.706486 Z M102.451121,282.56027 C89.1120561,282.56027 79.5139252,282.556216 71.9357009,282.107838 C64.4302804,281.663514 59.5005607,280.806486 55.4363551,279.346216 L49.2281308,292.349189 C55.5985047,294.638108 62.5,295.656486 70.8314019,296.149459 C79.0899065,296.638378 89.3340187,296.634325 102.451121,296.634325 L102.451121,282.56027 Z M9.16948962,215.706486 C9.16948962,227.086216 9.16509813,235.973514 9.72857196,243.138649 C10.2970187,250.366216 11.4703738,256.354054 14.1090654,261.880541 L29.0971028,256.494324 C27.4136449,252.968919 26.4258879,248.691892 25.9138318,242.18027 C25.396729,235.606216 25.3923364,227.279189 25.3923364,215.706486 L9.16948962,215.706486 Z M55.4363551,279.346216 C43.5111215,275.06027 34.0366355,266.84027 29.0971028,256.494324 L14.1090654,261.880541 C20.6951402,275.675676 33.3278505,286.635405 49.2281308,292.349189 L55.4363551,279.346216 Z M982.542056,215.706486 C982.542056,227.279189 982.542056,235.606216 982.018692,242.18027 C981.504673,248.691892 980.523364,252.968919 978.841121,256.494324 L993.82243,261.880541 C996.46729,256.354054 997.635514,250.366216 998.205607,243.138649 C998.766355,235.973514 998.766355,227.086216 998.766355,215.706486 L982.542056,215.706486 Z M905.484112,296.634325 C918.600935,296.634325 928.84486,296.638378 937.103738,296.149459 C945.439252,295.656486 952.336449,294.638108 958.71028,292.349189 L952.495327,279.346216 C948.439252,280.806486 943.504673,281.663514 935.999065,282.107838 C928.421495,282.556216 918.823364,282.56027 905.484112,282.56027 L905.484112,296.634325 Z M978.841121,256.494324 C973.897196,266.84027 964.420561,275.06027 952.495327,279.346216 L958.71028,292.349189 C974.607477,286.635405 987.242991,275.675676 993.82243,261.880541 L978.841121,256.494324 Z M905.484112,15.1453378 C918.823364,15.1453378 928.421495,15.1491486 935.999065,15.5977297 C943.504673,16.0419973 948.439252,16.8989189 952.495327,18.3594324 L958.71028,5.3562973 C952.336449,3.06705405 945.439252,2.04908919 937.103738,1.55592162 C928.84486,1.06706757 918.600935,1.07087792 905.484112,1.07087792 L905.484112,15.1453378 Z M998.766355,81.999 C998.766355,70.6189459 998.766355,61.7315676 998.205607,54.5667568 C997.635514,47.3387027 996.46729,41.3511892 993.82243,35.8244595 L978.841121,41.2105135 C980.523364,44.7364865 981.504673,49.0133514 982.018692,55.5248108 C982.542056,62.0994324 982.542056,70.4263784 982.542056,81.999 L998.766355,81.999 Z M952.495327,18.3594324 C964.420561,22.6448108 973.897196,30.8645676 978.841121,41.2105135 L993.82243,35.8244595 C987.242991,22.0298919 974.607477,11.0701865 958.71028,5.3562973 L952.495327,18.3594324 Z M102.451121,1.07087748 C89.3339252,1.07087748 79.0899065,1.06706757 70.8314019,1.55592162 C62.5,2.04908919 55.5985047,3.06705405 49.2281308,5.3562973 L55.4363551,18.3594324 C59.5005607,16.8989189 64.4302804,16.0419973 71.9357009,15.5977297 C79.5139252,15.1491486 89.1119626,15.1453378 102.451121,15.1453378 L102.451121,1.07087748 Z M25.3923364,81.999 C25.3923364,70.4263784 25.396729,62.0994324 25.9138318,55.5248108 C26.4258879,49.0133514 27.4136449,44.7364865 29.0971028,41.2105135 L14.1090654,35.8244595 C11.4703738,41.3511892 10.2970187,47.3387027 9.72857196,54.5667568 C9.16509813,61.7315676 9.16949013,70.6189459 9.16949013,81.999 L25.3923364,81.999 Z M49.2281308,5.3562973 C33.3278505,11.0701865 20.6951402,22.0298919 14.1090654,35.8244595 L29.0971028,41.2105135 C34.0366355,30.8645676 43.5111215,22.6448108 55.4363551,18.3594324 L49.2281308,5.3562973 Z" id="Shape" fill="#A6A6A6"></path>
        </g>
    </g>
</svg>