<?xml version="1.0" encoding="UTF-8"?>
<svg width="300px" height="200px" viewBox="0 0 300 200" version="1.1" xmlns="http://www.w3.org/2000/svg" xmlns:xlink="http://www.w3.org/1999/xlink">
    <title>apple-pay</title>
    <g id="Page-1" stroke="none" stroke-width="1" fill="none" fill-rule="evenodd">
        <g id="apple-pay" fill-rule="nonzero">
            <path d="M273.133714,0 L26.8663714,0 C25.8407143,0 24.8132571,0 23.7894,0.00622846667 C22.9239429,0.0126457143 22.0604571,0.0226489524 21.1970571,0.0471853333 C19.3139143,0.100221905 17.4145714,0.21592 15.555,0.563959048 C13.6656857,0.918038095 11.9076,1.49559048 10.1924571,2.40494286 C8.50637143,3.29787619 6.9627,4.46580952 5.62494,5.85947619 C4.28660571,7.25314286 3.16505143,8.85800952 2.30776286,10.6157143 C1.43433429,12.4018095 0.87936,14.2331429 0.541700571,16.2020952 C0.205688571,18.1391429 0.0938417143,20.1166667 0.0430930286,22.0755238 C0.0198935143,22.9747619 0.00994311429,23.8739048 0.00430639714,24.7728571 C-2.88013423e-10,25.8413333 -2.88013423e-10,26.9090476 -2.88013423e-10,27.9794286 L-2.88013423e-10,172.022857 C-2.88013423e-10,173.093333 -2.88013423e-10,174.159048 0.00430639714,175.229524 C0.00994311429,176.128571 0.0198935143,177.027619 0.0430930286,177.926667 C0.0938417143,179.88381 0.205688571,181.860952 0.541700571,183.798095 C0.87936,185.767619 1.43433429,187.598095 2.30776286,189.384762 C3.16505143,191.141905 4.28660571,192.749524 5.62494,194.140952 C6.9627,195.53619 8.50637143,196.704762 10.1924571,197.595238 C11.9076,198.506667 13.6656857,199.084762 15.555,199.438095 C17.4145714,199.78381 19.3139143,199.901905 21.1970571,199.955238 C22.0604571,199.975238 22.9239429,199.987619 23.7894,199.991429 C24.8132571,200 25.8407143,200 26.8663714,200 L273.133714,200 C274.158,200 275.185714,200 276.209143,199.991429 C277.072286,199.987619 277.936286,199.975238 278.803714,199.955238 C280.682571,199.901905 282.581143,199.78381 284.445429,199.438095 C286.332,199.084762 288.090857,198.506667 289.806,197.595238 C291.493714,196.704762 293.033143,195.53619 294.373714,194.140952 C295.71,192.749524 296.831143,191.141905 297.690857,189.384762 C298.566,187.598095 299.120571,185.767619 299.456571,183.798095 C299.792571,181.860952 299.902286,179.88381 299.952857,177.926667 C299.976857,177.027619 299.988,176.128571 299.992286,175.229524 C300,174.159048 300,173.093333 300,172.022857 L300,27.9794286 C300,26.9090476 300,25.8413333 299.992286,24.7728571 C299.988,23.8739048 299.976857,22.9747619 299.952857,22.0755238 C299.902286,20.1166667 299.792571,18.1391429 299.456571,16.2020952 C299.120571,14.2331429 298.566,12.4018095 297.690857,10.6157143 C296.831143,8.85800952 295.71,7.25314286 294.373714,5.85947619 C293.033143,4.46580952 291.493714,3.29787619 289.806,2.40494286 C288.090857,1.49559048 286.332,0.918038095 284.445429,0.563959048 C282.581143,0.21592 280.682571,0.100221905 278.803714,0.0471853333 C277.936286,0.0226489524 277.072286,0.0126457143 276.209143,0.00622846667 C275.185714,0 274.158,0 273.133714,0 Z" id="Path" fill="#000000"></path>
            <path d="M273.134571,6.66387619 L276.163714,6.66991429 C276.984857,6.67595238 277.805143,6.6852 278.630571,6.70860952 C280.066286,6.749 281.745429,6.82997143 283.310571,7.12214286 C284.670857,7.37731429 285.811714,7.76537143 286.907143,8.34594286 C287.988,8.91801905 288.978857,9.66771429 289.843714,10.5670476 C290.712,11.4724762 291.432857,12.505619 291.989143,13.6439048 C292.543714,14.7754286 292.914,15.9580952 293.157429,17.3853333 C293.437714,18.9975238 293.514857,20.7509524 293.554286,22.2550476 C293.576571,23.104 293.586857,23.9529524 293.591143,24.8220952 C293.598857,25.8732381 293.598857,26.9237143 293.598857,27.9769524 L293.598857,172.02 C293.598857,173.073333 293.598857,174.121905 293.591143,175.195238 C293.586857,176.044762 293.576571,176.893333 293.554286,177.74381 C293.514857,179.245714 293.437714,180.998095 293.154,182.629524 C292.914,184.037143 292.543714,185.22 291.986571,186.357143 C291.431143,187.492381 290.712,188.524762 289.847143,189.42381 C288.977143,190.330476 287.990571,191.077143 286.896,191.655238 C285.809143,192.232381 284.67,192.62 283.323429,192.873333 C281.725714,193.169524 279.976286,193.250476 278.658857,193.287619 C277.83,193.307619 277.004571,193.319048 276.159429,193.322857 C275.152286,193.331429 274.141714,193.331429 273.134571,193.331429 L26.8668,193.331429 C26.8533429,193.331429 26.8403143,193.331429 26.8267714,193.331429 C25.8309429,193.331429 24.8332286,193.331429 23.8193143,193.322857 C22.9926857,193.319048 22.1678571,193.307619 21.3703714,193.288571 C20.0226,193.250476 18.2719714,193.169524 16.6880571,192.875238 C15.3292286,192.62 14.1900857,192.232381 13.0888286,191.647619 C12.0052286,191.075238 11.0186571,190.328571 10.1484857,189.420952 C9.28508571,188.522857 8.56749429,187.494286 8.0127,186.357143 C7.45736571,185.220952 7.08581143,184.034286 6.84150857,182.610476 C6.55911429,180.981905 6.48153429,179.237143 6.44276571,177.744762 C6.42064286,176.891429 6.41139429,176.037143 6.40614,175.188571 L6.40215429,172.681905 L6.40215429,172.02 L6.40215429,27.9769524 L6.40215429,27.3152381 L6.40596,24.8141905 C6.41139429,23.9600952 6.42064286,23.1062857 6.44276571,22.2529524 C6.48153429,20.7598095 6.55911429,19.013619 6.84384857,17.3719048 C7.08599143,15.9602857 7.45736571,14.7739048 8.01560571,13.6321905 C8.56604571,12.5037143 9.28482857,11.473619 10.1528571,10.5699048 C11.0173714,9.6692381 12.0072,8.92046667 13.0977429,8.34291429 C14.1871714,7.76518095 15.3285429,7.37731429 16.6872857,7.12270476 C18.2529429,6.82978095 19.9332,6.749 21.3723429,6.70841905 C22.1926286,6.6852 23.013,6.67595238 23.8271143,6.67010476 L26.8668,6.66387619 L273.134571,6.66387619 Z" id="Path" fill="#FFFFFF"></path>
            <path d="M81.8982857,67.2697143 C84.4669714,63.9239048 86.2097143,59.431619 85.7502857,54.8409524 C81.9900857,55.035619 77.4015429,57.4242857 74.7449143,60.7726667 C72.3596571,63.64 70.2484286,68.3204762 70.7988,72.7186667 C75.0198,73.0999048 79.2369429,70.5215238 81.8982857,67.2697143 Z" id="Path" fill="#000000"></path>
            <path d="M85.7019429,73.5745714 C79.572,73.194381 74.3600571,77.1975238 71.4327429,77.1975238 C68.5037143,77.1975238 64.0210286,73.7661905 59.1726,73.8586667 C52.8619714,73.9552381 47.0064857,77.6707619 43.8042,83.580381 C37.2174857,95.4019048 42.066,112.938095 48.4711714,122.566667 C51.5816571,127.330476 55.3303714,132.575238 60.2698286,132.386667 C64.9368,132.19619 66.7660286,129.24 72.4389429,129.24 C78.1076571,129.24 79.7554286,132.386667 84.6957429,132.291429 C89.8191429,132.19619 93.0214286,127.525714 96.132,122.757143 C99.7002857,117.327619 101.161714,112.084762 101.253429,111.79619 C101.161714,111.700952 91.374,107.791429 91.2831429,96.067619 C91.1914286,86.2510476 98.9674286,81.5818095 99.3334286,81.2922857 C94.9422857,74.5288571 88.0808571,73.7661905 85.7019429,73.5745714 Z" id="Path" fill="#000000"></path>
            <path d="M139.076571,60.2911429 C152.4,60.2911429 161.676857,69.8547619 161.676857,83.7787619 C161.676857,97.752381 152.208857,107.365714 138.742286,107.365714 L123.990857,107.365714 L123.990857,131.795238 L113.333143,131.795238 L113.333143,60.2911429 L139.076571,60.2911429 L139.076571,60.2911429 Z M123.990857,98.0495238 L136.219714,98.0495238 C145.499143,98.0495238 150.780857,92.8473333 150.780857,83.8284762 C150.780857,74.8105714 145.499143,69.6569524 136.267714,69.6569524 L123.990857,69.6569524 L123.990857,98.0495238 Z" id="Shape" fill="#000000"></path>
            <path d="M164.461714,116.98 C164.461714,107.860952 171.171429,102.261905 183.067714,101.568571 L196.771714,100.726667 L196.771714,96.7133333 C196.771714,90.9150476 193.012286,87.4464762 186.732,87.4464762 C180.782571,87.4464762 177.071143,90.4190476 176.167714,95.0775238 L166.460571,95.0775238 C167.031429,85.662 174.739714,78.7248571 187.111714,78.7248571 C199.245429,78.7248571 207.001714,85.4144762 207.001714,95.8695238 L207.001714,131.795238 L197.151429,131.795238 L197.151429,123.222857 L196.914857,123.222857 C194.012571,129.020952 187.682571,132.686667 181.116857,132.686667 C171.314571,132.686667 164.461714,126.344762 164.461714,116.98 Z M196.771714,112.272381 L196.771714,108.16 L184.446857,108.951429 C178.308,109.398095 174.834857,112.222857 174.834857,116.681905 C174.834857,121.240952 178.451143,124.214286 183.971143,124.214286 C191.155714,124.214286 196.771714,119.06 196.771714,112.272381 Z" id="Shape" fill="#000000"></path>
            <path d="M216.301714,150.970476 L216.301714,142.298095 C217.061143,142.49619 218.774571,142.49619 219.631714,142.49619 C224.389714,142.49619 226.959429,140.415238 228.528857,135.06381 C228.528857,134.964762 229.434,131.892381 229.434,131.842857 L211.352571,79.6642857 L222.486,79.6642857 L235.145143,122.080952 L235.333714,122.080952 L247.992857,79.6642857 L258.841714,79.6642857 L240.091714,134.518095 C235.811143,147.155238 230.862,151.218095 220.488857,151.218095 C219.631714,151.218095 217.062,151.118095 216.301714,150.970476 Z" id="Path" fill="#000000"></path>
        </g>
    </g>
</svg>