<?xml version="1.0" encoding="UTF-8"?>
<svg width="31px" height="30px" viewBox="0 0 31 30" version="1.1" xmlns="http://www.w3.org/2000/svg" xmlns:xlink="http://www.w3.org/1999/xlink">
    <title>Vector</title>
    <g id="Page-1" stroke="none" stroke-width="1" fill="none" fill-rule="evenodd">
        <g id="Vector" fill="#FFFFFF" fill-rule="nonzero">
            <path d="M22.325,16.5 C23.45,16.5 24.44,15.885 24.95,14.955 L30.32,5.22 C30.875,4.23 30.155,3 29.015,3 L6.815,3 L5.405,0 L0.5,0 L0.5,3 L3.5,3 L8.9,14.385 L6.875,18.045 C5.78,20.055 7.22,22.5 9.5,22.5 L27.5,22.5 L27.5,19.5 L9.5,19.5 L11.15,16.5 L22.325,16.5 Z M8.24,6 L26.465,6 L22.325,13.5 L11.795,13.5 L8.24,6 Z M9.5,24 C7.85,24 6.515,25.35 6.515,27 C6.515,28.65 7.85,30 9.5,30 C11.15,30 12.5,28.65 12.5,27 C12.5,25.35 11.15,24 9.5,24 Z M24.5,24 C22.85,24 21.515,25.35 21.515,27 C21.515,28.65 22.85,30 24.5,30 C26.15,30 27.5,28.65 27.5,27 C27.5,25.35 26.15,24 24.5,24 Z" id="Shape"></path>
        </g>
    </g>
</svg>