<svg width="116" height="92" viewBox="0 0 116 92" fill="none" xmlns="http://www.w3.org/2000/svg">
<path d="M39.9727 40.5732L62.7544 51.4657L75.6689 49.418V34.9185L39.9727 40.5732Z" fill="url(#paint0_linear_5527_912)"/>
<path d="M75.6689 34.9185V49.418L98.4479 45.811L75.6689 34.9185Z" fill="url(#paint1_linear_5527_912)"/>
<path d="M75.6689 34.9185V49.418L98.4479 45.811L75.6689 34.9185Z" fill="url(#paint2_linear_5527_912)"/>
<path d="M82.346 17.9635L113.008 24.4545L101.358 42.2224L70.696 35.7342L82.346 17.9635Z" fill="#FBFBFB" stroke="#E0DFE2" stroke-width="0.5"/>
<path d="M63.4497 5.5532L11.5206 10.1163L14.0861 6.49897L14.0863 6.4987C14.6966 5.6357 15.9664 5.00293 17.4834 4.86984L17.4834 4.86983L64.2576 0.760189C64.2577 0.760182 64.2577 0.760175 64.2578 0.760168C64.9161 0.703632 65.469 0.900617 65.7791 1.17961C65.933 1.31811 66.0189 1.4684 66.0442 1.61099C66.0686 1.74871 66.0411 1.90318 65.9237 2.06852L63.4497 5.5532Z" fill="#FBFBFB" stroke="#E0DFE2" stroke-width="0.5"/>
<path d="M66.128 2.21323L63.5873 5.79171L63.3796 5.80885L65.9678 2.16468C66.2146 1.82197 66.1756 1.43927 65.8726 1.12226C65.5653 0.805256 65.0503 0.616766 64.4876 0.616766C64.414 0.616766 64.3361 0.616766 64.2626 0.625333L17.4836 4.73502C15.9731 4.86925 14.6833 5.49184 14.0384 6.40288L11.2034 10.3926L11 10.4098L13.8782 6.35433C14.5491 5.41187 15.8995 4.75786 17.462 4.62078L64.2366 0.511096C65.6649 0.385435 66.7383 1.35074 66.128 2.21038V2.21323Z" fill="white"/>
<path d="M63.6306 5.79175L76.6974 37.4126L76.6541 37.424L63.4229 5.80888" fill="white"/>
<path d="M24.4827 42.4117L11.4039 10.5892L63.4741 6.01414L76.3384 37.1976L24.4827 42.4117Z" fill="#FBFBFB" stroke="#E0DFE2" stroke-width="0.5"/>
<g filter="url(#filter0_d_5527_912)">
<path d="M59.7553 22.4882C60.4251 22.621 60.9647 22.7284 61.0514 22.2964C61.1381 21.8644 60.5971 21.7533 59.931 21.6192C59.2649 21.4851 58.7216 21.379 58.6349 21.8109C58.5495 22.2466 59.0891 22.3541 59.7553 22.4882ZM68.7124 28.2467C66.2141 24.1344 62.4086 23.1121 59.6213 22.4641C57.2261 21.9084 52.8302 22.4319 50.5182 24.2686C48.1373 26.1588 45.4278 30.7576 45.4591 34.6573C44.0331 35.1581 38.164 38.2275 38.3101 39.1675C38.4213 40.3414 40.8855 39.8314 42.7486 38.8842C43.0821 38.9762 43.4396 39.089 43.8214 39.2352C46.9057 40.4313 49.4915 44.471 53.0537 44.8009C56.3822 45.1082 59.5358 42.5241 63.1241 39.1057L63.1167 39.1083C65.0981 39.5458 69.6093 40.291 69.6869 40.0713C70.6799 37.7066 70.2878 30.8386 68.7111 28.243L68.7124 28.2467Z" fill="#F7F7F8"/>
<g opacity="0.4">
<path d="M38.3141 39.1661C38.3925 40.318 40.7567 39.8808 42.7526 38.8828C39.2854 37.9424 38.5013 39.8657 38.3141 39.1661Z" fill="#C0BFC5"/>
</g>
<g opacity="0.3">
<path d="M66.5099 27.7153C66.3841 27.9644 65.9981 28.0205 65.647 27.8427C65.296 27.6648 65.1157 27.3182 65.2415 27.0691C65.3673 26.82 65.7533 26.7639 66.1006 26.943C66.4517 27.1209 66.632 27.4674 66.5062 27.7166L66.5099 27.7153Z" fill="#C0BFC5"/>
</g>
<g opacity="0.3">
<path d="M59.6945 26.4952C59.5489 26.7597 59.1467 26.8173 58.8066 26.623C58.4628 26.4301 58.3047 26.0632 58.454 25.7975C58.6008 25.5368 58.998 25.4768 59.3418 25.6697C59.6856 25.8626 59.8437 26.2295 59.6945 26.4952Z" fill="#C0BFC5"/>
</g>
<g opacity="0.3">
<path d="M52.2314 24.6456C52.2576 24.8748 52.0127 25.0946 51.6876 25.1335C51.3625 25.1724 51.0729 25.0148 51.0455 24.7819C51.018 24.5489 51.2642 24.3328 51.5893 24.2939C51.9144 24.255 52.204 24.4126 52.2314 24.6456Z" fill="#C0BFC5"/>
</g>
<path d="M69.2921 40.1973C68.1079 40.1364 64.4299 39.5126 62.8376 39.135C62.2814 39.0042 60.9562 38.5536 59.2759 37.9852C56.0146 36.8805 51.5473 35.3671 49.1208 34.9604C48.5514 34.8634 47.93 34.7972 47.2743 34.7641C46.5036 34.7252 45.8848 34.7377 45.5529 34.7455L45.3745 34.7496L45.3731 34.6622C45.3395 30.8512 47.9766 26.1775 50.4661 24.2031C52.428 22.644 55.8222 22.0667 58.1429 22.1843C58.6976 22.2154 59.2016 22.2809 59.6425 22.3812C62.8031 23.1156 66.3779 24.2315 68.7891 28.2028C70.3953 30.8467 70.7582 37.7626 69.7711 40.1085C69.7425 40.1938 69.628 40.2131 69.2958 40.196L69.2921 40.1973ZM47.2839 34.5892C47.9447 34.6248 48.5698 34.6896 49.148 34.7877C51.592 35.1966 56.0656 36.7162 59.332 37.8233C61.0085 38.393 62.3324 38.8398 62.8799 38.9696C64.4672 39.3448 68.1239 39.9677 69.303 40.0261C69.5079 40.0378 69.5876 40.0266 69.62 40.0236C70.5821 37.678 70.2214 30.8994 68.6397 28.3013C66.2656 24.388 62.7297 23.2877 59.6004 22.5591C59.172 22.4586 58.6767 22.3942 58.1321 22.368C55.8401 22.2487 52.4969 22.8164 50.5757 24.3486C48.1431 26.2821 45.5602 30.8365 45.5527 34.5782C45.8883 34.5691 46.5071 34.5567 47.2866 34.5966L47.2839 34.5892Z" fill="#C0BFC5"/>
<path d="M69.6266 39.4944L69.5117 39.4887L69.514 39.4001L69.6289 39.4057C69.7988 39.413 69.8336 39.405 69.8373 39.4036L69.8884 39.4777C69.8687 39.493 69.8291 39.5111 69.6242 39.4994L69.6266 39.4944ZM69.3342 39.4716C69.2305 39.462 69.1129 39.449 68.9816 39.4323L68.9927 39.3448C69.119 39.359 69.2365 39.3721 69.3453 39.3841L69.3342 39.4716ZM68.8065 39.4102C68.6978 39.3982 68.5789 39.3814 68.4564 39.3659L68.4674 39.2783C68.59 39.2938 68.7088 39.3106 68.8176 39.3226L68.8065 39.4102ZM68.28 39.34C68.1662 39.3256 68.0511 39.3075 67.9309 39.2869L67.942 39.1994C68.0621 39.2199 68.1797 39.233 68.2898 39.2487L68.2787 39.3363L68.28 39.34ZM67.7545 39.261C67.6394 39.2429 67.5243 39.2248 67.4055 39.208L67.4203 39.1191C67.5391 39.1359 67.6555 39.1578 67.7693 39.1722L67.7545 39.261ZM67.2328 39.1808C67.1177 39.1627 67.0026 39.1445 66.8862 39.1227L66.901 39.0338C67.0198 39.0507 67.1362 39.0725 67.2476 39.0919L67.2328 39.1808ZM66.7098 39.0968L66.3631 39.0387L66.3779 38.9499L66.7246 39.008L66.7098 39.0968ZM66.1854 39.0091C66.0703 38.991 65.9539 38.9691 65.8375 38.9473L65.8523 38.8584C65.9687 38.8803 66.0838 38.8984 66.1989 38.9165L66.1841 39.0054L66.1854 39.0091ZM65.6648 38.9201C65.5484 38.8983 65.4333 38.8801 65.3169 38.8583L65.3317 38.7694C65.4481 38.7913 65.5595 38.8107 65.6796 38.8312L65.6648 38.9201ZM65.1429 38.8274C65.0265 38.8055 64.9101 38.7837 64.795 38.7655L64.8098 38.6767C64.9262 38.6986 65.0376 38.718 65.1577 38.7385L65.1429 38.8274ZM64.6197 38.7309C64.5033 38.7091 64.3868 38.6872 64.2741 38.6641L64.2903 38.5789C64.4016 38.5984 64.5194 38.624 64.6358 38.6458L64.6197 38.7309ZM64.0989 38.6294C63.9774 38.6052 63.866 38.5857 63.7533 38.5626L63.7694 38.4775C63.8821 38.5006 63.9985 38.5225 64.115 38.5443L64.0989 38.6294ZM63.5805 38.5229C63.459 38.4987 63.345 38.4718 63.2323 38.4486L63.2521 38.3622C63.3611 38.3867 63.4775 38.4085 63.5953 38.4341L63.5792 38.5192L63.5805 38.5229ZM63.0608 38.4127C62.9881 38.3964 62.9155 38.3801 62.8516 38.3649C62.8102 38.3543 62.7638 38.3413 62.7174 38.3283L62.7386 38.2456C62.7887 38.2573 62.8313 38.2716 62.8727 38.2822C62.9366 38.2974 63.0055 38.315 63.0819 38.33L63.0621 38.4164L63.0608 38.4127ZM62.542 38.2812C62.4391 38.2504 62.3275 38.2185 62.2009 38.1793L62.2294 38.094C62.3524 38.1345 62.464 38.1664 62.5668 38.1972L62.542 38.2812ZM62.0352 38.1246C61.9274 38.0914 61.8182 38.0544 61.699 38.0127L61.7275 37.9273C61.8455 37.9654 61.9584 38.001 62.0638 38.0393L62.0352 38.1246ZM61.5333 37.9579C61.4292 37.9234 61.315 37.884 61.2008 37.8447L61.2294 37.7593C61.3473 37.7974 61.4578 37.838 61.5619 37.8726L61.5333 37.9579ZM61.0301 37.7875L60.6976 37.6743L60.7262 37.5889L61.06 37.7059L61.0314 37.7912L61.0301 37.7875ZM60.5307 37.6158L60.545 37.5731L60.5219 37.6147L60.1981 37.5025L60.2267 37.4172L60.5505 37.5293L60.55 37.5755L60.532 37.6195L60.5307 37.6158ZM60.0312 37.4441L59.6973 37.3271L59.7259 37.2418L60.0598 37.3587L60.0312 37.4441ZM59.5317 37.2723L59.1979 37.1554L59.2265 37.0701L59.5603 37.187L59.5317 37.2723ZM59.0322 37.1006L58.6984 36.9837L58.727 36.8983L59.0608 37.0153L59.0322 37.1006ZM58.5328 36.9289L58.1989 36.8119L58.2275 36.7266L58.5614 36.8436L58.5328 36.9289ZM58.0333 36.7572L57.7007 36.6439L57.7293 36.5586L58.0619 36.6719L58.0333 36.7572ZM57.5338 36.5855L57.2013 36.4722L57.2298 36.3869L57.5624 36.5001L57.5338 36.5855ZM57.0343 36.4138C56.9214 36.3781 56.811 36.3375 56.7018 36.3005L56.7304 36.2152C56.8409 36.2558 56.9538 36.2915 57.0629 36.3284L57.0343 36.4138ZM56.5324 36.2471C56.4196 36.2114 56.3091 36.1708 56.1962 36.1351L56.2248 36.0498C56.3377 36.0854 56.4481 36.1261 56.561 36.1617L56.5324 36.2471ZM56.0306 36.0804C55.9177 36.0447 55.8072 36.0041 55.6943 35.9684L55.7229 35.8831C55.8358 35.9188 55.9449 35.9557 56.0591 35.9951L56.0306 36.0804ZM55.5287 35.9137L55.19 35.8068L55.2186 35.7215L55.5572 35.8284L55.5287 35.9137ZM55.0244 35.752L54.6857 35.6451L54.7143 35.5598L55.0529 35.6667L55.0244 35.752ZM54.5214 35.5941C54.4085 35.5585 54.2956 35.5228 54.1827 35.4872L54.2113 35.4019C54.3228 35.4338 54.4371 35.4731 54.5499 35.5088L54.5214 35.5941ZM54.0146 35.4375C53.9031 35.4056 53.7888 35.3662 53.6773 35.3343L53.7058 35.249C53.8174 35.2809 53.9303 35.3165 54.0432 35.3521L54.0184 35.4362L54.0146 35.4375ZM53.5092 35.2846C53.3963 35.2489 53.2847 35.217 53.1731 35.1851L53.198 35.1011C53.3096 35.133 53.4225 35.1686 53.5341 35.2006L53.5092 35.2846ZM53.0051 35.1354C52.8922 35.0998 52.7782 35.0729 52.669 35.0359L52.6939 34.9519C52.8055 34.9838 52.9208 35.0144 53.0337 35.0501L53.0088 35.1341L53.0051 35.1354ZM52.4949 34.9926C52.3796 34.962 52.268 34.93 52.1527 34.8994L52.1775 34.8154C52.2891 34.8473 52.4044 34.8779 52.5197 34.9085L52.4949 34.9926ZM51.9859 34.8534C51.8706 34.8228 51.7566 34.796 51.645 34.764L51.6662 34.6813C51.7765 34.7095 51.8918 34.7401 52.0071 34.7707L51.9859 34.8534ZM51.4746 34.7194C51.3606 34.6925 51.2453 34.6619 51.135 34.6337L51.1548 34.5473C51.2651 34.5754 51.3804 34.606 51.4981 34.6316L51.477 34.7143L51.4746 34.7194ZM50.9621 34.594C50.8431 34.5647 50.7291 34.5379 50.6201 34.5134L50.6399 34.427C50.7539 34.4538 50.8666 34.477 50.9819 34.5076L50.9621 34.594ZM50.4485 34.4774C50.3308 34.4519 50.2181 34.4287 50.1054 34.4056L50.1215 34.3204C50.2342 34.3436 50.352 34.3692 50.4697 34.3947L50.4499 34.4812L50.4485 34.4774ZM49.9315 34.3747C49.8137 34.3491 49.6949 34.3323 49.5835 34.3128L49.5983 34.224C49.7097 34.2434 49.8298 34.264 49.9463 34.2858L49.9302 34.3709L49.9315 34.3747ZM49.4108 34.2856C49.3257 34.2695 49.2432 34.2609 49.1644 34.2509L49.0644 34.24L49.0755 34.1525L49.1755 34.1634C49.2556 34.1771 49.3394 34.1894 49.427 34.2005L49.4122 34.2894L49.4108 34.2856ZM45.4873 34.0702L45.4771 33.9817C45.5456 33.9744 45.6304 33.9656 45.7289 33.9602L45.7353 34.05C45.6405 34.054 45.5558 34.0629 45.491 34.0689L45.4873 34.0702ZM48.8893 34.2179C48.7718 34.2048 48.658 34.1904 48.5405 34.1773L48.5515 34.0897C48.6678 34.0991 48.7853 34.1122 48.9004 34.1303L48.8893 34.2179ZM45.905 34.0448L45.9036 33.9574C46.0108 33.9532 46.1281 33.9538 46.2579 33.9543L46.2593 34.0416C46.1295 34.0412 46.0159 34.0393 45.91 34.0472L45.905 34.0448ZM48.3617 34.1564C48.2441 34.1433 48.1279 34.134 48.0117 34.1246L48.014 34.036C48.1315 34.049 48.2515 34.0571 48.369 34.0702L48.3579 34.1577L48.3617 34.1564ZM46.4316 34.0438L46.4339 33.9552C46.5425 33.9547 46.6611 33.959 46.7835 33.9621L46.7812 34.0507C46.6612 34.0426 46.5402 34.0433 46.4316 34.0438ZM47.8355 34.1112C47.7156 34.1031 47.5993 34.0938 47.4831 34.0844L47.4854 33.9957C47.6004 34.0014 47.7203 34.0095 47.8378 34.0226L47.8355 34.1112ZM46.9598 34.0591L46.9621 33.9704L47.1919 33.9817L47.3106 33.9861L47.3082 34.0747L47.1896 34.0704L46.9598 34.0591Z" fill="#C0BFC5"/>
<path d="M61.7536 38.7171L61.6245 38.683C62.2529 36.3041 63.2453 31.5681 62.9782 28.914C62.6566 25.7479 62.02 23.7924 59.5871 22.5222L59.6501 22.4038C62.3824 23.824 62.8499 26.2864 63.1139 28.8956C63.3852 31.5733 62.3855 36.3245 61.7573 38.7158L61.7536 38.7171Z" fill="#C0BFC5"/>
<path d="M53.2838 44.908C53.2026 44.9031 53.1264 44.9005 53.0439 44.8919C50.9478 44.6996 49.1884 43.2388 47.4908 41.8233C46.2462 40.7924 45.0712 39.8165 43.7927 39.3203C40.854 38.1817 39.4804 38.9151 38.8221 39.2676C38.6006 39.3872 38.467 39.4593 38.355 39.4024C38.2682 39.3576 38.2403 39.2545 38.2317 39.1822C38.0702 38.1389 44.0527 35.059 45.439 34.5763L45.4978 34.7438C43.7963 35.3414 38.2793 38.3415 38.4059 39.1545C38.4159 39.2304 38.4373 39.2438 38.4373 39.2438C38.4712 39.257 38.6235 39.1784 38.7422 39.1116C39.3734 38.777 40.8447 37.9884 43.8599 39.1545C45.1673 39.6614 46.3487 40.6434 47.606 41.6866C49.2832 43.0801 51.0236 44.5224 53.0647 44.7131C56.4683 45.0317 59.7405 42.2136 63.0681 39.0414L63.1887 39.1705C59.9065 42.2933 56.6788 45.0833 53.2875 44.9067L53.2838 44.908Z" fill="#C0BFC5"/>
<path d="M39.2912 39.9355C39.0226 39.9211 38.7959 39.8711 38.6146 39.7716C38.3804 39.6406 38.2474 39.4405 38.2182 39.1789L38.3927 39.1636C38.411 39.3705 38.5132 39.5187 38.6958 39.6218C39.4512 40.0341 41.3262 39.5135 42.7015 38.8088L42.7814 38.9648C41.6462 39.5433 40.2367 39.984 39.2824 39.9344L39.2912 39.9355Z" fill="#C0BFC5"/>
<path d="M53.4686 43.8269C53.3486 43.8188 53.2261 43.8033 53.1134 43.7801L53.1295 43.695C53.2409 43.7144 53.356 43.7326 53.4709 43.7382L53.4686 43.8269ZM53.6472 43.8352L53.6495 43.7466C53.7581 43.7461 53.8778 43.7417 53.9925 43.7348L53.999 43.8246C53.8768 43.834 53.7571 43.8385 53.6435 43.8365L53.6472 43.8352ZM52.9368 43.7418L52.8992 43.7299C52.7976 43.7028 52.6985 43.6707 52.6007 43.6423L52.6293 43.557C52.7271 43.5854 52.8262 43.6175 52.9277 43.6446L52.9641 43.6527L52.9429 43.7354L52.9368 43.7418ZM54.1759 43.8043L54.1657 43.7158C54.2778 43.7016 54.3923 43.6823 54.5105 43.6616L54.5281 43.7475C54.4075 43.7731 54.288 43.79 54.1759 43.8043ZM54.6985 43.7086L54.6772 43.624C54.7854 43.5986 54.8997 43.5668 55.014 43.535L55.0427 43.6169C54.926 43.6537 54.8067 43.6831 54.6985 43.7086ZM52.4276 43.5902C52.3148 43.5545 52.2006 43.5152 52.0938 43.4732L52.1224 43.3879C52.2329 43.4286 52.342 43.4655 52.4549 43.5011L52.4263 43.5865L52.4276 43.5902ZM51.9269 43.4147C51.8151 43.3703 51.7083 43.3284 51.6003 43.2827L51.6339 43.1998C51.7382 43.2468 51.8487 43.2874 51.9605 43.3318L51.9306 43.4134L51.9269 43.4147ZM55.2092 43.5668L55.1791 43.4812C55.2871 43.4433 55.3988 43.404 55.5105 43.3648L55.5392 43.4467C55.4275 43.486 55.3158 43.5252 55.2079 43.5631L55.2092 43.5668ZM51.4331 43.2117C51.3238 43.1623 51.2181 43.1116 51.1138 43.0646L51.1537 42.9878C51.2557 43.0398 51.3637 43.0855 51.4731 43.135L51.4395 43.2179L51.4331 43.2117ZM55.7055 43.3842L55.6754 43.2985C55.7783 43.2582 55.8861 43.2078 55.9915 43.1624L56.0277 43.2417C55.9199 43.2921 55.8095 43.3351 55.7042 43.3804L55.7055 43.3842ZM50.9515 42.9836C50.8445 42.9291 50.7413 42.8734 50.6381 42.8176L50.678 42.7408C50.7775 42.7979 50.8808 42.8537 50.9864 42.9044L50.9464 42.9811L50.9515 42.9836ZM56.1913 43.1717L56.1514 43.0937C56.2591 43.0433 56.3595 42.9955 56.4646 42.9377L56.5046 43.0157C56.3981 43.0698 56.2903 43.1202 56.1863 43.1693L56.1913 43.1717ZM50.4869 42.7327C50.3824 42.6732 50.2829 42.6161 50.1845 42.5503L50.2332 42.4746C50.3303 42.5367 50.4311 42.5975 50.5343 42.6533L50.4893 42.7276L50.4869 42.7327ZM56.6693 42.9369L56.6294 42.8589C56.7321 42.8061 56.8335 42.7495 56.9387 42.6917L56.9824 42.7684C56.8772 42.8262 56.7758 42.8828 56.673 42.9356L56.6693 42.9369ZM50.0344 42.4566C49.9336 42.3958 49.839 42.3287 49.7405 42.2629L49.7906 42.1909C49.8852 42.258 49.9823 42.3202 50.0845 42.3847L50.0395 42.459L50.0344 42.4566ZM57.1307 42.6786L57.087 42.602C57.1885 42.5454 57.2886 42.4852 57.3887 42.4249L57.4361 42.5003C57.3322 42.5618 57.2321 42.6221 57.132 42.6824L57.1307 42.6786ZM49.5916 42.1604C49.4932 42.0946 49.401 42.0224 49.3063 41.9553L49.3563 41.8834C49.4486 41.9555 49.5433 42.0227 49.6417 42.0885L49.5916 42.1604ZM57.5818 42.4031L57.5344 42.3277C57.6332 42.2637 57.7334 42.2035 57.8322 42.1395L57.8833 42.2135C57.7845 42.2775 57.6857 42.3415 57.5868 42.4055L57.5818 42.4031ZM49.1635 41.8465C49.0675 41.7757 48.9753 41.7035 48.8867 41.6301L48.9418 41.5605C49.034 41.6327 49.1263 41.7048 49.221 41.772L49.1659 41.8415L49.1635 41.8465ZM58.029 42.1164L57.9779 42.0423C58.0754 41.9746 58.1705 41.9119 58.268 41.8442L58.3191 41.9183C58.2216 41.986 58.1278 42.0524 58.0253 42.1177L58.029 42.1164ZM48.7453 41.525C48.653 41.4528 48.5594 41.377 48.4709 41.3035L48.5272 41.2377C48.6158 41.3111 48.7094 41.387 48.8016 41.4592L48.7466 41.5287L48.7453 41.525ZM58.4635 41.8173L58.4137 41.747C58.5112 41.6793 58.6037 41.6092 58.6975 41.5428L58.7473 41.6131C58.6511 41.6845 58.5573 41.7509 58.4611 41.8224L58.4635 41.8173ZM48.3305 41.1897C48.242 41.1162 48.1484 41.0403 48.0586 40.9631L48.1149 40.8973C48.2035 40.9708 48.297 41.0467 48.3869 41.1239L48.3305 41.1897ZM58.8891 41.5048L58.8393 41.4344C58.9355 41.363 59.028 41.2929 59.1205 41.2227L59.174 41.2918C59.0815 41.3619 58.9866 41.437 58.8941 41.5072L58.8891 41.5048ZM47.9232 40.8517C47.8347 40.7783 47.7411 40.7024 47.6526 40.6289L47.709 40.5631C47.8025 40.639 47.8911 40.7125 47.9796 40.7859L47.9232 40.8517ZM59.3108 41.181L59.2572 41.112C59.3484 41.0381 59.4396 40.9643 59.532 40.8941L59.5856 40.9632C59.4944 41.037 59.4032 41.1109 59.3108 41.181ZM47.5197 40.5125C47.4311 40.439 47.3376 40.3631 47.2453 40.291L47.3004 40.2215C47.3926 40.2936 47.4862 40.3695 47.5747 40.443L47.5184 40.5088L47.5197 40.5125ZM59.7285 40.8461L59.6749 40.777C59.7661 40.7032 59.8573 40.6293 59.9472 40.5518L60.0044 40.6195C59.9145 40.6971 59.8271 40.7696 59.7322 40.8448L59.7285 40.8461ZM47.1113 40.1833C47.019 40.1111 46.9268 40.039 46.8321 39.9719L46.8821 39.8999C46.9781 39.9708 47.0703 40.0429 47.1626 40.1151L47.1076 40.1846L47.1113 40.1833ZM46.6906 39.8668C46.5959 39.7997 46.5013 39.7325 46.4053 39.6617L46.4553 39.5898C46.5537 39.6556 46.6497 39.7264 46.7406 39.7949L46.6906 39.8668ZM60.1361 40.5063L60.0789 40.4386C60.1688 40.361 60.2586 40.2834 60.3448 40.2072L60.402 40.2749C60.3159 40.3512 60.226 40.4287 60.1361 40.5063ZM46.2577 39.563C46.1593 39.4971 46.0622 39.4351 45.9614 39.3743L46.0101 39.2986C46.1109 39.3594 46.2093 39.4252 46.3077 39.491L46.2577 39.563ZM60.5324 40.158L60.4715 40.0916L60.7323 39.8578L60.792 39.9204C60.7071 40.0004 60.621 40.0767 60.5287 40.1593L60.5324 40.158ZM45.8126 39.2843C45.7155 39.2222 45.6123 39.1664 45.5091 39.1107L45.549 39.0339C45.6536 39.0934 45.7531 39.1505 45.8539 39.2112L45.8089 39.2856L45.8126 39.2843ZM45.3529 39.0233C45.251 38.9713 45.1478 38.9155 45.0421 38.8648L45.0821 38.788C45.189 38.8425 45.2947 38.8932 45.3979 38.949L45.3542 39.0271L45.3529 39.0233ZM60.9211 39.7998L60.8614 39.7371C60.95 39.6558 61.0348 39.5758 61.1146 39.4934L61.1743 39.5561C61.0932 39.6348 61.0083 39.7148 60.9173 39.8011L60.9211 39.7998ZM44.8811 38.7875C44.7768 38.7405 44.6674 38.6911 44.5593 38.6454L44.593 38.5625C44.7048 38.6069 44.8104 38.6576 44.9147 38.7046L44.8798 38.7838L44.8811 38.7875ZM38.935 38.3748L38.905 38.2892C39.0029 38.2464 39.1146 38.2072 39.2337 38.1654L39.2625 38.2473C39.1433 38.2891 39.0316 38.3283 38.9324 38.3674L38.935 38.3748ZM44.4023 38.5793C44.2955 38.5373 44.1888 38.4953 44.0783 38.4547L44.1069 38.3693C44.2211 38.4087 44.3278 38.4507 44.4396 38.4951L44.4097 38.5767L44.4023 38.5793ZM61.3071 39.4342L61.2437 39.3728C61.331 39.2878 61.4145 39.2041 61.4943 39.1217L61.5577 39.1831C61.4779 39.2655 61.3944 39.3492 61.3071 39.4342ZM39.4315 38.2046L39.4102 38.1201C39.5208 38.0896 39.6388 38.0565 39.7558 38.0322L39.7771 38.1167C39.6615 38.1448 39.5458 38.1728 39.4366 38.207L39.4315 38.2046ZM43.9114 38.3962C43.8022 38.3592 43.693 38.3223 43.5764 38.288L43.605 38.2027C43.7179 38.2383 43.8308 38.2739 43.9412 38.3146L43.9127 38.3999L43.9114 38.3962ZM39.9437 38.0791L39.9261 37.9933C40.0393 37.9702 40.1576 37.9496 40.2734 37.934L40.2872 38.0212C40.1714 38.0368 40.0545 38.0611 39.94 38.0804L39.9437 38.0791ZM43.4121 38.2369C43.3005 38.205 43.1852 38.1744 43.0762 38.15L43.096 38.0635C43.21 38.0904 43.3254 38.121 43.4407 38.1516L43.4158 38.2356L43.4121 38.2369ZM40.4628 37.9971L40.4527 37.9087C40.5685 37.8931 40.6907 37.8837 40.8041 37.8731L40.8105 37.9629C40.6921 37.971 40.5787 37.9816 40.4615 37.9934L40.4628 37.9971ZM42.9033 38.1103C42.7906 38.0872 42.6729 38.0616 42.5578 38.0435L42.5726 37.9546C42.6877 37.9727 42.8054 37.9983 42.9219 38.0202L42.9058 38.1053L42.9033 38.1103ZM61.6805 39.0563L61.6171 38.9949C61.703 38.9062 61.7815 38.82 61.8576 38.7389L61.9247 38.799C61.8486 38.8801 61.7701 38.9662 61.6818 39.06L61.6805 39.0563ZM40.9876 37.955L40.9812 37.8653C41.0959 37.8585 41.2169 37.8578 41.338 37.8571L41.3394 37.9444C41.2221 37.9438 41.106 37.9469 40.99 37.95L40.9876 37.955ZM42.3864 38.02C42.2676 38.0032 42.1501 37.9901 42.0376 37.9794L42.0399 37.8908C42.1574 37.9038 42.2787 37.9156 42.3975 37.9325L42.3864 38.02ZM41.5116 37.9466L41.514 37.858C41.5864 37.8618 41.6589 37.8657 41.7388 37.8669L41.8661 37.8723L41.8638 37.961L41.7189 37.9533C41.6465 37.9495 41.5828 37.9468 41.5154 37.9453L41.5116 37.9466Z" fill="#C0BFC5"/>
<path d="M53.6302 43.0008L53.6325 42.9122C53.7437 42.9191 53.8597 42.916 53.9782 42.9079L53.9846 42.9976C53.8624 43.0071 53.7414 43.0078 53.6278 43.0058L53.6302 43.0008ZM53.454 42.9874C53.3315 42.9719 53.215 42.95 53.1035 42.9181L53.1283 42.8341C53.2349 42.8636 53.3513 42.8855 53.4688 42.8985L53.4577 42.9861L53.454 42.9874ZM54.1665 42.9797L54.1564 42.8913C54.2648 42.8783 54.383 42.8577 54.4986 42.8296L54.5162 42.9155C54.3956 42.9411 54.281 42.9604 54.1652 42.976L54.1665 42.9797ZM52.9317 42.8697C52.8188 42.8341 52.7046 42.7947 52.5992 42.7565L52.629 42.6749C52.7382 42.7118 52.8487 42.7525 52.9616 42.7881L52.933 42.8734L52.9317 42.8697ZM54.6916 42.879L54.6703 42.7944C54.7809 42.764 54.8915 42.7335 55.0045 42.698L55.0345 42.7836C54.9191 42.8241 54.8048 42.8559 54.6942 42.8864L54.6916 42.879ZM52.4346 42.693C52.3242 42.6523 52.2161 42.6066 52.1043 42.5622L52.1379 42.4793C52.2447 42.5213 52.3527 42.567 52.4632 42.6076L52.4333 42.6892L52.4346 42.693ZM55.2045 42.7197L55.1757 42.6378C55.2837 42.5999 55.3941 42.5569 55.4994 42.5116L55.5282 42.5935C55.4229 42.6388 55.3125 42.6818 55.2045 42.7197ZM51.9435 42.4974C51.8341 42.448 51.7261 42.4023 51.6204 42.3516L51.6554 42.2724C51.7597 42.3194 51.8691 42.3688 51.9747 42.4195L51.9411 42.5024L51.9435 42.4974ZM55.6956 42.5222L55.6593 42.4429C55.7647 42.3975 55.8712 42.3434 55.9789 42.293L56.0189 42.371C55.9124 42.4251 55.8046 42.4755 55.7006 42.5246L55.6956 42.5222ZM51.4608 42.278C51.3538 42.2235 51.2481 42.1728 51.1449 42.1171L51.1886 42.039C51.2905 42.091 51.3937 42.1468 51.4994 42.1975L51.4594 42.2743L51.4608 42.278ZM50.9901 42.0334C50.8855 41.9739 50.786 41.9169 50.6865 41.8598L50.7315 41.7855C50.831 41.8425 50.9318 41.9033 51.0351 41.9591L50.9951 42.0358L50.9901 42.0334ZM56.1711 42.2924L56.1312 42.2144C56.2339 42.1616 56.3354 42.105 56.4405 42.0472L56.4842 42.1239C56.379 42.1817 56.2776 42.2383 56.1748 42.2911L56.1711 42.2924ZM50.5328 41.7674C50.4319 41.7066 50.3348 41.6445 50.2327 41.58L50.2777 41.5057C50.3748 41.5678 50.4769 41.6323 50.5777 41.6931L50.529 41.7687L50.5328 41.7674ZM56.6338 42.0379L56.5902 41.9612C56.6916 41.9046 56.7917 41.8444 56.8905 41.7804L56.9379 41.8558C56.8341 41.9173 56.7339 41.9776 56.6338 42.0379ZM50.0827 41.4863C49.9843 41.4205 49.8859 41.3547 49.7912 41.2876L49.8412 41.2156C49.9359 41.2828 50.033 41.3449 50.1314 41.4107L50.0814 41.4826L50.0827 41.4863ZM57.0863 41.766L57.0389 41.6907C57.1377 41.6267 57.2378 41.5664 57.3353 41.4987L57.3864 41.5728C57.2876 41.6368 57.1901 41.7045 57.09 41.7647L57.0863 41.766ZM49.6473 41.1875C49.5489 41.1217 49.4529 41.0509 49.362 40.9824L49.412 40.9105C49.5067 40.9776 49.6027 41.0485 49.6974 41.1156L49.6473 41.1875ZM57.5308 41.4718L57.4797 41.3978C57.5772 41.3301 57.671 41.2637 57.7685 41.196L57.8183 41.2663C57.7208 41.334 57.6233 41.4017 57.5295 41.4681L57.5308 41.4718ZM49.2155 40.875C49.1195 40.8041 49.0272 40.7319 48.935 40.6598L48.99 40.5903C49.0823 40.6624 49.177 40.7296 49.273 40.8004L49.2229 40.8723L49.2155 40.875ZM57.959 41.1667L57.9092 41.0964C58.003 41.03 58.0992 40.9585 58.1917 40.8884L58.2415 40.9588C58.1453 41.0302 58.0528 41.1003 57.959 41.1667ZM48.7935 40.5547C48.7012 40.4826 48.6053 40.4117 48.5167 40.3383L48.5718 40.2687C48.664 40.3409 48.7563 40.413 48.8486 40.4852L48.7935 40.5547ZM58.387 40.8491L58.3335 40.7801C58.4297 40.7086 58.5209 40.6348 58.6133 40.5647L58.6669 40.6337C58.5757 40.7075 58.4832 40.7777 58.3883 40.8528L58.387 40.8491ZM48.3753 40.2332L48.0985 40.0167L48.1535 39.9472L48.4303 40.1637L48.3753 40.2332ZM58.7999 40.5242L58.7464 40.4552C58.8375 40.3813 58.9324 40.3062 59.0199 40.2336L59.0771 40.3014C58.986 40.3752 58.8948 40.4491 58.8036 40.5229L58.7999 40.5242ZM47.9557 39.9079C47.8634 39.8358 47.7674 39.7649 47.6765 39.6965L47.7315 39.627C47.8238 39.6991 47.9198 39.77 48.0083 39.8434L47.9533 39.913L47.9557 39.9079ZM47.5374 39.5864C47.4414 39.5155 47.3505 39.4471 47.2545 39.3763L47.3045 39.3043C47.4005 39.3752 47.4952 39.4423 47.5875 39.5145L47.5324 39.584L47.5374 39.5864ZM59.2139 40.1906L59.1567 40.1229C59.2478 40.049 59.3377 39.9715 59.4238 39.8952L59.4811 39.9629C59.3949 40.0392 59.3051 40.1167 59.2139 40.1906ZM47.1143 39.2749C47.0197 39.2078 46.925 39.1407 46.8266 39.0748L46.8766 39.0029C46.975 39.0687 47.0697 39.1359 47.1644 39.203L47.1143 39.2749ZM59.6152 39.8447L59.558 39.777C59.6516 39.6981 59.7377 39.6218 59.8225 39.5418L59.8835 39.6083C59.7974 39.6845 59.7075 39.7621 59.6176 39.8397L59.6152 39.8447ZM46.6827 38.9748C46.5843 38.909 46.4872 38.8469 46.3888 38.7811L46.4338 38.7067C46.5346 38.7675 46.633 38.8333 46.7314 38.8991L46.6814 38.9711L46.6827 38.9748ZM60.0139 39.4913L59.953 39.4249L60.2138 39.1911L60.2735 39.2538C60.1873 39.3301 60.1025 39.4101 60.0102 39.4927L60.0139 39.4913ZM46.2388 38.6874C46.138 38.6266 46.0385 38.5695 45.9339 38.5101L45.9789 38.4357C46.0834 38.4952 46.1843 38.556 46.2851 38.6168L46.2364 38.6924L46.2388 38.6874ZM45.7828 38.4251C45.6796 38.3694 45.5776 38.3173 45.472 38.2666L45.5119 38.1898C45.6189 38.2443 45.7245 38.295 45.8241 38.3521L45.7804 38.4301L45.7828 38.4251ZM60.4013 39.1294L60.3416 39.0668C60.4339 38.9842 60.5187 38.9042 60.5998 38.8255L60.6595 38.8882C60.5821 38.9656 60.4935 39.0468 60.4013 39.1294ZM45.3134 38.1843C45.2091 38.1373 45.0997 38.0878 44.9916 38.0422L45.0252 37.9592C45.1333 38.0049 45.2427 38.0544 45.347 38.1014L45.3121 38.1806L45.3134 38.1843ZM44.8346 37.976C44.7265 37.9303 44.616 37.8897 44.5069 37.8527L44.5354 37.7674C44.6446 37.8043 44.7551 37.845 44.8669 37.8894L44.837 37.971L44.8346 37.976ZM60.791 38.7625L60.7276 38.7011C60.8223 38.6135 60.9059 38.5298 60.9795 38.4537L61.0429 38.5151C60.9642 38.5888 60.8844 38.6712 60.791 38.7625ZM44.3399 37.7943C44.2307 37.7573 44.1192 37.7254 44.0063 37.6898L44.0311 37.6058C44.144 37.6414 44.2593 37.672 44.3685 37.7089L44.3399 37.7943ZM40.0727 37.5531L40.0439 37.4712C40.0886 37.4555 40.1272 37.4461 40.1732 37.4342L40.1945 37.5187C40.1535 37.5331 40.1137 37.5387 40.0727 37.5531ZM40.3648 37.4798L40.3472 37.3939C40.4567 37.3722 40.575 37.3516 40.6982 37.3334L40.7121 37.4206C40.5925 37.4374 40.478 37.4567 40.3686 37.4785L40.3648 37.4798ZM43.8358 37.6451C43.7255 37.6169 43.6115 37.59 43.4938 37.5644L43.5136 37.478C43.6314 37.5036 43.7454 37.5305 43.857 37.5624L43.8358 37.6451ZM43.3222 37.5285C43.2096 37.5053 43.0944 37.4872 42.9793 37.4691L42.9941 37.3802C43.113 37.3971 43.2294 37.4189 43.3421 37.4421L43.326 37.5272L43.3222 37.5285ZM40.8802 37.3991L40.8738 37.3094C40.9872 37.2988 41.1056 37.2907 41.2278 37.2812L41.2342 37.371C41.1158 37.3791 40.9974 37.3873 40.884 37.3978L40.8802 37.3991ZM42.8016 37.4395C42.6878 37.4251 42.5703 37.412 42.4528 37.3989L42.4639 37.3114C42.5814 37.3245 42.6989 37.3375 42.8127 37.3519L42.8016 37.4395ZM41.4026 37.3621L41.4012 37.2747C41.5209 37.2703 41.6382 37.2709 41.7556 37.2715L41.7532 37.3602C41.6396 37.3583 41.5223 37.3576 41.4063 37.3607L41.4026 37.3621ZM42.2803 37.3842C42.1641 37.3748 42.0455 37.3705 41.9305 37.3648L41.9329 37.2762L42.2864 37.2942L42.284 37.3829L42.2803 37.3842Z" fill="#C0BFC5"/>
<path d="M53.6436 42.1219L53.6459 42.0333C53.752 42.0378 53.8681 42.0347 53.9889 42.0215L53.9991 42.11C53.8745 42.1245 53.7547 42.1289 53.6398 42.1232L53.6436 42.1219ZM53.4623 42.1061C53.4135 42.0981 53.3634 42.0865 53.3133 42.0748C53.2457 42.0609 53.1792 42.0383 53.1153 42.0231L53.1402 41.939C53.2054 41.958 53.2706 41.9769 53.3345 41.9921C53.3808 42.0051 53.4246 42.0106 53.4734 42.0186L53.4586 42.1074L53.4623 42.1061ZM54.176 42.0897L54.1621 42.0025C54.2692 41.9858 54.3848 41.9578 54.4991 41.926L54.5204 42.0105C54.3986 42.0449 54.283 42.073 54.1747 42.086L54.176 42.0897ZM52.9435 41.9746C52.8319 41.9427 52.7177 41.9034 52.611 41.8614L52.6396 41.7761C52.7501 41.8167 52.8592 41.8537 52.9708 41.8856L52.9422 41.9709L52.9435 41.9746ZM54.6943 41.9578L54.6655 41.8759C54.7772 41.8367 54.8852 41.7987 54.9969 41.7595L55.0257 41.8414C54.9153 41.8844 54.7998 41.9249 54.6943 41.9578ZM52.4414 41.7955C52.3297 41.7511 52.2216 41.7054 52.1135 41.6597L52.1471 41.5768C52.2515 41.6238 52.3633 41.6682 52.47 41.7101L52.4401 41.7917L52.4414 41.7955ZM55.193 41.7701L55.1642 41.6882C55.2659 41.6441 55.3749 41.5975 55.4777 41.5446L55.5176 41.6226C55.4099 41.673 55.3021 41.7234 55.1954 41.7651L55.193 41.7701ZM51.9538 41.5861C51.8445 41.5367 51.7388 41.486 51.6356 41.4302L51.6756 41.3535C51.7775 41.4055 51.8844 41.4599 51.9888 41.5069L51.9538 41.5861ZM51.4808 41.3466C51.3775 41.2908 51.2767 41.23 51.1722 41.1706L51.2171 41.0962C51.318 41.157 51.4212 41.2127 51.5207 41.2698L51.477 41.3479L51.4808 41.3466ZM55.6762 41.5502L55.6363 41.4722C55.739 41.4194 55.8418 41.3666 55.9469 41.3087L55.9869 41.3867C55.8817 41.4446 55.7752 41.4987 55.6725 41.5515L55.6762 41.5502ZM51.0197 41.0819C50.9189 41.0211 50.8205 40.9553 50.7234 40.8932L50.7734 40.8213C50.8718 40.8871 50.9689 40.9492 51.0697 41.01L51.021 41.0856L51.0197 41.0819ZM56.1415 41.3031L56.0979 41.2264C56.1993 41.1699 56.2994 41.1096 56.3995 41.0494L56.4469 41.1247C56.3468 41.185 56.243 41.2466 56.1415 41.3031ZM50.5721 40.7958C50.4737 40.73 50.379 40.6628 50.2843 40.5957L50.3343 40.5238C50.429 40.5909 50.5274 40.6567 50.6258 40.7225L50.5758 40.7945L50.5721 40.7958ZM56.599 41.0337L56.5516 40.9583C56.6517 40.8981 56.7505 40.8341 56.8494 40.7701L56.9005 40.8442C56.8017 40.9081 56.7028 40.9721 56.6027 41.0324L56.599 41.0337ZM50.1391 40.4919C50.0444 40.4248 49.9485 40.354 49.8562 40.2818L49.9112 40.2123C50.0072 40.2831 50.1019 40.3503 50.1942 40.4224L50.1442 40.4944L50.1391 40.4919ZM57.0462 40.747L56.9951 40.6729C57.0939 40.6089 57.1914 40.5412 57.2865 40.4785L57.3376 40.5526C57.2401 40.6203 57.1413 40.6843 57.0462 40.747ZM49.7147 40.1767C49.6187 40.1059 49.5278 40.0375 49.4342 39.9616L49.4893 39.8921C49.5815 39.9642 49.6775 40.0351 49.7698 40.1072L49.7147 40.1767ZM57.4857 40.4504L57.4346 40.3763C57.5321 40.3086 57.6297 40.2409 57.7221 40.1708L57.7719 40.2411C57.6781 40.3075 57.5819 40.3789 57.4844 40.4467L57.4857 40.4504ZM49.2978 39.8589L49.0186 39.6475L49.0736 39.578L49.3528 39.7894L49.2978 39.8589ZM57.9177 40.1439L57.8678 40.0736C57.9641 40.0022 58.0603 39.9307 58.1503 39.8656L58.2001 39.936C58.1039 40.0074 58.0114 40.0775 57.9177 40.1439ZM48.8758 39.5387C48.7835 39.4666 48.6889 39.3994 48.5929 39.3286L48.6479 39.259C48.7439 39.3299 48.8362 39.4021 48.9284 39.4742L48.8734 39.5437L48.8758 39.5387ZM58.3419 39.8276L58.2921 39.7573C58.387 39.6821 58.4795 39.612 58.572 39.5419L58.6255 39.6109C58.533 39.681 58.4418 39.7549 58.3456 39.8263L58.3419 39.8276ZM48.4551 39.2222C48.3591 39.1513 48.2645 39.0842 48.1698 39.0171L48.2198 38.9452C48.3145 39.0123 48.4105 39.0831 48.5027 39.1553L48.4527 39.2272L48.4551 39.2222ZM58.7598 39.5052L58.7063 39.4361C58.8012 39.361 58.8924 39.2871 58.9811 39.2183L59.0347 39.2873C58.9459 39.3562 58.8523 39.435 58.7598 39.5052ZM48.0259 38.9171C47.9312 38.8499 47.8328 38.7841 47.7344 38.7183L47.7844 38.6464C47.8828 38.7122 47.9775 38.7793 48.0722 38.8464L48.0222 38.9184L48.0259 38.9171ZM47.5905 38.6183C47.4934 38.5562 47.395 38.4904 47.2942 38.4296L47.3429 38.3539C47.4438 38.4147 47.5422 38.4805 47.6406 38.5463L47.5905 38.6183ZM59.1701 39.1728L59.1129 39.1051C59.2078 39.03 59.2976 38.9524 59.3851 38.8799L59.4423 38.9476C59.3549 39.0201 59.2637 39.094 59.1701 39.1728ZM47.1442 38.3359C47.0471 38.2738 46.9439 38.218 46.8431 38.1572L46.8881 38.0829C46.9926 38.1424 47.0921 38.1994 47.1892 38.2615L47.1405 38.3372L47.1442 38.3359ZM59.5778 38.8331L59.5205 38.7654C59.6141 38.6865 59.704 38.6089 59.7877 38.5377L59.8449 38.6054C59.7612 38.6766 59.6714 38.7542 59.5778 38.8331ZM46.6906 38.0686C46.5911 38.0115 46.4879 37.9557 46.3822 37.905L46.4222 37.8282C46.5291 37.8827 46.6324 37.9385 46.7356 37.9942L46.6957 38.071L46.6906 38.0686ZM46.225 37.8264C46.123 37.7744 46.0174 37.7237 45.908 37.6742L45.9467 37.5937C46.056 37.6432 46.1617 37.6939 46.2673 37.7446L46.2274 37.8214L46.225 37.8264ZM59.9841 38.4896L59.9269 38.4219L60.1928 38.1905L60.25 38.2582L59.9841 38.4896ZM45.7496 37.6044C45.6453 37.5574 45.5348 37.5167 45.4268 37.471L45.4567 37.3894C45.5684 37.4338 45.6765 37.4795 45.7846 37.5252L45.751 37.6081L45.7496 37.6044ZM45.2622 37.4075C45.1518 37.3669 45.0463 37.3286 44.9334 37.293L44.962 37.2076C45.0762 37.247 45.1854 37.2839 45.2959 37.3246L45.266 37.4062L45.2622 37.4075ZM44.7628 37.2358C44.6536 37.1989 44.542 37.1669 44.4267 37.1363L44.4516 37.0523C44.5669 37.0829 44.6798 37.1186 44.7927 37.1542L44.7641 37.2395L44.7628 37.2358ZM41.0254 36.955L41.004 36.8704C41.0426 36.8611 41.0811 36.8517 41.1271 36.8398L41.1447 36.9256C41.1024 36.9362 41.0589 36.9432 41.0254 36.955ZM44.2587 37.0866C44.1484 37.0584 44.0344 37.0316 43.9154 37.0023L43.9352 36.9158C44.0529 36.9414 44.1682 36.972 44.2785 37.0002L44.2574 37.0829L44.2587 37.0866ZM41.3164 36.8904L41.3025 36.8032C41.4207 36.7826 41.5352 36.7633 41.6511 36.7477L41.6612 36.8362C41.5491 36.8505 41.4309 36.8711 41.3164 36.8904ZM43.7475 36.965C43.6348 36.9419 43.5221 36.9187 43.402 36.8982L43.4168 36.8093C43.5332 36.8312 43.6496 36.853 43.7623 36.8762L43.7425 36.9626L43.7475 36.965ZM41.8394 36.8196L41.833 36.7298C41.9501 36.718 42.0685 36.7099 42.1846 36.7067L42.186 36.7941C42.0699 36.7972 41.9515 36.8053 41.8368 36.8122L41.8394 36.8196ZM43.228 36.8672C43.1166 36.8478 42.9991 36.8347 42.8866 36.824L42.8977 36.7365C43.0139 36.7459 43.129 36.764 43.2441 36.7821L43.2436 36.8283L43.233 36.8697L43.228 36.8672ZM42.3657 36.7937L42.3643 36.7064C42.4566 36.7074 42.5527 36.7071 42.6552 36.7129L42.7189 36.7157L42.7165 36.8043L42.6316 36.8007C42.5417 36.7946 42.453 36.7923 42.3657 36.7937Z" fill="#C0BFC5"/>
<path d="M60.4834 22.6922C60.266 22.6807 60.0094 22.6287 59.7352 22.5744C59.0378 22.4346 58.4393 22.3144 58.5407 21.7936C58.6241 21.3879 59.0538 21.4084 59.1949 21.4174C59.4086 21.4302 59.669 21.481 59.9432 21.5352C60.2762 21.6023 60.5905 21.6634 60.8068 21.7672C61.0721 21.8915 61.1824 22.0745 61.1326 22.3137C61.0492 22.7194 60.6195 22.6988 60.4784 22.6898L60.4834 22.6922ZM59.1903 21.5947C58.8243 21.5769 58.7451 21.6967 58.7211 21.8306C58.6527 22.1599 59.0774 22.2617 59.7711 22.4029C60.0365 22.456 60.2895 22.5094 60.4931 22.5174C60.859 22.5352 60.9382 22.4154 60.966 22.2801C60.9984 22.1224 60.9281 22.0174 60.7382 21.9293C60.542 21.8351 60.2366 21.7751 59.9173 21.7116C59.6518 21.6584 59.3989 21.6051 59.1953 21.5971L59.1903 21.5947Z" fill="#C0BFC5"/>
<path d="M66.0081 28.1215C65.8595 28.1152 65.7103 28.0714 65.5644 28.0013C65.3619 27.901 65.1984 27.7451 65.1069 27.5681C65.0052 27.3738 64.9944 27.1643 65.0815 26.9956C65.1928 26.7767 65.438 26.653 65.7365 26.6694C65.8851 26.6757 66.0344 26.7195 66.1802 26.7896C66.3828 26.8899 66.5463 27.0458 66.6377 27.2228C66.7394 27.4171 66.7503 27.6266 66.6631 27.7953C66.5518 28.0142 66.3067 28.1379 66.0081 28.1215ZM65.7209 27.0178C65.5635 27.0104 65.4433 27.061 65.3961 27.1529C65.3488 27.2447 65.3905 27.3514 65.4176 27.4046C65.478 27.5172 65.5895 27.6203 65.7229 27.6905C65.972 27.8163 66.2724 27.7903 66.3486 27.6381C66.3958 27.5462 66.3542 27.4395 66.3271 27.3863C66.2666 27.2737 66.1552 27.1706 66.0217 27.1004C65.9248 27.0508 65.8183 27.0213 65.7209 27.0178Z" fill="#C0BFC5"/>
<path d="M59.1757 26.9117C59.0183 26.9043 58.864 26.8581 58.723 26.7779C58.5253 26.6675 58.3703 26.5003 58.2861 26.3082C58.198 26.1049 58.2058 25.8889 58.3028 25.7126C58.429 25.4884 58.6791 25.3671 58.9764 25.3798C59.1338 25.3873 59.288 25.4335 59.4291 25.5136C59.6268 25.624 59.7817 25.7912 59.8659 25.9833C59.9541 26.1866 59.9463 26.4027 59.8493 26.5789C59.7231 26.8031 59.4729 26.9244 59.1757 26.9117ZM58.9546 25.7346C58.7972 25.7271 58.6658 25.7817 58.6063 25.8862C58.5627 25.9643 58.5605 26.0654 58.6059 26.1708C58.6565 26.291 58.7605 26.3967 58.8915 26.472C58.986 26.5266 59.0926 26.5561 59.1913 26.5633C59.3487 26.5707 59.4801 26.5162 59.5396 26.4117C59.5832 26.3336 59.5854 26.2325 59.54 26.1271C59.4894 26.0069 59.3854 25.9012 59.2544 25.8259C59.1599 25.7713 59.0533 25.7418 58.9546 25.7346Z" fill="#C0BFC5"/>
<path d="M51.5383 25.3155C51.1797 25.2951 50.9018 25.0873 50.8736 24.8045C50.8522 24.6363 50.9269 24.4679 51.0683 24.3346C51.1987 24.2177 51.3772 24.1424 51.5703 24.1206C51.6263 24.1135 51.6837 24.1101 51.7399 24.1154C52.0985 24.1359 52.3726 24.3449 52.4046 24.6264C52.4424 24.9603 52.1377 25.2597 51.7079 25.3103C51.6519 25.3174 51.5945 25.3209 51.5383 25.3155ZM51.7169 24.4665C51.6832 24.4658 51.6457 24.4664 51.6059 24.472C51.485 24.4852 51.3722 24.5332 51.2997 24.6005C51.2652 24.6335 51.2076 24.6955 51.22 24.7665C51.2344 24.8911 51.437 24.9914 51.6662 24.9653C51.9116 24.9376 52.0677 24.7866 52.0534 24.6745C52.0418 24.5699 51.8957 24.4873 51.7195 24.4739L51.7169 24.4665Z" fill="#C0BFC5"/>
</g>
<g filter="url(#filter1_d_5527_912)">
<path d="M61.1892 30.5014C55.4706 30.5946 50.9116 35.3054 51.0013 41.0241C51.0945 46.7427 55.8054 51.3052 61.524 51.212C67.2426 51.1188 71.8051 46.4079 71.7119 40.6893C71.6187 34.9707 66.9078 30.4082 61.1892 30.5014Z" fill="#E0DFE2" stroke="#F8F8F8"/>
<path d="M61.5172 50.8082C56.2059 50.8945 51.8298 46.6599 51.7435 41.3485C51.6572 36.0372 55.8918 31.6611 61.2066 31.5748C66.518 31.4885 70.8941 35.7231 70.9804 41.0379C71.0667 46.3493 66.8321 50.7254 61.5207 50.8117L61.5172 50.8082Z" fill="#FBFBFB"/>
<g style="mix-blend-mode:multiply">
<path d="M61.2066 31.5714C55.8953 31.6577 51.6572 36.0338 51.7435 41.3452C51.8298 46.6565 56.2059 50.8911 61.5172 50.8049C66.8286 50.7186 71.0632 46.3425 70.9769 41.0311C70.8907 35.7197 66.5146 31.4817 61.2032 31.5679L61.2066 31.5714ZM60.5095 48.0784C56.092 48.1509 52.451 44.6272 52.3819 40.2097C52.3095 35.7922 55.8331 32.1512 60.2507 32.0787C64.6682 32.0062 68.3092 35.5299 68.3816 39.9474C68.4541 44.3649 64.9305 48.0025 60.5129 48.075L60.5095 48.0784Z" fill="#FBFBFB"/>
</g>
<path d="M59.8984 41.0655C59.9674 40.9378 60.0157 40.7963 60.0813 40.6652C60.2401 40.3476 60.4816 40.075 60.6473 39.7609C60.6956 39.6643 60.5783 39.6229 60.5162 39.6885C60.3056 39.9093 60.102 40.1371 59.9295 40.3891C59.9364 40.075 59.9295 39.7575 59.9122 39.44C60.1158 39.0017 60.347 38.5772 60.5438 38.132C60.5955 38.0181 60.454 37.9491 60.385 38.0422C60.2194 38.2597 60.0226 38.5151 59.8604 38.7877C59.819 38.4115 59.7603 38.0353 59.6844 37.6626C59.7811 37.3451 59.8915 37.0449 59.9329 36.7101C59.9502 36.572 59.7811 36.5513 59.7293 36.6687C59.6637 36.8171 59.6085 36.9655 59.5567 37.1139C59.4739 36.8102 59.3738 36.5168 59.2634 36.2269C59.322 36.0647 59.3669 35.8956 59.4083 35.7334C59.4946 35.3883 59.574 35.0432 59.4912 34.6877C59.4635 34.5635 59.3082 34.629 59.2668 34.7049C59.1253 34.9845 59.0736 35.2709 59.0183 35.5747C59.0183 35.5919 59.008 35.6126 59.0045 35.6333C58.8975 35.4124 58.7699 35.2019 58.6387 34.9983C58.7319 34.8568 58.7699 34.7153 58.7733 34.5393C58.7733 34.2252 58.8492 33.9215 58.8182 33.6075C58.8044 33.4729 58.6422 33.4936 58.5973 33.5971C58.4972 33.8076 58.4454 34.0078 58.4075 34.239C58.3902 34.3529 58.4109 34.5151 58.4075 34.6566C58.1452 34.3081 57.8311 34.0009 57.486 33.7283C57.5033 33.6938 57.5067 33.6592 57.486 33.6282C57.2755 33.3555 57.2893 32.9517 57.1789 32.6377C57.1443 32.5376 57.0132 32.6135 57.0132 32.6964C57.0166 32.9414 57.0408 33.2278 57.134 33.4729C56.9752 33.3728 56.8061 33.2831 56.637 33.1968C56.637 33.1795 56.6508 33.1657 56.6474 33.1485C56.5956 32.9207 56.5059 32.7102 56.5197 32.472C56.5266 32.3927 56.423 32.3409 56.3609 32.3823C56.0952 32.5514 56.1953 32.8241 56.3264 33.0587C56.1573 32.9897 55.9882 32.9172 55.8018 32.8689C55.7846 32.862 55.7673 32.8931 55.788 32.9C55.9813 32.969 56.1539 33.0587 56.3299 33.145C55.9813 33.2382 55.65 33.3866 55.2911 33.4349C55.2738 33.4349 55.2635 33.4729 55.2911 33.4729C55.7121 33.4729 56.109 33.2934 56.53 33.3107C56.5542 33.3107 56.5714 33.2934 56.5922 33.2796C56.7785 33.3866 56.958 33.497 57.1202 33.6247C56.9959 33.6351 56.8682 33.642 56.744 33.6661C56.4541 33.7214 56.2125 33.9008 55.9088 33.9043C55.895 33.9043 55.8881 33.925 55.9054 33.925C56.1159 33.9526 56.2885 33.9043 56.4921 33.8491C56.7578 33.78 57.0615 33.8042 57.3376 33.8111C57.6586 34.0906 57.945 34.3978 58.1866 34.7429C57.876 34.7188 57.5516 34.7084 57.3135 34.8948C57.2858 34.9189 57.3031 34.9672 57.3376 34.95C57.3928 34.9224 57.3859 34.9293 57.4204 34.881C57.3963 34.9569 57.4377 34.9707 57.5654 34.912C57.6931 34.9086 57.8242 34.95 57.9485 34.981C58.1072 35.0225 58.2625 35.0777 58.4178 35.1225C58.4247 35.1225 58.4282 35.1225 58.4316 35.1225C58.6145 35.44 58.7733 35.7748 58.9045 36.1234C58.8906 36.1959 58.8768 36.2683 58.8699 36.3408C58.549 36.2373 58.2177 36.1648 57.9174 36.0129C57.8967 36.0026 57.876 36.0406 57.8933 36.0544C58.2073 36.289 58.6145 36.3822 58.901 36.648C58.9493 36.6928 59.0287 36.6618 59.0701 36.6204C59.1944 37.0311 59.2979 37.4486 59.3704 37.88C59.3704 37.8869 59.3704 37.8938 59.3704 37.9042C59.2496 37.9042 59.1357 37.8145 59.039 37.7558C58.8561 37.6454 58.6732 37.5487 58.5007 37.421C58.4869 37.4107 58.4731 37.4314 58.48 37.4417C58.5628 37.6074 59.1391 38.2528 59.4118 38.1561C59.467 38.5461 59.5084 38.9361 59.5326 39.3261C59.3117 39.1639 59.0598 39.0465 58.8596 38.8533C58.8354 38.8326 58.7975 38.874 58.8147 38.8981C58.9114 39.0293 59.0149 39.1432 59.1322 39.2536C59.2737 39.3848 59.4601 39.4779 59.5498 39.6574C59.5636 40.0336 59.5705 40.4098 59.5671 40.7721C59.5671 40.8032 59.5636 40.8343 59.5636 40.8653C59.4842 40.7894 59.4014 40.7135 59.322 40.6341C59.1805 40.4926 59.0563 40.3442 58.8734 40.2545C58.8492 40.2407 58.8216 40.2855 58.8423 40.3028C59.0011 40.4201 59.1012 40.5927 59.2047 40.7549C59.3117 40.9205 59.4601 41.0689 59.5429 41.2484C59.5188 41.7039 59.4739 42.1699 59.4014 42.6392C59.3635 42.5978 59.3289 42.5529 59.2944 42.515C59.1564 42.3631 59.008 42.2285 58.9148 42.0387C58.901 42.0077 58.8561 42.0456 58.863 42.0732C58.9286 42.3079 59.0667 42.4943 59.1909 42.7013C59.2427 42.7876 59.2875 42.8705 59.3497 42.9326C59.2841 43.3018 59.2082 43.6677 59.115 44.0301C58.9148 43.8333 58.6905 43.6711 58.4627 43.4951C58.442 43.4813 58.4109 43.5124 58.4282 43.5331C58.6456 43.7816 58.8665 44.0197 59.039 44.2992C58.9493 44.6133 58.8527 44.9239 58.7422 45.2207C58.549 45.0378 58.4144 44.7548 58.2453 44.5753C58.228 44.5581 58.2004 44.5891 58.2108 44.6099C58.3661 44.8756 58.4489 45.2138 58.6629 45.4381C58.6249 45.5348 58.5938 45.6383 58.5559 45.7315C58.4661 45.9386 58.335 46.1629 58.1866 46.3907C58.0969 46.1077 58.0278 45.8247 57.9899 45.5313C57.9864 45.4934 57.9381 45.5141 57.9381 45.5417C57.914 45.9247 57.9278 46.2837 58.0175 46.6495C57.7932 46.9636 57.5274 47.2845 57.2375 47.5779C57.2582 47.2604 57.2651 46.9394 57.3031 46.6219C57.3031 46.5874 57.2617 46.5908 57.2582 46.6219C57.1616 47.005 57.1167 47.3984 57.0305 47.7849C56.7854 48.0162 56.53 48.2267 56.2712 48.4027C56.3057 48.0472 56.4299 47.6987 56.4748 47.3397C56.4783 47.3052 56.4369 47.3121 56.43 47.3397C56.3092 47.7401 56.1228 48.1232 56.0538 48.5338C55.8191 48.6753 55.581 48.7927 55.3497 48.8548C55.191 48.8962 55.1599 49.1585 55.3566 49.1413C55.5982 49.1206 55.8398 49.0343 56.0779 48.9135C56.0986 48.9238 56.1228 48.9342 56.1504 48.9307C56.5749 48.8617 57.1547 48.9618 57.5033 48.665C57.5723 48.6029 57.5585 48.4855 57.4515 48.4924C57.2272 48.5131 57.0132 48.5753 56.7889 48.5891C56.7199 48.596 56.6474 48.5994 56.5784 48.6063C56.8234 48.4269 57.0546 48.2094 57.2755 47.9886C57.631 47.9644 58.0037 47.854 58.2418 47.5882C58.2901 47.5296 58.2418 47.4467 58.1659 47.4778C57.9761 47.5606 57.7725 47.6296 57.5688 47.6849C57.8104 47.4191 58.0348 47.1499 58.2142 46.9221C58.2315 46.898 58.2487 46.8669 58.2694 46.8428C58.618 46.7392 58.9355 46.4977 59.1633 46.225C59.2185 46.1594 59.1633 46.049 59.077 46.0939C58.8941 46.1939 58.7215 46.3251 58.5455 46.4424C58.7319 46.1491 58.8837 45.8385 59.0183 45.5175C59.3151 45.2552 59.6257 45.0067 59.8501 44.6754C59.9122 44.5857 59.8259 44.458 59.7293 44.5443C59.5567 44.703 59.3807 44.8618 59.2082 45.024C59.2772 44.8273 59.3289 44.6237 59.3842 44.42C59.7086 44.0784 60.0433 43.7505 60.2711 43.3364C60.3229 43.2432 60.2021 43.1396 60.1227 43.2225C59.9087 43.4399 59.7086 43.6677 59.5153 43.9058C59.5843 43.5918 59.6361 43.2777 59.6844 42.9602C59.788 42.867 59.8777 42.7013 59.9226 42.6323C60.1055 42.3355 60.3643 42.0974 60.5369 41.7902C60.599 41.6798 60.4644 41.5797 60.3712 41.6591C60.1262 41.8731 59.9502 42.1146 59.7741 42.3666C59.8156 42.0594 59.8535 41.7488 59.8846 41.4451C59.8949 41.3243 59.9018 41.1966 59.9122 41.0724L59.8984 41.0655Z" fill="#E0DFE2"/>
<path d="M67.4323 35.2675C67.6497 35.2296 67.843 35.1157 68.0397 35.019C68.2606 34.9086 68.4815 34.8706 68.6368 34.6705C68.6885 34.6014 68.6851 34.453 68.5712 34.4565C68.2054 34.4668 67.9603 34.636 67.6532 34.8154C67.5842 34.8568 67.5428 34.881 67.5048 34.8948C67.6774 34.5324 67.8637 34.1873 68.0811 33.8663C68.1053 33.8318 68.0673 33.8042 68.0397 33.8318C67.7671 34.1252 67.5359 34.4427 67.3219 34.7705C67.3115 34.7533 67.3046 34.7429 67.2908 34.7188C67.1631 34.4979 67.0147 34.2874 66.8767 34.0734C66.8525 34.0389 66.7973 34.0803 66.8111 34.1148C66.9353 34.4151 67.0492 34.7119 67.1424 35.0259C67.1424 35.0294 67.1424 35.0328 67.1459 35.0397C66.9077 35.4539 66.7076 35.8853 66.5454 36.3374C66.5074 36.2304 66.4832 36.1062 66.4625 36.044C66.3866 35.8197 66.2762 35.585 66.1761 35.3642C66.1692 35.3434 66.1416 35.3642 66.145 35.378C66.2486 35.6886 66.3486 36.0095 66.3694 36.3374C66.3763 36.4168 66.3866 36.5548 66.4315 36.6583C66.2727 37.1553 66.145 37.6626 66.0518 38.1803C65.8724 38.0354 65.6929 37.887 65.5687 37.6972C65.548 37.6661 65.4997 37.7041 65.5135 37.7317C65.6273 38.0112 65.8482 38.2079 66.0035 38.453C65.9207 38.9879 65.862 39.5263 65.831 40.0647C65.6204 39.8818 65.4479 39.6298 65.2615 39.4331C65.2408 39.4124 65.2063 39.4538 65.2201 39.4745C65.4237 39.7575 65.6377 40.0543 65.8068 40.358C65.7896 40.6928 65.7826 41.0241 65.7757 41.352C65.7757 41.4313 65.7861 41.5245 65.7861 41.6073C65.5169 41.4003 65.2512 41.1794 65.227 40.8584C65.227 40.8446 65.2063 40.8515 65.2063 40.8653C65.1821 41.2726 65.5204 41.559 65.793 41.8489C65.8103 42.3597 65.8551 42.905 65.9483 43.4779C65.7965 43.3606 65.6515 43.2363 65.51 43.1259C65.4824 43.1052 65.4375 43.15 65.4617 43.1742C65.6308 43.3675 65.831 43.5504 66.0001 43.7505C66.0967 44.2786 66.214 44.8135 66.3832 45.3312C66.1588 45.1862 65.9483 44.9723 65.8206 44.8135C65.7999 44.7859 65.7619 44.8238 65.7757 44.8515C65.9345 45.1276 66.2244 45.521 66.5247 45.7246C66.6351 46.0214 66.7524 46.3113 66.8905 46.584C66.818 46.5391 66.7455 46.4908 66.6627 46.4632C66.4453 46.3838 66.2244 46.3079 66.0691 46.1249C66.0518 46.1042 66.0208 46.1319 66.0311 46.1526C66.1347 46.3458 66.2969 46.4597 66.4763 46.5805C66.6731 46.7082 66.8215 46.8946 67.0285 47.0084C67.0561 47.0257 67.0872 47.0223 67.1148 47.0223C67.2494 47.2466 67.3909 47.4571 67.5462 47.6538C67.246 47.6159 66.9457 47.6331 66.642 47.5883C66.6006 47.5814 66.5799 47.6435 66.6178 47.6642C66.8491 47.785 67.1114 47.8402 67.3667 47.8954C67.5807 47.9403 67.6601 48.137 67.8982 48.0645C67.9051 48.0645 67.9086 48.0576 67.912 48.0576C68.0052 48.1473 68.1018 48.2336 68.2019 48.313C68.3193 48.4062 68.4608 48.206 68.3641 48.1059C68.2744 48.0128 68.2054 47.8989 68.1226 47.7953C68.1364 47.747 68.1502 47.6987 68.1605 47.6504C68.2157 47.4122 68.2468 47.1223 68.2503 46.8739C68.2503 46.7117 68.0604 46.7703 68.0087 46.8601C67.9258 47.005 67.8499 47.1362 67.805 47.2984C67.805 47.3156 67.7981 47.3294 67.7981 47.3467C67.6601 47.1223 67.5359 46.8842 67.422 46.6323C67.4703 46.5011 67.5048 46.3665 67.5359 46.2285C67.6049 45.9179 67.7705 45.6625 67.7636 45.3346C67.7567 45.1793 67.5669 45.2173 67.5151 45.3208C67.3978 45.559 67.2805 45.7971 67.1873 46.0456C67.1148 45.8489 67.0492 45.6452 66.9837 45.4382C67.1424 45.0275 67.2667 44.5823 67.3219 44.1578C67.3391 44.0232 67.17 43.9507 67.0941 44.0749C66.9595 44.2924 66.8767 44.534 66.8077 44.779C66.7317 44.4615 66.6662 44.1405 66.6075 43.823C66.8525 43.4848 67.0147 43.0499 67.0941 42.6634C67.1148 42.5599 67.0009 42.4943 66.9215 42.5668C66.7317 42.7462 66.6178 42.974 66.5178 43.2121C66.4418 42.6772 66.397 42.1733 66.3659 41.7005C66.3832 41.6281 66.4073 41.5556 66.4384 41.4831C66.5833 41.1656 66.7524 40.8653 66.8111 40.5168C66.8318 40.3822 66.68 40.3891 66.6247 40.4788C66.5109 40.6686 66.4211 40.8688 66.3314 41.069C66.321 40.7204 66.3279 40.358 66.3417 39.9922C66.4246 39.8507 66.5005 39.7092 66.5833 39.5677C66.7662 39.2605 66.9422 38.9568 67.0768 38.6255C67.1252 38.5013 67.0009 38.3839 66.8905 38.4806C66.7076 38.6428 66.5488 38.8498 66.4004 39.0707C66.4246 38.8395 66.4487 38.6048 66.4832 38.3736C66.8146 37.9905 67.2218 37.673 67.4944 37.2451C67.5531 37.1553 67.5013 36.969 67.3667 37.0552C67.1114 37.2174 66.8353 37.4211 66.6006 37.6592C66.6558 37.3658 66.7283 37.0759 66.8042 36.786C66.8905 36.755 66.9733 36.6998 67.0492 36.6411C67.3633 36.3926 67.705 36.2131 67.9949 35.9336C68.0708 35.8611 68.0397 35.692 67.912 35.7576C67.5738 35.9336 67.2011 36.1234 66.9146 36.3892C67.032 35.9957 67.17 35.6161 67.3253 35.2468C67.3529 35.2537 67.3806 35.2572 67.4185 35.2503L67.4323 35.2675Z" fill="#E0DFE2"/>
</g>
<g filter="url(#filter2_d_5527_912)">
<path d="M92.7661 29.9223C92.6418 29.384 92.5625 28.6074 92.1 28.2382C91.2269 27.541 90.5953 27.9759 90.0086 28.7386C90.0086 28.7282 90.0086 28.7179 90.0017 28.7075C89.7325 27.4064 88.4521 26.4297 87.2407 27.2753C87.0026 27.4409 86.7955 27.6446 86.6092 27.8758C86.126 26.8128 84.6869 27.0786 83.724 27.541C83.5031 27.6446 83.3202 27.7792 83.158 27.931C82.8784 27.9966 82.5851 28.0449 82.3401 28.1105C81.6291 28.2968 80.9285 28.5177 80.2314 28.7489C78.8613 29.1976 77.498 29.6635 76.1866 30.2571C74.8441 30.8645 73.5602 31.6134 72.3972 32.5176C71.8105 32.9766 71.2307 33.4391 70.675 33.9395C70.644 33.9671 70.5819 34.0396 70.5128 34.119C69.7191 34.5228 69.7398 35.7065 69.7984 36.4658C69.9261 38.0395 70.147 39.5857 70.2333 41.1698C70.3541 43.4441 70.5197 45.7702 71.4619 47.8754C71.7 48.4069 72.0107 48.9142 72.3696 49.3836C73.6396 51.934 76.656 52.9314 79.3996 53.2144C81.2426 53.4042 83.1511 53.2247 84.9112 52.638C86.9267 51.9685 88.5729 50.519 89.9948 48.9901C91.3718 47.5061 92.6177 45.8358 93.5633 44.0446C94.0568 43.1093 94.3364 42.1016 94.6332 41.0938C94.9507 40.0171 95.2786 38.9541 95.5063 37.8497C95.917 35.8446 96.0585 33.5599 95.3786 31.5996C95.0266 30.5815 93.6668 28.9008 92.7661 29.9258V29.9223ZM80.4074 40.2552C79.9242 41.2077 79.2305 42.0464 78.3332 42.3363C78.347 42.1257 78.1607 41.9152 78.0502 41.7496C77.9087 41.539 77.7914 41.2871 77.6257 41.0938C77.8604 41.0007 78.0847 40.9006 78.2849 40.8074C78.8923 40.5244 79.6516 40.1482 80.2728 39.6616C80.29 39.8583 80.3522 40.0654 80.4074 40.2552ZM78.844 34.9921C79.0407 35.6134 79.196 36.2277 79.4687 36.8178C79.0062 37.1284 78.5299 37.4183 78.0502 37.6979C77.5533 37.9912 77.0425 38.2432 76.5179 38.4709C76.1314 37.2975 75.6517 36.1276 75.1927 34.9783C76.0969 34.4883 76.9976 33.9947 77.926 33.553C78.0744 33.484 78.2228 33.4115 78.3712 33.3425C78.6024 33.8394 78.6852 34.4848 78.844 34.9887V34.9921Z" fill="#E0DFE2"/>
<path d="M77.5151 30.2226C78.7196 29.7463 79.9689 29.3425 81.201 28.9387C81.7083 28.7696 82.2191 28.6212 82.7264 28.4556C82.1915 29.3218 82.0776 30.4987 81.8809 31.4477C80.4383 31.7653 79.0785 32.4762 77.7602 33.1112C76.145 33.8912 74.6714 34.7919 73.2426 35.8653C73.2253 35.817 73.2115 35.7652 73.1942 35.7169C72.8422 34.6573 72.1071 33.7842 70.9717 33.9706C72.9803 32.4451 75.1649 31.1509 77.5151 30.2226Z" fill="#F7F7F8"/>
<path d="M77.1529 42.3535C76.6387 42.1844 76.1762 41.8738 75.7725 41.4976C76.3661 41.5183 77.0114 41.332 77.5843 41.1111C77.5947 41.3354 77.6879 41.5356 77.7603 41.7461C77.8087 41.8876 77.9433 42.0326 78.0192 42.1637C78.0675 42.2465 78.102 42.3363 78.171 42.388C78.0813 42.4087 77.9916 42.426 77.8949 42.4363C77.9018 42.4329 77.9087 42.426 77.9191 42.4191C77.6327 42.5123 77.36 42.5123 77.1529 42.3501V42.3535Z" fill="#F7F7F8"/>
<path d="M80.5143 40.0344C80.4521 39.8998 80.39 39.748 80.3521 39.5996C80.5522 39.4339 80.7351 39.2613 80.8904 39.0715C80.7869 39.3925 80.6627 39.7169 80.5143 40.0344Z" fill="#F7F7F8"/>
<path d="M78.4299 40.3657C77.6982 40.7798 76.5973 41.3182 75.6586 41.3907C75.4205 41.156 75.203 40.8972 75.0132 40.6349C74.7406 40.2552 74.5266 39.8687 74.3506 39.4718C75.8173 39.3027 77.1978 38.6815 78.4678 37.9533C79.2271 37.5185 79.9173 37.0284 80.5489 36.4244C80.8147 36.1691 81.1563 35.8964 81.3945 35.5754C81.3392 36.3002 81.284 37.0249 81.1943 37.7359C81.1632 37.9878 81.108 38.2674 81.0355 38.5607C80.2245 39.251 79.3548 39.8342 78.4299 40.3622V40.3657Z" fill="#F7F7F8"/>
<path d="M76.3765 38.533C76.2143 38.602 76.0486 38.671 75.883 38.7366C75.3618 38.9437 74.7924 39.0783 74.2851 39.3129C73.833 38.2431 73.6328 37.1214 73.2808 35.9791C73.9089 35.6719 74.5266 35.3406 75.141 35.0059C75.4205 36.2379 75.7691 37.4217 76.3799 38.5295L76.3765 38.533Z" fill="#F7F7F8"/>
<path d="M79.9068 36.5074C79.8136 36.5764 79.7205 36.6386 79.6273 36.7041C79.4444 35.9966 79.2373 35.2754 78.9854 34.5886C78.837 34.1848 78.7334 33.6671 78.478 33.2944C79.2407 32.9354 80.0104 32.5869 80.8007 32.2901C81.1044 32.1762 81.4771 32.0865 81.7912 31.9312C81.5875 33.0528 81.5013 34.2055 81.415 35.3513C81.0147 35.8137 80.3831 36.1623 79.9103 36.5074H79.9068Z" fill="#F7F7F8"/>
<path d="M94.271 40.6176C93.6912 42.3363 93.108 43.8928 92.0968 45.4148C91.1028 46.9126 89.9398 48.3034 88.6456 49.5458C86.0468 52.0445 82.7889 52.8693 79.2583 52.5553C78.9823 52.5311 78.6993 52.4966 78.4094 52.4517C77.0979 52.4621 75.7761 52.0341 74.7684 51.1748C73.8952 50.4328 72.9703 49.4251 72.3836 48.3103C71.9936 47.6546 71.6864 46.9471 71.4587 46.2327C70.8375 44.2793 70.7926 42.1845 70.5855 40.1621C70.4509 38.8403 70.0954 37.5599 69.9539 36.2415C69.8849 35.5893 69.8918 34.7644 70.513 34.3744C71.2896 33.8913 72.1213 34.6505 72.4457 35.2855C73.0497 36.4693 73.06 37.8843 73.5328 39.1198C74.1057 40.6176 75.0306 41.8877 76.4525 42.6573C76.5285 42.6987 76.6044 42.7332 76.6838 42.7643C76.6976 42.7643 76.7079 42.7643 76.7217 42.7677C77.833 43.2233 79.0064 42.3743 79.9175 41.5115C80.0935 41.3182 80.2557 41.125 80.3903 40.9455C81.3429 39.6789 81.543 38.1293 81.757 36.6074C82.0365 34.616 82.078 32.6109 82.5335 30.6437C82.7786 29.5842 82.9028 28.6627 83.9174 28.0553C84.6249 27.6308 85.8122 27.4755 86.4713 28.0519C86.3436 28.2279 86.2297 28.4142 86.1228 28.6041C86.0434 28.9112 85.9536 29.2149 85.857 29.5152C85.8812 29.4737 85.9053 29.4323 85.9295 29.3909C85.9226 29.4116 85.9157 29.4358 85.9088 29.453C85.5671 30.6264 85.3946 31.8516 85.1806 33.0526C84.9286 34.4469 84.6249 35.8308 84.2384 37.1975C83.8622 38.5228 83.2997 39.6962 82.7164 40.9248C82.5163 41.0387 82.3334 41.194 82.1021 41.2457C82.0711 41.2526 82.0676 41.3079 82.1021 41.3148C82.3817 41.3493 82.6302 41.2285 82.8959 41.156C83.2272 41.0697 83.5482 41.2285 83.8105 40.9455C83.8795 40.873 83.8829 40.7074 83.7552 40.7005C83.4895 40.6866 83.2065 40.7453 82.9511 40.8247C83.0408 40.7315 83.1306 40.6314 83.2134 40.5279C84.2108 38.9403 84.7112 36.9249 85.1116 35.1648C85.3842 33.9741 85.5809 32.7696 85.8087 31.5721C85.9467 30.8404 85.9916 29.6946 86.3126 28.8042C86.5196 28.5074 86.7474 28.2279 87.0097 27.9759C87.5239 27.4824 88.1555 27.3375 88.7767 27.724C89.6568 28.2693 89.5808 29.6808 89.5394 30.554C89.4601 32.1795 88.8941 33.8188 88.3936 35.3546C87.8587 36.9939 87.2099 38.5814 86.4437 40.1241C86.4334 40.1276 86.4265 40.131 86.4161 40.1345C86.2643 40.1828 86.1055 40.2415 85.9847 40.3519C85.9778 40.3588 85.9778 40.3795 85.9916 40.3795C86.002 40.3795 86.0158 40.3795 86.0261 40.3795C86.0261 40.3795 86.0296 40.3795 86.033 40.3726C86.033 40.3657 86.0365 40.3622 86.0399 40.3588C86.0848 40.4175 86.4127 40.376 86.4782 40.3726C86.6301 40.3622 86.7888 40.3622 86.8993 40.2414C86.9441 40.1897 86.9648 40.0723 86.8786 40.0447C86.8406 40.0309 86.7992 40.0309 86.7578 40.0309C87.8207 38.3813 88.5386 36.5418 89.1287 34.6781C89.7016 32.8766 90.347 30.9301 90.0606 29.0182C90.0606 29.0182 90.064 29.0182 90.0675 29.0147C90.5023 28.6041 91.0579 28.0588 91.6619 28.4936C92.2383 28.9112 92.2969 29.7982 92.3832 30.4504C92.5592 31.8033 92.3245 33.3115 92.1934 34.6609C92.0553 36.0966 91.8897 37.4632 91.5273 38.8644C91.4203 39.2717 91.2754 39.6409 91.1028 40.0102C91.0856 40.0206 91.0649 40.0275 91.051 40.0378C91.0959 39.9999 90.9889 40.0482 90.9855 40.0482C90.9303 40.062 90.8716 40.0723 90.8164 40.0896C90.7128 40.1207 90.4851 40.1655 90.4436 40.2863C90.4436 40.2967 90.4436 40.3036 90.4505 40.3105C90.5023 40.3346 90.5748 40.3312 90.63 40.3415C90.7197 40.3588 90.806 40.3829 90.8992 40.3933C91.0959 40.414 91.2995 40.4382 91.4203 40.2449C91.4859 40.1414 91.4617 39.9584 91.3099 39.9481C91.2823 39.9481 91.2547 39.955 91.2305 39.9584C91.3651 39.7997 91.5031 39.6409 91.6377 39.4787C91.9484 38.7471 92.2831 37.905 92.397 37.1216C92.6558 35.3787 92.8733 33.629 92.9285 31.8654C92.9457 31.3374 92.9285 30.8025 92.8422 30.2813C93.774 29.1217 94.8612 31.4202 95.082 32.0863C95.3995 33.0492 95.4064 34.1674 95.3788 35.1648C95.3305 37.0249 94.8681 38.8437 94.2745 40.6004L94.271 40.6176Z" fill="#F7F7F8"/>
<path d="M73.888 47.0197C73.7982 46.9265 73.6153 46.854 73.4911 46.8299C73.4393 46.8195 73.3599 46.7988 73.3116 46.8299C73.2944 46.8437 73.2771 46.8575 73.2598 46.8713C73.2529 46.8782 73.2495 46.8817 73.246 46.8851C73.246 46.8817 73.2391 46.8817 73.2357 46.8851C73.2219 46.9093 73.2012 46.9403 73.2219 46.9679C73.2288 46.9783 73.246 46.9852 73.2598 46.9886C73.3392 46.9921 73.3806 47.0473 73.4324 47.1025C73.46 47.1301 73.4807 47.1681 73.5049 47.2026C73.2322 47.175 72.9182 47.2371 72.6697 47.2337C72.2901 47.2268 71.8794 47.1025 71.5688 47.3821C71.5412 47.4062 71.5308 47.4511 71.5653 47.4753C71.9725 47.7444 72.8871 47.9826 73.4669 47.7859C73.5083 47.9515 73.7465 48.0205 73.8811 47.8376C74.0812 47.5581 74.1364 47.282 73.8811 47.0197H73.888Z" fill="#E0DFE2"/>
<path d="M75.0511 48.9522C74.9407 48.7521 74.6611 48.5761 74.4299 48.6347C74.3885 48.6451 74.3643 48.7038 74.3781 48.7417C74.3988 48.7935 74.423 48.8384 74.4471 48.8867C74.4506 48.8936 74.454 48.8867 74.4575 48.8798C74.4782 48.9108 74.492 48.9419 74.5127 48.973C74.4955 48.9833 74.4782 48.9868 74.4609 48.9971C74.2746 49.111 74.0088 49.1455 73.7983 49.1938C73.6292 49.2318 73.4601 49.2698 73.291 49.3008C73.1771 49.3215 73.0563 49.3353 72.939 49.3491C72.901 49.3526 72.7595 49.3975 72.7595 49.3975C72.7664 49.3975 72.7699 49.3871 72.7595 49.3836C72.7354 49.3698 72.7112 49.356 72.6836 49.3422C72.6491 49.3077 72.6146 49.3698 72.6249 49.4009C72.7561 49.7909 73.4256 49.7012 73.7327 49.6735C73.995 49.6494 74.3988 49.6045 74.6611 49.432C74.6508 49.4596 74.6439 49.4872 74.6439 49.5113C74.6439 49.6942 74.7612 49.8254 74.9476 49.7426C75.2478 49.6045 75.1822 49.18 75.0545 48.9488L75.0511 48.9522Z" fill="#E0DFE2"/>
<path d="M76.3972 50.4258C76.2419 50.1566 75.883 50.2015 75.6345 50.2636C75.6035 50.2705 75.5966 50.3326 75.6345 50.3361C75.7381 50.3361 75.8209 50.374 75.8899 50.4327C75.845 50.4465 75.8036 50.4603 75.7588 50.4741C75.5758 50.519 75.3688 50.5017 75.1824 50.5052C74.7821 50.519 74.2299 50.6984 73.8606 50.4914C73.8226 50.4706 73.7916 50.519 73.8123 50.5535C74.1125 51.0159 74.6406 50.9504 75.1272 50.9883C75.386 51.009 75.8312 51.0263 76.0797 50.8537C76.0797 50.8813 76.0797 50.9124 76.0763 50.9366C76.0314 51.2368 76.4455 51.3024 76.518 51.0159C76.5698 50.8158 76.4973 50.6018 76.3938 50.4258H76.3972Z" fill="#E0DFE2"/>
<path d="M78.0604 51.0711C78.0018 51.0539 77.705 51.009 77.7567 51.1505C77.7602 51.1609 77.7705 51.1574 77.774 51.1505C77.7981 51.116 77.9051 51.2471 77.9465 51.2989C77.5842 51.4231 77.239 51.6061 76.8594 51.6992C76.4901 51.789 76.007 52.1134 75.6308 51.9236C75.6135 51.9132 75.5963 51.9477 75.6066 51.9615C75.8896 52.2928 76.3625 52.1306 76.7455 52.0616C77.1976 51.9788 77.6566 51.9684 78.0052 51.7061C78.0052 51.9443 78.3365 51.9822 78.4056 51.7407C78.4987 51.4266 78.3745 51.1574 78.0604 51.0677V51.0711Z" fill="#E0DFE2"/>
<path d="M80.4869 51.5372C80.4869 51.5372 80.4627 51.5269 80.4489 51.5269C80.442 51.5269 80.4385 51.5234 80.4316 51.5234C80.3523 51.5096 80.2694 51.5373 80.197 51.5649C80.1107 51.5994 79.983 51.696 79.8864 51.6649C79.8726 51.6615 79.8622 51.6822 79.8691 51.6926C79.9036 51.7374 79.9519 51.7581 80.0072 51.7719C79.8587 51.8789 79.7138 51.9928 79.5516 52.0756C79.1513 52.2827 78.7647 52.5726 78.2954 52.5726C78.2574 52.5726 78.2401 52.6347 78.2781 52.652C78.7544 52.8383 79.1927 52.6313 79.6413 52.4484C79.9312 52.331 80.2556 52.2068 80.4316 51.9617C80.4593 52.0101 80.4834 52.0618 80.5317 52.1032C80.6732 52.224 80.832 52.0135 80.8147 51.8824C80.794 51.6856 80.6663 51.5821 80.4903 51.5407L80.4869 51.5372Z" fill="#E0DFE2"/>
<path d="M82.54 51.3232C82.3122 51.4164 82.0948 51.582 81.9602 51.7891C81.9464 51.8133 81.9602 51.8478 81.9913 51.834C82.1328 51.7546 82.3226 51.6752 82.4882 51.6925C82.0638 52.1204 81.1595 53.0246 81.0111 52.7865C81.0042 52.7796 80.9973 52.7865 80.9939 52.7899C80.8489 53.1247 81.5875 52.9073 81.6807 52.8728C82.0499 52.7244 82.6504 52.3033 82.8299 51.8581C82.8748 51.8754 82.9265 51.8857 82.9783 51.8719C83.0991 51.8374 83.1888 51.7063 83.175 51.582C83.1474 51.3266 82.7333 51.2507 82.54 51.3266V51.3232Z" fill="#E0DFE2"/>
<path d="M84.9045 50.4708C84.7596 50.5777 84.4869 50.8366 84.5525 51.0437C84.5594 51.0644 84.5767 51.0678 84.5939 51.0609C84.5939 51.0609 84.5939 51.0609 84.5939 51.0644C84.7078 51.0402 84.8942 50.8262 85.0219 50.8504C84.9563 51.1437 84.6767 51.4475 84.5007 51.6442C84.4144 51.7374 83.4999 52.6381 83.4274 52.4794C83.4205 52.4621 83.4033 52.4794 83.4067 52.4932C83.4136 52.5208 83.4171 52.5484 83.424 52.576C83.424 52.5898 83.4343 52.5967 83.4481 52.5932C83.9071 52.5104 84.4938 52.01 84.7975 51.6614C84.9735 51.4578 85.1979 51.2645 85.2807 51.0264C85.3325 51.0402 85.3877 51.0402 85.4464 51.0057C85.5671 50.9367 85.6086 50.7848 85.5602 50.6847C85.4395 50.4362 85.1496 50.2947 84.908 50.4708H84.9045Z" fill="#E0DFE2"/>
<path d="M88.0412 49.5045C87.8341 49.3872 87.6374 49.3216 87.4338 49.4803C87.2198 49.646 87.0956 49.8945 86.9472 50.1119C86.9265 50.143 86.9472 50.1913 86.9886 50.1706C87.0507 50.1361 87.1059 50.0981 87.1612 50.0567C87.1336 50.1361 87.1094 50.2085 87.0818 50.2569C86.9299 50.5226 86.7712 50.7814 86.6055 51.0403C86.5641 51.1024 86.0982 51.7926 86.0188 51.6546C86.0085 51.6373 85.9912 51.6546 85.9912 51.6718C85.9981 51.6994 86.0016 51.7305 86.0016 51.7581C86.0016 51.7719 86.0154 51.7857 86.0292 51.7857C86.4295 51.8133 86.8091 51.3233 87.0369 51.0575C87.313 50.7366 87.6857 50.35 87.7444 49.9083C87.8065 49.9359 87.8687 49.9428 87.9411 49.9255C88.093 49.891 88.2034 49.5942 88.0412 49.5045Z" fill="#E0DFE2"/>
<path d="M86.7643 28.5005C86.4261 28.5005 86.1914 28.887 86.0085 29.1286C86.0085 29.1321 86.0016 29.1355 85.9981 29.1424C85.7704 29.0285 85.3286 28.8767 85.2941 28.6282C85.2941 28.604 85.2596 28.604 85.2561 28.6282C85.1871 28.9112 85.4425 29.2218 85.6151 29.4151C85.6461 29.4496 85.6841 29.4806 85.7186 29.5151C85.6737 29.5738 85.6323 29.629 85.5909 29.6877C85.5012 29.8085 85.4218 29.9396 85.3459 30.0708C85.3286 30.0984 85.3044 30.2054 85.2941 30.2675C85.2768 30.302 85.2527 30.3365 85.2285 30.3676C85.2113 30.3917 85.2285 30.4262 85.2596 30.4124C85.5391 30.2847 85.7945 30.0259 86.0223 29.7843C86.043 29.8016 86.0672 29.8188 86.0879 29.8395C86.2363 29.9741 86.4054 30.1674 86.6055 30.2226C86.6918 30.2468 86.7816 30.2226 86.8437 30.1571C86.854 30.1467 86.8609 30.1363 86.8713 30.126C86.9921 29.9948 86.9955 29.7878 86.8264 29.7015C86.6711 29.6187 86.5296 29.5117 86.3916 29.4082C86.5503 29.2563 86.716 29.1079 86.8678 28.9491C86.9852 28.8249 87.0024 28.5074 86.7643 28.5074V28.5005Z" fill="#E0DFE2"/>
<path d="M90.5851 29.3738C90.3159 29.3565 90.102 29.5705 89.9294 29.7776C89.8569 29.7396 89.7844 29.6982 89.712 29.6568C89.5808 29.5774 89.46 29.467 89.3116 29.429C89.2564 29.4152 89.2184 29.467 89.2219 29.5187C89.2392 29.7776 89.4531 29.9708 89.6602 30.1399C89.5084 30.3539 89.3738 30.5782 89.2668 30.8164C89.253 30.8509 89.284 30.8681 89.3082 30.8543C89.3082 30.8543 89.3082 30.8543 89.3082 30.8578C89.5152 30.699 89.6913 30.5058 89.8707 30.316C90.0571 30.4885 90.1813 30.8819 90.4747 30.8647C90.6818 30.8543 90.806 30.592 90.6887 30.4229C90.63 30.3367 90.5472 30.2849 90.4712 30.2159C90.3919 30.1399 90.3263 30.0571 90.2469 29.9846C90.4022 29.8604 90.5541 29.7362 90.6576 29.574C90.7025 29.5049 90.6818 29.3807 90.5851 29.3772V29.3738Z" fill="#E0DFE2"/>
<path d="M93.2804 30.9614C93.0561 31.0684 92.8766 31.234 92.7144 31.4169C92.4901 31.2616 92.2485 31.1236 92.0587 30.9614C92.0518 30.9545 92.0449 30.9476 92.0242 30.9338C91.9965 30.9165 91.9724 30.9407 91.9689 30.9683C91.8965 31.303 92.2174 31.6137 92.4314 31.8311C92.4107 31.8725 92.39 31.9139 92.3693 31.9519C92.3348 32.0174 92.3003 32.0865 92.2692 32.152C92.2761 32.1348 92.2347 32.259 92.2174 32.3177C92.2174 32.3073 92.2071 32.297 92.2002 32.3108C92.1898 32.3281 92.1795 32.3453 92.1691 32.3626C92.1553 32.3833 92.176 32.4074 92.1967 32.3902C92.3279 32.2659 92.4487 32.1313 92.5694 31.9967C92.7213 32.2073 92.887 32.4626 93.1561 32.3971C93.2907 32.3626 93.3874 32.1693 93.3253 32.0451C93.239 31.8656 93.1044 31.7206 92.9456 31.5929C93.1113 31.448 93.2804 31.3272 93.3908 31.1132C93.4322 31.0339 93.3908 30.92 93.2873 30.9683L93.2804 30.9614Z" fill="#E0DFE2"/>
<path d="M72.0799 35.0268C71.9626 34.8266 71.7831 34.6851 71.614 34.5333C71.576 34.4988 71.5415 34.5712 71.5588 34.6023C71.6727 34.8128 71.7865 35.0371 71.859 35.2649C71.8935 35.3823 71.897 35.6515 72.0972 35.5583C72.3111 35.4547 72.1627 35.1648 72.0833 35.0268H72.0799Z" fill="#E0DFE2"/>
<path d="M72.6389 36.8178C72.556 36.5555 72.4456 36.3173 72.2938 36.0861C72.2696 36.0516 72.2316 36.093 72.2351 36.1206C72.2627 36.3657 72.3076 36.6072 72.3421 36.8488C72.3662 37.0214 72.3421 37.1767 72.4111 37.3424C72.4353 37.401 72.487 37.4528 72.556 37.4528C72.5664 37.4528 72.5802 37.4528 72.5906 37.4528C72.6768 37.4528 72.7528 37.37 72.7597 37.2837C72.7666 37.1801 72.739 37.1387 72.6941 37.049C72.6561 36.9731 72.663 36.8937 72.6389 36.8143V36.8178Z" fill="#E0DFE2"/>
<path d="M73.2911 39.0785C73.1703 38.7886 73.0634 38.4952 72.9391 38.2053C72.9288 38.1777 72.8943 38.1984 72.8977 38.2226C72.9322 38.5504 72.9564 38.8783 72.9909 39.2062C73.015 39.4374 73.0219 39.6962 73.2601 39.7963C73.3187 39.8205 73.3774 39.7652 73.3947 39.7169C73.481 39.4753 73.3843 39.2993 73.2911 39.0785Z" fill="#E0DFE2"/>
<path d="M74.5196 41.4873C74.4229 41.332 74.2573 41.2388 74.1399 41.1007C74.0122 40.9489 73.9018 40.766 73.7914 40.5969C73.7741 40.5693 73.7396 40.6072 73.7499 40.6279C73.8328 40.835 73.8431 41.0662 73.9087 41.2802C73.9674 41.47 74.0916 41.6391 74.1986 41.8048C74.3505 42.0464 74.6542 41.6943 74.5196 41.4873Z" fill="#E0DFE2"/>
<path d="M76.6558 43.0853C76.5557 43.0577 76.466 43.0956 76.3693 43.0922C76.2313 43.0853 76.0967 43.0439 75.9655 43.0025C75.7343 42.9334 75.4755 42.8437 75.296 42.6746C75.2788 42.6608 75.258 42.6919 75.2684 42.7057C75.4962 42.9921 76.3831 43.9964 76.7386 43.4442C76.8076 43.3372 76.8076 43.1233 76.6558 43.0853Z" fill="#E0DFE2"/>
<path d="M78.6786 43.0576C78.6406 43.0266 78.5681 43.0093 78.5198 43.03C78.3852 43.0887 78.2748 43.1888 78.1471 43.2613C78.0125 43.3372 77.8296 43.4718 77.6639 43.4304C77.6329 43.42 77.6156 43.4718 77.6432 43.4856C77.7778 43.5581 77.9952 43.5857 78.1436 43.5891C78.3507 43.596 78.5819 43.5788 78.7096 43.3959C78.7545 43.3337 78.7752 43.2233 78.7407 43.1508C78.72 43.1094 78.7096 43.0887 78.6786 43.0611V43.0576Z" fill="#E0DFE2"/>
<path d="M80.0655 41.9566C80.0483 41.9325 80.0069 41.9118 79.9758 41.9256C79.8136 41.9946 79.7756 42.1257 79.6652 42.25C79.5617 42.3708 79.4202 42.4847 79.3477 42.6262C79.3339 42.6538 79.3339 42.6883 79.365 42.7055C79.3719 42.7055 79.3788 42.7124 79.3822 42.7159C79.3822 42.7159 79.3857 42.7159 79.3891 42.7159C79.3891 42.7159 79.4064 42.7124 79.4133 42.7021C79.7135 42.6469 80.3071 42.2983 80.0621 41.9566H80.0655Z" fill="#E0DFE2"/>
<path d="M80.9804 40.4795C80.939 40.4554 80.8975 40.4726 80.8699 40.5071C80.7768 40.6279 80.7353 40.7763 80.6767 40.9144C80.6318 41.0214 80.5697 41.1456 80.5697 41.2664C80.5628 41.2664 80.5559 41.2664 80.549 41.2664C80.5317 41.2664 80.5283 41.294 80.5455 41.2975C80.5524 41.3044 80.5628 41.3113 80.5697 41.3182C80.5697 41.3527 80.6111 41.3527 80.6284 41.3285C80.7491 41.1698 81.3186 40.6762 80.9769 40.4761L80.9804 40.4795Z" fill="#E0DFE2"/>
<path d="M81.6912 38.992C81.6463 38.9437 81.5807 38.9368 81.5324 38.9851C81.315 39.2129 81.4461 39.5546 81.2839 39.7996C81.2632 39.8307 81.2874 39.8859 81.3288 39.8617C81.5669 39.7202 81.9431 39.2681 81.6912 38.992Z" fill="#E0DFE2"/>
<path d="M82.0086 37.5322C81.8843 37.7393 81.8705 37.967 81.8774 38.2017C81.8774 38.2535 81.9395 38.25 81.9637 38.219C82.1121 38.0188 82.2329 37.791 82.1604 37.5391C82.1397 37.4632 82.0431 37.477 82.0086 37.5356V37.5322Z" fill="#E0DFE2"/>
<path d="M82.3679 35.6134C82.3403 35.603 82.2988 35.6134 82.2816 35.6375C82.0262 35.9309 82.3403 36.2898 82.216 36.6039C82.2057 36.6315 82.2367 36.666 82.2609 36.6384C82.4231 36.4417 82.7371 35.7549 82.3713 35.6134H82.3679Z" fill="#E0DFE2"/>
<path d="M82.6438 33.8946C82.4643 33.8429 82.4298 34.1293 82.4436 34.2397C82.4678 34.4675 82.5058 34.6849 82.4782 34.9162C82.4747 34.9507 82.5161 34.9679 82.5334 34.9369C82.6369 34.754 82.982 33.9913 82.6438 33.8946Z" fill="#E0DFE2"/>
<path d="M82.7197 31.8827C82.5748 31.9241 82.5196 32.0898 82.5575 32.2209C82.592 32.3417 82.5713 32.4625 82.5782 32.5868C82.5886 32.7352 82.6024 32.8594 82.5713 33.0078C82.5644 33.0458 82.6024 33.0596 82.63 33.0389C82.7404 32.9457 82.7853 32.7766 82.8233 32.6385C82.8785 32.4384 82.9613 32.2658 82.9475 32.0518C82.9406 31.9379 82.8336 31.8482 82.7232 31.8827H82.7197Z" fill="#E0DFE2"/>
<path d="M83.2547 29.3149C82.9579 29.4185 82.9337 29.7843 82.9027 30.0569C82.882 30.233 82.8681 30.4124 82.8509 30.5919C82.8474 30.6402 82.8267 30.6989 82.882 30.7265C82.8854 30.7265 82.8889 30.7265 82.8923 30.723C82.8958 30.723 82.9027 30.723 82.9027 30.7161C82.9579 30.5332 83.0373 30.3468 83.0994 30.1639C83.1408 30.0466 83.1753 29.9293 83.2236 29.8119C83.2788 29.6773 83.341 29.5876 83.3617 29.4426C83.372 29.3771 83.3168 29.2942 83.2443 29.3218L83.2547 29.3149Z" fill="#E0DFE2"/>
<path d="M84.2554 28.0208C84.1415 28.0657 84.0656 28.1416 83.9793 28.2279C83.8793 28.3245 83.8447 28.4626 83.7688 28.5799C83.7447 28.6179 83.7826 28.6697 83.8206 28.6352C83.9276 28.542 84.0104 28.4557 84.1312 28.3798C84.2313 28.3176 84.2968 28.2486 84.3452 28.1451C84.3693 28.0933 84.3245 27.9932 84.2554 28.0208Z" fill="#E0DFE2"/>
<path d="M89.5152 47.7443C89.1183 48.0031 89.0769 48.614 88.6869 48.8935C88.6593 48.9143 88.6593 48.9729 88.7042 48.9626C88.9561 48.9108 89.1528 48.6968 89.3219 48.5243C89.5186 48.3241 89.7706 48.0894 89.6498 47.7892C89.6291 47.7374 89.567 47.7098 89.5186 47.7408L89.5152 47.7443Z" fill="#E0DFE2"/>
<path d="M90.8094 46.0773C90.6782 46.1981 90.6265 46.3603 90.5574 46.5225C90.5022 46.6502 90.409 47.0126 90.2365 47.0264C90.2089 47.0264 90.1882 47.0782 90.2227 47.0885C90.3987 47.1438 90.5574 46.985 90.6644 46.8677C90.8301 46.6847 90.9923 46.4397 91.013 46.1912C91.0233 46.0704 90.906 45.9911 90.8094 46.0808V46.0773Z" fill="#E0DFE2"/>
<path d="M92.2897 44.0689C92.231 43.986 92.1378 44.0275 92.0861 44.093C91.9756 44.2311 91.948 44.3967 91.9066 44.5658C91.8721 44.7039 91.8031 45.0421 91.6547 45.0973C91.6236 45.1077 91.6098 45.1801 91.6547 45.1767C91.8514 45.1629 92.0067 44.9627 92.1137 44.8178C92.2552 44.6245 92.4588 44.307 92.2932 44.0723L92.2897 44.0689Z" fill="#E0DFE2"/>
<path d="M93.2182 41.7254C93.1285 41.9049 93.0836 42.0809 93.0318 42.2707C92.987 42.4295 92.9214 42.5917 92.9318 42.7608C92.9318 42.7849 92.9594 42.8022 92.9801 42.7884C93.1285 42.6883 93.232 42.5226 93.3183 42.3708C93.4356 42.1706 93.5116 41.9635 93.4322 41.7358C93.3977 41.6357 93.2631 41.6391 93.2182 41.7289V41.7254Z" fill="#E0DFE2"/>
<path d="M93.9912 39.4961C93.9671 39.4547 93.9015 39.4443 93.8635 39.472C93.691 39.5927 93.7013 39.7826 93.691 39.9724C93.6806 40.1864 93.6944 40.4486 93.5736 40.635C93.5598 40.6592 93.5737 40.7006 93.6082 40.6833C93.7807 40.5694 93.8912 40.3624 93.9429 40.1691C93.9981 39.9655 94.112 39.6928 93.9912 39.4961Z" fill="#E0DFE2"/>
<path d="M94.5333 36.9179C94.4056 37.2595 94.5333 37.6357 94.4505 37.9877C94.4401 38.0257 94.4781 38.0775 94.516 38.0361C94.7818 37.76 94.8059 37.2457 94.7093 36.8937C94.6817 36.7936 94.5609 36.8454 94.5367 36.9144L94.5333 36.9179Z" fill="#E0DFE2"/>
<path d="M94.8021 34.9129C94.7435 34.8922 94.6951 34.9405 94.671 34.9888C94.5916 35.1648 94.6123 35.3029 94.6434 35.4858C94.6779 35.6825 94.7745 35.9206 94.7158 36.1173C94.7055 36.1519 94.7469 36.1795 94.7676 36.145C94.8919 35.931 94.9816 35.7377 95.023 35.4927C95.0575 35.2822 95.0437 34.9888 94.8021 34.9129Z" fill="#E0DFE2"/>
<path d="M94.8681 33.4149C94.8232 33.3804 94.7576 33.4149 94.7438 33.4702C94.6955 33.6565 94.7991 33.8498 94.7956 34.0396C94.7956 34.081 94.8474 34.0914 94.8577 34.05C94.8991 33.8739 95.0613 33.553 94.8681 33.4149Z" fill="#E0DFE2"/>
<path d="M94.6504 32.4487C94.6642 32.5522 94.6987 32.6558 94.7436 32.749C94.7643 32.7938 94.816 32.7593 94.8126 32.7213C94.7988 32.6109 94.8229 32.497 94.7781 32.3969C94.7401 32.3176 94.6435 32.3797 94.6538 32.4522L94.6504 32.4487Z" fill="#E0DFE2"/>
<path d="M83.0923 48.8281C81.988 48.7349 80.9043 48.652 79.862 48.2552C78.7162 47.8203 77.8327 46.7504 77.0907 45.8255C76.3901 44.9524 75.731 44.0482 75.0511 43.1577C74.3608 42.2501 73.36 41.6392 72.5421 40.8593C72.5317 40.8489 72.5179 40.8696 72.5248 40.88C73.3807 41.7876 74.3194 42.5849 74.989 43.6513C75.6964 44.7798 76.4385 45.86 77.2943 46.8781C78.7715 48.6348 80.7938 49.5459 83.0889 49.0627C83.1993 49.0386 83.2166 48.835 83.0889 48.8246L83.0923 48.8281Z" fill="#E0DFE2"/>
<g style="mix-blend-mode:screen" opacity="0.3">
<path d="M73.4911 46.6158C72.0209 44.5831 73.0425 42.2087 74.385 44.4381C75.7275 46.6676 79.1062 50.8781 81.9879 49.8945C84.8697 48.9109 79.1925 54.4914 73.4911 46.6158Z" fill="#F7F7F8"/>
</g>
<g style="mix-blend-mode:multiply" opacity="0.5">
<path d="M92.8388 30.295C92.9285 30.8161 92.9423 31.3511 92.9251 31.8791C92.8698 33.6426 92.649 35.3924 92.3936 37.1352C92.2797 37.9152 91.9449 38.7608 91.6343 39.4924C91.4997 39.6546 91.3617 39.8134 91.2271 39.9721C91.2547 39.9687 91.2823 39.9583 91.3064 39.9618C91.4548 39.9687 91.4825 40.1516 91.4169 40.2586C91.2961 40.4484 91.0925 40.4277 90.8958 40.407C90.806 40.3966 90.7163 40.3725 90.6266 40.3552C90.5679 40.3448 90.4989 40.3483 90.4471 40.3241C90.4367 40.3207 90.4368 40.3103 90.4402 40.3C90.4816 40.1792 90.7094 40.1343 90.8129 40.1033C90.8681 40.086 90.9268 40.0757 90.982 40.0618C90.9889 40.0618 91.0925 40.0135 91.0476 40.0515C91.0614 40.0377 91.0821 40.0342 91.0994 40.0239C91.2719 39.6546 91.4169 39.2853 91.5239 38.8781C91.8862 37.4769 92.0554 36.1102 92.1899 34.6746C92.3176 33.3251 92.5558 31.817 92.3798 30.4641C92.2935 29.8118 92.2348 28.9249 91.6585 28.5073C91.0545 28.069 90.4954 28.6177 90.064 29.0284C90.064 29.0284 90.0606 29.0284 90.0571 29.0319C90.3436 30.9438 89.6982 32.8903 89.1253 34.6918C88.5351 36.5554 87.8138 38.3984 86.7543 40.0446C86.7957 40.0446 86.8337 40.0446 86.8751 40.0584C86.9614 40.086 86.9407 40.2034 86.8958 40.2551C86.7888 40.3794 86.6301 40.3794 86.4748 40.3863C86.4127 40.3897 86.0814 40.4311 86.0365 40.3725C86.0365 40.3725 86.0365 40.3794 86.0296 40.3863C86.0296 40.3863 86.0296 40.3897 86.0227 40.3932C86.0089 40.3932 85.9985 40.3932 85.9882 40.3932C85.9744 40.3932 85.9744 40.3725 85.9813 40.3656C86.1021 40.2586 86.2608 40.1999 86.4127 40.1481C86.423 40.1481 86.4334 40.1412 86.4403 40.1378C87.2064 38.5951 87.8553 37.0041 88.3902 35.3682C88.8906 33.8325 89.4601 32.1932 89.536 30.5676C89.5774 29.691 89.6533 28.283 88.7733 27.7377C88.1521 27.3511 87.5205 27.4961 87.0063 27.9896C86.744 28.2415 86.5162 28.5245 86.3091 28.8179C85.9882 29.7083 85.9433 30.8541 85.8053 31.5857C85.5775 32.7833 85.3808 33.9878 85.1081 35.1784C84.7078 36.9385 84.2039 38.954 83.21 40.5416C83.1271 40.6451 83.0374 40.7417 82.9477 40.8384C83.2031 40.759 83.4861 40.7003 83.7518 40.7141C83.8795 40.721 83.876 40.8867 83.807 40.9592C83.5447 41.2422 83.2238 41.0834 82.8925 41.1697C82.6302 41.2387 82.3782 41.3595 82.0987 41.3284C82.0642 41.325 82.0676 41.2698 82.0987 41.2594C82.3299 41.2076 82.5128 41.0558 82.713 40.9385C83.2997 39.7133 83.8622 38.5364 84.235 37.2112C84.6215 35.8445 84.9252 34.4606 85.1771 33.0663C85.3911 31.8687 85.5637 30.6401 85.9053 29.4667C85.9122 29.446 85.9191 29.4253 85.926 29.4046C85.9019 29.446 85.8777 29.4874 85.8536 29.5288C85.9502 29.2286 86.0399 28.9249 86.1193 28.6177C86.2263 28.4245 86.3402 28.2381 86.4679 28.0655C85.8087 27.4926 84.6215 27.6479 83.914 28.069C82.9028 28.6729 82.7786 29.5979 82.5301 30.6574C82.0745 32.6245 82.0331 34.6297 81.7536 36.621C81.5396 38.1464 81.3394 39.6926 80.3869 40.9592C80.2523 41.1386 80.0935 41.3319 79.9141 41.5252C78.9995 42.388 77.8296 43.2369 76.7183 42.7814C76.7045 42.7745 76.6941 42.7779 76.6803 42.7779C76.6009 42.7469 76.525 42.7124 76.4491 42.671C75.0238 41.8979 74.0988 40.6313 73.5294 39.1335C73.0566 37.898 73.0462 36.483 72.4423 35.2992C72.1179 34.6642 71.2861 33.9015 70.5096 34.3881C69.8849 34.7781 69.8815 35.6029 69.9505 36.2552C70.0886 37.5701 70.4475 38.8505 70.5821 40.1757C70.7857 42.1981 70.834 44.293 71.4552 46.2464C71.683 46.9608 71.9902 47.6683 72.3801 48.324C72.9668 49.4387 73.8918 50.4465 74.7649 51.1885C75.7727 52.0478 77.0945 52.4792 78.4059 52.4654C78.6958 52.5103 78.9823 52.5448 79.2549 52.569C82.7855 52.8865 86.0434 52.0582 88.6421 49.5595C89.9363 48.3136 91.0994 46.9228 92.0933 45.4284C93.1045 43.9065 93.6878 42.35 94.2676 40.6313C94.8612 38.8746 95.3236 37.0559 95.3719 35.1957C95.3961 34.1948 95.3892 33.0767 95.0751 32.1172C94.8543 31.4477 93.7706 29.1527 92.8353 30.3123L92.8388 30.295ZM94.8025 32.7522C95.2132 34.3847 94.9509 41.9738 88.6421 48.638C82.3368 55.3023 75.1894 51.5612 72.6735 46.0393C71.3034 43.0299 71.1205 41.0627 70.7443 39.0058C70.2991 36.5589 69.8918 34.9921 70.6131 34.7056C71.331 34.4192 72.1075 36.7039 72.7632 38.9609C73.419 41.218 73.1463 41.004 72.4561 40.5174C71.7624 40.0342 71.4104 40.3517 72.4354 41.325C73.4604 42.2982 74.2058 43.3577 76.1074 45.9185C78.009 48.4827 80.5387 50.481 83.7345 49.1109C84.6733 48.7105 84.2074 48.3861 83.4032 48.4655C82.5991 48.5449 79.355 48.0099 77.6259 45.7632C75.9245 43.5545 76.8977 43.0368 77.8606 43.3336C78.8235 43.6304 80.6699 42.5571 81.4188 40.1205C82.0228 38.1533 82.751 32.8696 82.8925 31.1889C83.034 29.5081 83.5206 28.2968 84.6457 28.1449C85.1426 28.0793 84.7803 28.635 85.2358 29.232C85.6914 29.8291 85.1185 29.7428 85.0011 30.4986C84.8838 31.2544 84.3799 36.4312 82.9408 39.4752C82.254 40.9316 82.5059 40.8832 82.0159 41.1869C81.5258 41.4906 81.8605 41.7253 82.7268 41.4941C83.593 41.2629 84.8907 40.6969 84.2212 40.583C83.5551 40.4691 83.669 40.2827 84.4386 38.4018C85.2082 36.5209 86.3126 31.7825 86.2712 30.8748C86.2298 29.9671 86.6922 30.6884 87.0822 30.4261C87.4756 30.1673 87.4894 29.8774 87.1236 29.6703C86.7578 29.4633 87.1064 29.1803 87.2237 28.7799C87.341 28.3796 87.0511 27.9827 87.838 27.8792C88.6249 27.7756 88.9355 28.8248 88.9942 29.1492C89.0528 29.4736 88.5489 29.3114 88.932 29.7601C89.3151 30.2087 89.2219 30.3399 88.8561 30.968C88.4868 31.5961 88.0658 34.7263 86.9856 37.4769C85.9053 40.2275 86.3609 39.8962 85.9191 40.1378C85.4774 40.3759 85.7845 40.545 86.4541 40.5795C87.1236 40.614 87.5308 40.0653 87.1961 39.9652C86.8613 39.8651 88.4454 38.4363 88.9044 36.8143C89.3634 35.1922 90.2297 31.213 90.4126 31.2096C90.592 31.2096 91.2857 30.7782 90.8198 30.3364C90.3539 29.8947 90.775 30.0914 90.9303 29.6807C91.0821 29.27 90.6921 29.2493 90.5368 29.2838C90.3815 29.3183 90.6645 28.528 91.2995 28.6488C91.9346 28.773 91.9829 29.1803 92.0588 29.836C92.1347 30.4917 91.6964 30.3192 91.7378 30.7644C91.7758 31.213 91.9587 31.6203 91.7724 32.0655C91.586 32.5107 91.8 36.2207 90.9958 39.1093C90.8095 39.7789 90.8992 39.9135 90.278 40.1619C89.6568 40.4139 90.316 40.5899 91.2409 40.5416C92.1658 40.4933 92.1382 40.2689 91.8517 40.1102C91.5687 39.9514 92.2831 38.9989 92.6869 37.3044C93.0907 35.6098 92.9492 32.7143 93.215 32.7522C93.4807 32.7937 93.85 32.2035 93.4841 31.8549C93.1183 31.5064 93.46 31.5167 93.6015 31.1923C93.743 30.8713 94.3884 31.1095 94.799 32.7419L94.8025 32.7522Z" fill="#F7F7F8"/>
</g>
<g style="mix-blend-mode:multiply" opacity="0.5">
<path d="M81.201 28.9387C79.9689 29.346 78.723 29.7463 77.5151 30.2226C75.1649 31.1509 72.9803 32.4417 70.9717 33.9706C72.1071 33.7842 72.8422 34.6608 73.1942 35.7169C73.2115 35.7686 73.2253 35.817 73.2426 35.8653C74.6714 34.7885 76.145 33.8912 77.7602 33.1112C79.0785 32.4762 80.4383 31.7653 81.8809 31.4477C82.0776 30.4987 82.1949 29.3218 82.7264 28.4556C82.2191 28.6178 81.7083 28.7696 81.201 28.9387ZM80.1001 31.6859C78.6264 32.4382 76.3383 33.3839 74.4367 34.4986C72.649 35.5478 71.9208 33.7117 73.2633 32.7109C75.5963 30.968 78.5643 30.0086 80.1967 29.6048C81.8291 29.201 81.5737 30.9335 80.1001 31.6824V31.6859Z" fill="#F7F7F8"/>
</g>
<g style="mix-blend-mode:multiply" opacity="0.5">
<path d="M80.5523 36.4244C79.9208 37.0284 79.2305 37.5184 78.4713 37.9533C77.2012 38.6815 75.8173 39.3027 74.354 39.4718C74.53 39.8687 74.744 40.2552 75.0166 40.6348C75.2064 40.9006 75.4239 41.156 75.662 41.3907C76.6042 41.3182 77.7017 40.7798 78.4333 40.3657C79.3617 39.8376 80.2314 39.2509 81.0389 38.5641C81.1114 38.2708 81.1666 37.9912 81.1977 37.7393C81.2874 37.0284 81.3427 36.3036 81.3979 35.5789C81.1597 35.8998 80.8181 36.1725 80.5523 36.4278V36.4244ZM78.7784 39.9239C76.1176 41.6495 73.9537 39.9101 75.4239 39.4787C77.0252 39.0059 78.5437 38.4157 79.8794 37.2561C81.2184 36.0931 81.0459 38.4571 78.7784 39.9239Z" fill="#F7F7F8"/>
</g>
<g style="mix-blend-mode:multiply" opacity="0.5">
<path d="M73.2774 35.9793C73.6294 37.1216 73.833 38.2433 74.2817 39.3132C74.7925 39.0785 75.3584 38.9439 75.8796 38.7368C76.0452 38.6712 76.2109 38.6022 76.3731 38.5332C75.7622 37.4253 75.4137 36.2416 75.1341 35.0095C74.5198 35.3408 73.902 35.6722 73.2739 35.9828L73.2774 35.9793ZM75.2135 38.7161C74.7372 38.8645 74.1471 38.5539 73.9642 37.767C73.657 36.4556 73.8537 35.8723 74.4404 35.686C75.0271 35.4996 75.2929 36.5867 75.6276 37.3736C75.9624 38.1605 75.6932 38.5677 75.2169 38.7161H75.2135Z" fill="#F7F7F8"/>
</g>
<g style="mix-blend-mode:multiply" opacity="0.5">
<path d="M80.8007 32.2864C80.0104 32.5867 79.2442 32.9318 78.478 33.2907C78.7334 33.6634 78.837 34.1811 78.9854 34.5849C79.2373 35.2717 79.4409 35.9895 79.6273 36.7005C79.7205 36.6349 79.8171 36.5728 79.9068 36.5038C80.3796 36.1586 81.0112 35.8066 81.4115 35.3476C81.4978 34.1984 81.5841 33.0457 81.7877 31.9275C81.4737 32.0862 81.1009 32.1725 80.7972 32.2864H80.8007ZM80.6005 35.7376C79.7481 36.2484 79.3236 34.9197 79.0923 34.2122C78.83 33.4219 79.9793 32.7799 80.6454 32.8179C81.3115 32.8559 81.453 35.2268 80.6005 35.7376Z" fill="#F7F7F8"/>
</g>
<g style="mix-blend-mode:screen" opacity="0.3">
<path d="M81.1631 45.1696C82.1536 45.066 82.1571 44.293 81.2184 43.551C80.2796 42.8055 80.8111 41.6908 84.2312 41.5527C87.6479 41.4181 91.0853 40.721 90.6297 43.161C90.1707 45.5975 86.333 48.1514 83.0613 47.7441C79.7896 47.3369 78.7439 45.4215 81.1631 45.1696Z" fill="#F7F7F8"/>
</g>
<g style="mix-blend-mode:screen" opacity="0.3">
<path d="M84.48 38.4849C85.4636 34.9371 86.0641 32.4143 86.2332 31.4031L84.48 38.4849Z" fill="#F7F7F8"/>
</g>
</g>
<path d="M53.5522 46.0842L52.6873 91.1551L16.0591 78.9158L16.924 33.8449L53.5522 46.0842Z" fill="#FBFBFB" stroke="#E0DFE2" stroke-width="0.5"/>
<path d="M53.0022 45.8812L102.745 39.4712L101.998 84.8051L52.2547 91.2151L53.0022 45.8812Z" fill="#FBFBFB" stroke="#E0DFE2" stroke-width="0.5"/>
<path d="M51.9964 44.9377L17.1009 34.4602L1.00365 20.0623L35.8991 30.5369L51.9964 44.9377Z" fill="#FBFBFB" stroke="#E0DFE2" stroke-width="0.5"/>
<mask id="path-86-inside-1_5527_912" fill="white">
<path d="M36.2249 30.4042L52.7297 45.4178L53 45.5L36.3446 30.3135L1 19.5L1.21268 19.69L36.2249 30.4042Z"/>
</mask>
<path d="M36.2249 30.4042L52.7297 45.4178L53 45.5L36.3446 30.3135L1 19.5L1.21268 19.69L36.2249 30.4042Z" fill="#FBFBFB"/>
<path d="M36.2249 30.4042L36.5614 30.0344L36.4785 29.9589L36.3713 29.9261L36.2249 30.4042ZM52.7297 45.4178L52.3933 45.7876L52.4765 45.8633L52.5842 45.8961L52.7297 45.4178ZM53 45.5L52.8544 45.9783L53.3369 45.1305L53 45.5ZM36.3446 30.3135L36.6815 29.944L36.5984 29.8683L36.4909 29.8354L36.3446 30.3135ZM1 19.5L1.14628 19.0219L0.66688 19.8729L1 19.5ZM1.21268 19.69L0.87956 20.0629L0.961414 20.136L1.06637 20.1681L1.21268 19.69ZM35.8885 30.7741L52.3933 45.7876L53.0662 45.0479L36.5614 30.0344L35.8885 30.7741ZM52.5842 45.8961L52.8544 45.9783L53.1456 45.0217L52.8753 44.9394L52.5842 45.8961ZM53.3369 45.1305L36.6815 29.944L36.0077 30.683L52.6631 45.8695L53.3369 45.1305ZM36.4909 29.8354L1.14628 19.0219L0.853721 19.9781L36.1983 30.7916L36.4909 29.8354ZM0.66688 19.8729L0.87956 20.0629L1.5458 19.3171L1.33312 19.1271L0.66688 19.8729ZM1.06637 20.1681L36.0786 30.8823L36.3713 29.9261L1.35899 19.2119L1.06637 20.1681Z" fill="#E0DFE2" mask="url(#path-86-inside-1_5527_912)"/>
<path d="M78.0348 59.1913L78.7279 59.171C78.7372 59.1944 78.7584 59.1981 78.7795 59.2017C79.6029 59.3409 80.0996 59.9402 80.1723 60.7172C80.2264 61.2887 80.2027 61.8625 80.1137 62.4317C79.9793 63.2899 79.7232 64.1001 79.3009 64.855C79.2636 64.9226 79.2508 64.9702 79.3104 65.0436C79.6155 65.4232 79.9771 65.741 80.3528 66.0435C80.4288 66.1056 80.4888 66.0803 80.5522 66.0355C81.0761 65.6704 81.6525 65.411 82.2544 65.211C82.9788 64.971 83.7234 64.872 84.4867 64.8734C85.0418 64.8744 85.4856 65.0911 85.8232 65.547C85.9875 65.7676 86.0607 66.0251 86.1485 66.278L86.1724 66.8847C86.1133 67.0925 86.0778 67.3124 85.9738 67.5022C85.652 68.0868 85.1521 68.3654 84.4948 68.3867C84.0349 68.4022 83.576 68.3877 83.1233 68.3194C82.6854 68.2527 82.2487 68.1624 81.8265 68.0116C81.4042 67.8608 80.9935 67.6818 80.6001 67.4636C80.5377 67.4289 80.482 67.4026 80.4111 67.4691C80.1535 67.7105 79.9179 67.9728 79.6845 68.2393C79.5798 68.3583 79.4523 68.4843 79.418 68.627C79.391 68.7437 79.5346 68.8661 79.6066 68.9842C79.6089 68.9885 79.6091 68.9949 79.6114 68.9991C80.0618 69.8102 80.3793 70.6638 80.5103 71.5871C80.574 72.0296 80.646 72.4696 80.592 72.9155C80.5146 73.5638 80.1833 74.0156 79.5894 74.2561C79.4631 74.307 79.3254 74.3347 79.1945 74.3728L78.7975 74.3844C78.7882 74.3611 78.769 74.3552 78.7458 74.3537C77.8921 74.2992 77.3292 73.6202 77.2534 72.8175C77.2066 72.3231 77.2313 71.8287 77.2874 71.3334C77.3903 70.4225 77.6701 69.573 78.0755 68.7627C78.1145 68.6843 78.1027 68.6503 78.0541 68.5916C77.767 68.2416 77.4435 67.9312 77.0959 67.6473C76.9743 67.5478 76.8672 67.4994 76.7116 67.6048C76.2364 67.9256 75.7176 68.1532 75.1712 68.3194C74.3796 68.5614 73.5747 68.7308 72.7368 68.6522C72.2725 68.6078 71.8958 68.387 71.6034 68.0092C71.435 67.7909 71.3639 67.5332 71.2781 67.2782L71.2568 66.7379C71.2796 66.7287 71.2851 66.7092 71.2863 66.6855C71.346 65.8532 72.0181 65.3013 72.7519 65.2477C73.056 65.226 73.3628 65.2213 73.6728 65.2445C74.1894 65.2831 74.6951 65.3628 75.1948 65.5049C75.7264 65.6546 76.2332 65.8695 76.719 66.1387C76.7856 66.1754 76.8522 66.2121 76.9233 66.1477C77.2784 65.8219 77.627 65.4898 77.9033 65.0846C77.9589 65.0036 77.955 64.9565 77.9079 64.8827C77.8094 64.7289 77.7067 64.5774 77.6245 64.4145C77.257 63.6783 76.9768 62.9159 76.8519 62.0954C76.7727 61.5804 76.7062 61.0651 76.7699 60.5481C76.819 60.141 77.0074 59.7986 77.3337 59.5422C77.5458 59.3751 77.7903 59.2842 78.0324 59.1849L78.0348 59.1913ZM78.5739 63.9619C79.0228 62.9743 79.2012 61.9518 79.1549 60.8843C79.1471 60.687 79.0762 60.4873 78.9099 60.3763C78.6615 60.2097 78.3949 60.1659 78.1106 60.3159C77.8387 60.459 77.7789 60.7012 77.7751 60.9781C77.7682 61.3368 77.8263 61.6914 77.8884 62.0394C78.0095 62.712 78.2386 63.3492 78.5739 63.9619ZM81.4792 66.7211C82.0128 66.9781 82.5431 67.1494 83.0935 67.2428C83.3983 67.294 83.7082 67.315 84.02 67.3295C84.2285 67.3385 84.4336 67.3132 84.6346 67.2923C84.9299 67.2622 85.1158 67.0185 85.1344 66.636C85.1471 66.3716 84.975 66.0053 84.628 65.951C84.3444 65.9056 84.0641 65.9417 83.7814 65.9714C83.3144 66.0194 82.8669 66.1354 82.4272 66.2878C82.1078 66.4001 81.7977 66.5336 81.4792 66.7211ZM78.8028 69.716C78.5418 70.2966 78.3839 70.8786 78.3237 71.4856C78.2796 71.914 78.225 72.3406 78.299 72.7784C78.3809 73.2568 78.7853 73.3803 79.1493 73.2795C79.48 73.1883 79.6325 72.8962 79.5802 72.4771C79.5246 72.0258 79.4878 71.5719 79.3632 71.1312C79.2266 70.6523 79.061 70.1849 78.8028 69.716ZM75.8381 66.8898C75.7054 66.8293 75.5937 66.7703 75.4785 66.7264C75.0044 66.5428 74.5181 66.4196 74.0172 66.3548C73.6537 66.3075 73.2907 66.273 72.9277 66.2943C72.6488 66.311 72.437 66.4331 72.3415 66.7299C72.2121 67.1286 72.4568 67.628 72.9482 67.6137C73.4628 67.5987 73.97 67.5581 74.4674 67.4277C74.9356 67.3046 75.3874 67.1369 75.8403 66.8919L75.8381 66.8898ZM78.7293 67.7456C78.7714 67.6929 78.8138 67.6487 78.8476 67.5984C79.0365 67.3224 79.2755 67.0922 79.5061 66.8601C79.5849 66.7806 79.5716 66.7616 79.5064 66.7077C79.2262 66.482 78.9561 66.243 78.7263 65.9621C78.66 65.8803 78.6147 65.9031 78.5649 65.9732C78.3541 66.2799 78.0777 66.524 77.8165 66.7785C77.7639 66.8294 77.7814 66.8482 77.8162 66.8772C77.9076 66.9561 78.0052 67.0305 78.0946 67.1116C78.2802 67.2865 78.4698 67.457 78.6333 67.6561C78.6576 67.6855 78.6899 67.706 78.7271 67.7414L78.7293 67.7456Z" fill="#EFEFF1"/>
<defs>
<filter id="filter0_d_5527_912" x="30.2183" y="21.4141" width="40.0996" height="35.5005" filterUnits="userSpaceOnUse" color-interpolation-filters="sRGB">
<feFlood flood-opacity="0" result="BackgroundImageFix"/>
<feColorMatrix in="SourceAlpha" type="matrix" values="0 0 0 0 0 0 0 0 0 0 0 0 0 0 0 0 0 0 127 0" result="hardAlpha"/>
<feOffset dx="-4" dy="8"/>
<feGaussianBlur stdDeviation="2"/>
<feComposite in2="hardAlpha" operator="out"/>
<feColorMatrix type="matrix" values="0 0 0 0 0 0 0 0 0 0 0 0 0 0 0 0 0 0 0.1 0"/>
<feBlend mode="normal" in2="BackgroundImageFix" result="effect1_dropShadow_5527_912"/>
<feBlend mode="normal" in="SourceGraphic" in2="effect1_dropShadow_5527_912" result="shape"/>
</filter>
<filter id="filter1_d_5527_912" x="42.5" y="30" width="29.7134" height="33.7134" filterUnits="userSpaceOnUse" color-interpolation-filters="sRGB">
<feFlood flood-opacity="0" result="BackgroundImageFix"/>
<feColorMatrix in="SourceAlpha" type="matrix" values="0 0 0 0 0 0 0 0 0 0 0 0 0 0 0 0 0 0 127 0" result="hardAlpha"/>
<feOffset dx="-4" dy="8"/>
<feGaussianBlur stdDeviation="2"/>
<feComposite in2="hardAlpha" operator="out"/>
<feColorMatrix type="matrix" values="0 0 0 0 0 0 0 0 0 0 0 0 0 0 0 0 0 0 0.1 0"/>
<feBlend mode="normal" in2="BackgroundImageFix" result="effect1_dropShadow_5527_912"/>
<feBlend mode="normal" in="SourceGraphic" in2="effect1_dropShadow_5527_912" result="shape"/>
</filter>
<filter id="filter2_d_5527_912" x="61.7734" y="26.959" width="34.0781" height="38.3279" filterUnits="userSpaceOnUse" color-interpolation-filters="sRGB">
<feFlood flood-opacity="0" result="BackgroundImageFix"/>
<feColorMatrix in="SourceAlpha" type="matrix" values="0 0 0 0 0 0 0 0 0 0 0 0 0 0 0 0 0 0 127 0" result="hardAlpha"/>
<feOffset dx="-4" dy="8"/>
<feGaussianBlur stdDeviation="2"/>
<feComposite in2="hardAlpha" operator="out"/>
<feColorMatrix type="matrix" values="0 0 0 0 0 0 0 0 0 0 0 0 0 0 0 0 0 0 0.1 0"/>
<feBlend mode="normal" in2="BackgroundImageFix" result="effect1_dropShadow_5527_912"/>
<feBlend mode="normal" in="SourceGraphic" in2="effect1_dropShadow_5527_912" result="shape"/>
</filter>
<linearGradient id="paint0_linear_5527_912" x1="75.489" y1="35.9437" x2="59.2816" y2="44.2488" gradientUnits="userSpaceOnUse">
<stop stop-color="white"/>
<stop offset="1" stop-color="#E5E5E3"/>
</linearGradient>
<linearGradient id="paint1_linear_5527_912" x1="77.1198" y1="42.4753" x2="60.5382" y2="38.9767" gradientUnits="userSpaceOnUse">
<stop stop-color="#AFAFAC"/>
<stop offset="0.11" stop-color="#B6B6B3"/>
<stop offset="0.69" stop-color="#D8D8D5"/>
<stop offset="1" stop-color="#E5E5E3"/>
</linearGradient>
<linearGradient id="paint2_linear_5527_912" x1="89.326" y1="50.8146" x2="81.1009" y2="39.2052" gradientUnits="userSpaceOnUse">
<stop stop-color="#AFAFAC"/>
<stop offset="0.11" stop-color="#B6B6B3"/>
<stop offset="0.69" stop-color="#D8D8D5"/>
<stop offset="1" stop-color="#E5E5E3"/>
</linearGradient>
</defs>
</svg>
