<?xml version="1.0" encoding="UTF-8"?>
<svg width="478px" height="499px" viewBox="0 0 478 499" version="1.1" xmlns="http://www.w3.org/2000/svg" xmlns:xlink="http://www.w3.org/1999/xlink">
    <!-- Generator: Sketch 61.2 (89653) - https://sketch.com -->
    <title>Vector</title>
    <desc>Created with Sketch.</desc>
    <g id="Page-1" stroke="none" stroke-width="1" fill="none" fill-rule="evenodd">
        <g id="Vector" fill="#6D192B" fill-rule="nonzero">
            <path d="M286.667429,214.015341 L239.048,214.015341 L239.048,166.666477 L286.667429,166.666477 L286.667429,214.015341 Z M286.667429,119.318182 L239.048,119.318182 L239.048,0.946909091 L286.667429,0.946909091 L286.667429,119.318182 Z M143.809714,403.409091 C117.619429,403.409091 96.4291429,424.715909 96.4291429,450.757386 C96.4291429,476.799432 117.619429,498.10625 143.809714,498.10625 C170.000571,498.10625 191.429143,476.799432 191.429143,450.757386 C191.429143,424.715909 170.000571,403.409091 143.809714,403.409091 Z M381.905143,403.409091 C355.714857,403.409091 334.524571,424.715909 334.524571,450.757386 C334.524571,476.799432 355.714857,498.10625 381.905143,498.10625 C408.096,498.10625 429.524571,476.799432 429.524571,450.757386 C429.524571,424.715909 408.096,403.409091 381.905143,403.409091 Z M170.000571,285.038068 L347.381714,285.038068 C365.238857,285.038068 380.952571,275.33125 389.048,260.653409 L477.143429,94.6971591 L435.476571,71.9698864 L347.381714,237.689205 L180.238286,237.689205 L78.8097143,24.6211364 L0.952845714,24.6211364 L0.952845714,71.9698864 L48.5718857,71.9698864 L134.286286,251.657386 L102.143429,309.422159 C84.7622857,341.146023 107.619429,379.734659 143.809714,379.734659 L429.524571,379.734659 L429.524571,332.386364 L143.809714,332.386364 L170.000571,285.038068 Z" id="Shape"></path>
        </g>
    </g>
</svg>