<?xml version="1.0" encoding="UTF-8"?>
<svg width="991px" height="296px" viewBox="0 0 991 296" version="1.1" xmlns="http://www.w3.org/2000/svg" xmlns:xlink="http://www.w3.org/1999/xlink">
    <title>google-play</title>
    <defs>
        <linearGradient x1="61.6540773%" y1="4.96192275%" x2="25.1984344%" y2="71.8999012%" id="linearGradient-1">
            <stop stop-color="#00A0FF" offset="0%"></stop>
            <stop stop-color="#00A1FF" offset="0.66%"></stop>
            <stop stop-color="#00BEFF" offset="26.01%"></stop>
            <stop stop-color="#00D2FF" offset="51.22%"></stop>
            <stop stop-color="#00DFFF" offset="76.04%"></stop>
            <stop stop-color="#00E3FF" offset="100%"></stop>
        </linearGradient>
        <linearGradient x1="107.583002%" y1="49.9946116%" x2="-130.477278%" y2="49.9946116%" id="linearGradient-2">
            <stop stop-color="#FFE000" offset="0%"></stop>
            <stop stop-color="#FFBD00" offset="40.87%"></stop>
            <stop stop-color="#FFA500" offset="77.54%"></stop>
            <stop stop-color="#FF9C00" offset="100%"></stop>
        </linearGradient>
        <linearGradient x1="86.2521078%" y1="31.9121846%" x2="-50.1401028%" y2="131.430317%" id="linearGradient-3">
            <stop stop-color="#FF3A44" offset="0%"></stop>
            <stop stop-color="#C31162" offset="100%"></stop>
        </linearGradient>
        <linearGradient x1="-18.8097543%" y1="-8.57403648%" x2="42.0931321%" y2="35.8650686%" id="linearGradient-4">
            <stop stop-color="#32A071" offset="0%"></stop>
            <stop stop-color="#2DA771" offset="6.85%"></stop>
            <stop stop-color="#15CF74" offset="47.62%"></stop>
            <stop stop-color="#06E775" offset="80.09%"></stop>
            <stop stop-color="#00F076" offset="100%"></stop>
        </linearGradient>
    </defs>
    <g id="Page-1" stroke="none" stroke-width="1" fill="none" fill-rule="evenodd">
        <g id="google-play" transform="translate(-1.000000, -1.000000)">
            <path d="M8.33333333,43.2942162 C8.33333333,23.8615135 24.5243333,8.10810811 44.4968333,8.10810811 L948.583333,8.10810811 C968.558333,8.10810811 984.75,23.8615135 984.75,43.2942162 L984.75,254.411351 C984.75,273.844054 968.558333,289.597297 948.583333,289.597297 L44.4968333,289.597297 C24.52425,289.597297 8.33333333,273.844054 8.33333333,254.411351 L8.33333333,43.2942162 Z" id="Path" fill="#000000" fill-rule="nonzero"></path>
            <path d="M501.140833,161.173784 C484.129167,161.173784 470.264167,173.763243 470.264167,191.103243 C470.264167,208.337838 484.129167,221.032703 501.140833,221.032703 C518.159167,221.032703 532.024167,208.337838 532.024167,191.103243 C532.0175,173.763243 518.151667,161.173784 501.140833,161.173784 Z M501.140833,209.252432 C491.8175,209.252432 483.7825,201.771892 483.7825,191.110541 C483.7825,180.336486 491.825,172.968649 501.140833,172.968649 C510.463333,172.968649 518.499167,180.336486 518.499167,191.110541 C518.499167,201.764595 510.463333,209.252432 501.140833,209.252432 Z M433.775,161.173784 C416.764167,161.173784 402.899167,173.763243 402.899167,191.103243 C402.899167,208.337838 416.764167,221.032703 433.775,221.032703 C450.794167,221.032703 464.659167,208.337838 464.659167,191.103243 C464.659167,173.763243 450.794167,161.173784 433.775,161.173784 Z M433.775,209.252432 C424.4525,209.252432 416.416667,201.771892 416.416667,191.110541 C416.416667,180.336486 424.459167,172.968649 433.775,172.968649 C443.098333,172.968649 451.134171,180.336486 451.134171,191.110541 C451.140833,201.764595 443.098333,209.252432 433.775,209.252432 Z M353.651667,170.364324 L353.651667,183.06 L384.8825,183.06 C383.949167,190.202432 381.504167,195.416757 377.7725,199.041081 C373.23,203.460811 366.120833,208.337838 353.651667,208.337838 C334.426667,208.337838 319.3975,193.256757 319.3975,174.552162 C319.3975,155.846757 334.426667,140.765676 353.651667,140.765676 C364.023333,140.765676 371.595833,144.735405 377.186667,149.837027 L386.394167,140.878378 C378.5825,133.623243 368.218333,128.070811 353.651667,128.070811 C327.3175,128.070811 305.1775,148.928919 305.1775,174.552162 C305.1775,200.174595 327.3175,221.032703 353.651667,221.032703 C367.863333,221.032703 378.59,216.493784 386.9725,207.992432 C395.594167,199.604595 398.2775,187.80973 398.2775,178.288378 C398.2775,175.346757 398.045833,172.623243 397.575833,170.357838 L353.651667,170.357838 L353.651667,170.364324 Z M681.350833,180.223784 C678.79,173.538649 670.979167,161.173784 655.016667,161.173784 C639.17,161.173784 625.999167,173.305946 625.999167,191.103243 C625.999167,207.87973 639.054167,221.032703 656.528333,221.032703 C670.625,221.032703 678.783333,212.644054 682.168333,207.767838 L671.680833,200.962703 C668.1875,205.951622 663.406667,209.238649 656.528333,209.238649 C649.6575,209.238649 644.760833,206.177027 641.614167,200.167297 L682.746667,183.615405 L681.350833,180.223784 Z M639.400833,190.202432 C639.054167,178.632973 648.608333,172.743243 655.486667,172.743243 C660.845833,172.743243 665.388333,175.354054 666.906667,179.091081 L639.400833,190.202432 Z M605.964167,219.223784 L619.475,219.223784 L619.475,131.251622 L605.964167,131.251622 L605.964167,219.223784 Z M583.8175,167.866216 L583.355,167.866216 C580.324167,164.348108 574.495,161.173784 567.160833,161.173784 C551.776667,161.173784 537.68,174.326757 537.68,191.223243 C537.68,207.99973 551.776667,221.04 567.160833,221.04 C574.501667,221.04 580.324167,217.865676 583.355,214.241351 L583.8175,214.241351 L583.8175,218.548378 C583.8175,229.997838 577.525,236.12027 567.3925,236.12027 C559.118333,236.12027 553.99,230.343243 551.8925,225.466216 L540.125,230.230541 C543.5025,238.161081 552.470833,247.915135 567.3925,247.915135 C583.239167,247.915135 596.641667,238.843784 596.641667,216.732973 L596.641667,162.996486 L583.825,162.996486 L583.825,167.866216 L583.8175,167.866216 Z M568.325,209.252432 C559.0025,209.252432 551.198333,201.651892 551.198333,191.223243 C551.198333,180.673784 559.0025,172.968649 568.325,172.968649 C577.525,172.968649 584.750833,180.673784 584.750833,191.223243 C584.750833,201.651892 577.525,209.252432 568.325,209.252432 Z M744.665833,131.251622 L712.328333,131.251622 L712.328333,219.223784 L725.8175,219.223784 L725.8175,185.895405 L744.658333,185.895405 C759.615833,185.895405 774.3275,175.361351 774.3275,158.577568 C774.3275,141.793784 759.623333,131.251622 744.665833,131.251622 Z M745.013333,173.651351 L725.8175,173.651351 L725.8175,143.496486 L745.013333,143.496486 C755.1025,143.496486 760.830833,151.624865 760.830833,158.577568 C760.830833,165.389189 755.1025,173.651351 745.013333,173.651351 Z M828.420833,161.018919 C818.649167,161.018919 808.530833,165.205946 804.3425,174.488108 L816.32,179.351351 C818.880833,174.488108 823.654167,172.898108 828.651667,172.898108 C835.631667,172.898108 842.725,176.972432 842.841667,184.213784 L842.841667,185.121892 C840.3975,183.763784 835.161667,181.729459 828.7675,181.729459 C815.8575,181.729459 802.708333,188.633514 802.708333,201.532703 C802.708333,213.305676 813.296667,220.885135 825.158333,220.885135 C834.228333,220.885135 839.233333,216.922703 842.375,212.278378 L842.833333,212.278378 L842.833333,219.068919 L855.866671,219.068919 L855.866671,185.34 C855.875,169.731081 843.883333,161.018919 828.420833,161.018919 Z M826.785833,209.231351 C822.374167,209.231351 816.204167,207.077838 816.204167,201.757297 C816.204167,194.966757 823.885833,192.363243 830.518333,192.363243 C836.441667,192.363243 839.240833,193.608649 842.841667,195.304865 C841.791667,203.460811 834.5825,209.231351 826.785833,209.231351 Z M903.333333,162.940541 L887.858333,201.081892 L887.4,201.081892 L871.341667,162.940541 L856.8,162.940541 L880.883333,216.247297 L867.15,245.901892 L881.225,245.901892 L918.341667,162.940541 L903.333333,162.940541 Z M781.776667,219.223784 L795.265833,219.223784 L795.265833,131.251622 L781.776667,131.251622 L781.776667,219.223784 Z" id="Shape" fill="#FFFFFF" fill-rule="nonzero"></path>
            <path d="M351.294167,80.1916216 C351.294167,86.0888919 349.5,90.7824324 345.905833,94.2875676 C341.826667,98.4535135 336.503333,100.536486 329.965,100.536486 C323.700833,100.536486 318.370833,98.4251351 313.995,94.2024324 C309.611667,89.9732432 307.42,84.7376757 307.42,78.4886757 C307.42,72.2325405 309.611667,66.9968919 313.995,62.7745135 C318.370833,58.5451622 323.700833,56.433973 329.965,56.433973 C333.075,56.433973 336.0475,57.0251351 338.868333,58.2003243 C341.695833,59.3825676 343.96,60.9518919 345.6525,62.9152703 L341.840833,66.6308919 C338.969167,63.2882432 335.013333,61.6204054 329.9575,61.6204054 C325.386667,61.6204054 321.4375,63.1826757 318.103333,66.3072162 C314.769167,69.4317568 313.105,73.4922162 313.105,78.4816216 C313.105,83.471027 314.769167,87.5314865 318.103333,90.6559459 C321.4375,93.7808108 325.386667,95.3424324 329.9575,95.3424324 C334.803333,95.3424324 338.846667,93.7735135 342.079167,90.6275676 C344.176667,88.580027 345.391667,85.7299459 345.7175,82.0776486 L329.9575,82.0776486 L329.9575,77.0038378 L350.9825,77.0038378 C351.2,78.1086486 351.294167,79.1712973 351.294167,80.1916216 Z" id="Path" fill="#FFFFFF" fill-rule="nonzero"></path>
            <polygon id="Path" fill="#FFFFFF" fill-rule="nonzero" points="384.6375 62.5567297 364.8775 62.5567297 364.8775 75.9415946 382.699167 75.9415946 382.699167 81.0154054 364.8775 81.0154054 364.8775 94.4002703 384.6375 94.4002703 384.6375 99.5935135 359.300833 99.5935135 359.300833 57.3702973 384.6375 57.3702973"></polygon>
            <polygon id="Path" fill="#FFFFFF" fill-rule="nonzero" points="408.15 99.5935135 402.573333 99.5935135 402.573333 62.5567297 390.451667 62.5567297 390.451667 57.3702973 420.2725 57.3702973 420.2725 62.5567297 408.15 62.5567297"></polygon>
            <polygon id="Path" fill="#FFFFFF" fill-rule="nonzero" points="441.846667 99.5935135 441.846667 57.3702973 447.423333 57.3702973 447.423333 99.5935135"></polygon>
            <polygon id="Path" fill="#FFFFFF" fill-rule="nonzero" points="472.153333 99.5935135 466.576667 99.5935135 466.576667 62.5567297 454.455 62.5567297 454.455 57.3702973 484.275 57.3702973 484.275 62.5567297 472.153333 62.5567297"></polygon>
            <path d="M540.725,94.14 C536.4575,98.4040541 531.155833,100.536486 524.8125,100.536486 C518.47,100.536486 513.168333,98.4040541 508.908333,94.14 C504.640833,89.8751351 502.514167,84.6535946 502.514167,78.4819459 C502.514167,72.3102973 504.640833,67.0886757 508.908333,62.8241351 C513.168333,58.5595135 518.47,56.4202703 524.8125,56.4202703 C531.12,56.4202703 536.414167,58.5665676 540.695833,62.8522703 C544.9775,67.1378919 547.118333,72.3454865 547.118333,78.4819459 C547.118333,84.6535946 544.985,89.8751351 540.725,94.14 Z M513.023333,90.6 C516.235,93.767027 520.1625,95.3432432 524.8125,95.3432432 C529.463333,95.3432432 533.398333,93.7597297 536.6025,90.6 C539.813333,87.4332973 541.426667,83.3939189 541.426667,78.4819459 C541.426667,73.569973 539.813333,69.5305946 536.6025,66.3638108 C533.398333,63.1971081 529.463333,61.6207297 524.8125,61.6207297 C520.1625,61.6207297 516.235,63.2041622 513.023333,66.3638108 C509.819167,69.5305946 508.206667,73.569973 508.206667,78.4819459 C508.206667,83.3939189 509.819167,87.4332973 513.023333,90.6 Z" id="Shape" fill="#FFFFFF" fill-rule="nonzero"></path>
            <polygon id="Path" fill="#FFFFFF" fill-rule="nonzero" points="554.944167 99.5935135 554.944167 57.3702973 561.728333 57.3702973 582.819167 90.2132432 583.058333 90.2132432 582.819167 82.0780541 582.819167 57.3702973 588.395833 57.3702973 588.395833 99.5935135 582.573333 99.5935135 560.506667 65.1535135 560.2675 65.1535135 560.506667 73.2885405 560.506667 99.5935135"></polygon>
            <path d="M351.294167,80.1916216 C351.294167,86.0888919 349.5,90.7824324 345.905833,94.2875676 C341.826667,98.4535135 336.503333,100.536486 329.965,100.536486 C323.700833,100.536486 318.370833,98.4251351 313.995,94.2024324 C309.611667,89.9732432 307.42,84.7376757 307.42,78.4886757 C307.42,72.2325405 309.611667,66.9968919 313.995,62.7745135 C318.370833,58.5451622 323.700833,56.433973 329.965,56.433973 C333.075,56.433973 336.0475,57.0251351 338.868333,58.2003243 C341.695833,59.3825676 343.96,60.9518919 345.6525,62.9152703 L341.840833,66.6308919 C338.969167,63.2882432 335.013333,61.6204054 329.9575,61.6204054 C325.386667,61.6204054 321.4375,63.1826757 318.103333,66.3072162 C314.769167,69.4317568 313.105,73.4922162 313.105,78.4816216 C313.105,83.471027 314.769167,87.5314865 318.103333,90.6559459 C321.4375,93.7808108 325.386667,95.3424324 329.9575,95.3424324 C334.803333,95.3424324 338.846667,93.7735135 342.079167,90.6275676 C344.176667,88.580027 345.391667,85.7299459 345.7175,82.0776486 L329.9575,82.0776486 L329.9575,77.0038378 L350.9825,77.0038378 C351.2,78.1086486 351.294167,79.1712973 351.294167,80.1916216 Z" id="Path" stroke="#FFFFFF" stroke-width="0.173585"></path>
            <polygon id="Path" stroke="#FFFFFF" stroke-width="0.173585" points="384.6375 62.5567297 364.8775 62.5567297 364.8775 75.9415946 382.699167 75.9415946 382.699167 81.0154054 364.8775 81.0154054 364.8775 94.4002703 384.6375 94.4002703 384.6375 99.5935135 359.300833 99.5935135 359.300833 57.3702973 384.6375 57.3702973"></polygon>
            <polygon id="Path" stroke="#FFFFFF" stroke-width="0.173585" points="408.15 99.5935135 402.573333 99.5935135 402.573333 62.5567297 390.451667 62.5567297 390.451667 57.3702973 420.2725 57.3702973 420.2725 62.5567297 408.15 62.5567297"></polygon>
            <polygon id="Path" stroke="#FFFFFF" stroke-width="0.173585" points="441.846667 99.5935135 441.846667 57.3702973 447.423333 57.3702973 447.423333 99.5935135"></polygon>
            <polygon id="Path" stroke="#FFFFFF" stroke-width="0.173585" points="472.153333 99.5935135 466.576667 99.5935135 466.576667 62.5567297 454.455 62.5567297 454.455 57.3702973 484.275 57.3702973 484.275 62.5567297 472.153333 62.5567297"></polygon>
            <path d="M540.725,94.14 C536.4575,98.4040541 531.155833,100.536486 524.8125,100.536486 C518.47,100.536486 513.168333,98.4040541 508.908333,94.14 C504.640833,89.8751351 502.514167,84.6535946 502.514167,78.4819459 C502.514167,72.3102973 504.640833,67.0886757 508.908333,62.8241351 C513.168333,58.5595135 518.47,56.4202703 524.8125,56.4202703 C531.12,56.4202703 536.414167,58.5665676 540.695833,62.8522703 C544.9775,67.1378919 547.118333,72.3454865 547.118333,78.4819459 C547.118333,84.6535946 544.985,89.8751351 540.725,94.14 Z M513.023333,90.6 C516.235,93.767027 520.1625,95.3432432 524.8125,95.3432432 C529.463333,95.3432432 533.398333,93.7597297 536.6025,90.6 C539.813333,87.4332973 541.426667,83.3939189 541.426667,78.4819459 C541.426667,73.569973 539.813333,69.5305946 536.6025,66.3638108 C533.398333,63.1971081 529.463333,61.6207297 524.8125,61.6207297 C520.1625,61.6207297 516.235,63.2041622 513.023333,66.3638108 C509.819167,69.5305946 508.206667,73.569973 508.206667,78.4819459 C508.206667,83.3939189 509.819167,87.4332973 513.023333,90.6 Z" id="Shape" stroke="#FFFFFF" stroke-width="0.173585"></path>
            <polygon id="Path" stroke="#FFFFFF" stroke-width="0.173585" points="554.944167 99.5935135 554.944167 57.3702973 561.728333 57.3702973 582.819167 90.2132432 583.058333 90.2132432 582.819167 82.0780541 582.819167 57.3702973 588.395833 57.3702973 588.395833 99.5935135 582.573333 99.5935135 560.506667 65.1535135 560.2675 65.1535135 560.506667 73.2885405 560.506667 99.5935135"></polygon>
            <g id="Group" transform="translate(75.000000, 56.756757)" fill-rule="nonzero">
                <path d="M8.81391667,4.40148649 C6.70925,6.56894595 5.46516667,9.93275676 5.46516667,14.2888378 L5.46516667,169.924054 C5.46516667,174.287027 6.70925,177.643784 8.81391667,179.811081 L9.34916667,180.317838 L98.955,93.1337838 L98.955,92.1064865 L98.955,91.0791892 L9.34916667,3.88775676 L8.81391667,4.40148649 Z" id="Path" fill="url(#linearGradient-1)"></path>
                <path d="M128.819167,122.203784 L98.955,93.132973 L98.955,92.1056757 L98.955,91.0783784 L128.825833,62.0140541 L129.498333,62.387027 L164.888333,81.9510811 C174.9925,87.5383784 174.9925,96.6794595 164.888333,102.274054 L129.498333,121.838108 L128.819167,122.203784 Z" id="Path" fill="url(#linearGradient-2)"></path>
                <path d="M129.499167,121.832432 L98.9483333,92.1072973 L8.814,179.811892 C12.141,183.246486 17.645,183.668108 23.8433333,180.248108 L129.499167,121.832432 Z" id="Path" fill="url(#linearGradient-3)"></path>
                <path d="M129.499167,62.3813514 L23.8433333,3.97240541 C17.645,0.54527027 12.141,0.974513514 8.814,4.4087027 L98.955,92.1137838 L129.499167,62.3813514 Z" id="Path" fill="url(#linearGradient-4)"></path>
            </g>
            <path d="M44.4968333,15.1453378 L948.583333,15.1453378 L948.583333,1.07087838 L44.4968333,1.07087838 L44.4968333,15.1453378 Z M977.516667,43.2942162 L977.516667,254.411351 L991.983333,254.411351 L991.983333,43.2942162 L977.516667,43.2942162 Z M948.583333,282.56027 L44.4968333,282.56027 L44.4968333,296.634324 L948.583333,296.634324 L948.583333,282.56027 Z M15.5660417,254.411351 L15.5660417,43.2942162 L1.100625,43.2942162 L1.100625,254.411351 L15.5660417,254.411351 Z M44.4968333,282.56027 C28.51875,282.56027 15.5660417,269.957027 15.5660417,254.411351 L1.100625,254.411351 C1.100625,277.73027 20.52975,296.634324 44.4968333,296.634324 L44.4968333,282.56027 Z M977.516667,254.411351 C977.516667,269.957027 964.566667,282.56027 948.583333,282.56027 L948.583333,296.634324 C972.55,296.634324 991.983333,277.73027 991.983333,254.411351 L977.516667,254.411351 Z M948.583333,15.1453378 C964.566667,15.1453378 977.516667,27.7480541 977.516667,43.2942162 L991.983333,43.2942162 C991.983333,19.9748919 972.55,1.07087838 948.583333,1.07087838 L948.583333,15.1453378 Z M44.4968333,1.07087838 C20.52975,1.07087838 1.100625,19.9748919 1.100625,43.2942162 L15.5660417,43.2942162 C15.5660417,27.7480541 28.5188333,15.1453378 44.4968333,15.1453378 L44.4968333,1.07087838 Z" id="Shape" fill="#A6A6A6" fill-rule="nonzero"></path>
        </g>
    </g>
</svg>