<svg width="22" height="18" viewBox="0 0 22 18" fill="none" xmlns="http://www.w3.org/2000/svg">
  <path d="M19.1603 2.00004C18.1002 0.937251 16.6951 0.288583 15.1986 0.171213C13.7021 0.0538432 12.213 0.475509 11.0003 1.36004C9.72793 0.413681 8.14427 -0.0154454 6.5682 0.159081C4.99212 0.333607 3.54072 1.09882 2.50625 2.30063C1.47178 3.50244 0.931098 5.05156 0.993077 6.63606C1.05506 8.22055 1.71509 9.72271 2.84028 10.84L9.05028 17.06C9.57029 17.5718 10.2707 17.8587 11.0003 17.8587C11.7299 17.8587 12.4303 17.5718 12.9503 17.06L19.1603 10.84C20.3279 9.66531 20.9832 8.07632 20.9832 6.42004C20.9832 4.76377 20.3279 3.17478 19.1603 2.00004ZM17.7503 9.46004L11.5403 15.67C11.4696 15.7414 11.3855 15.798 11.2928 15.8367C11.2001 15.8753 11.1007 15.8953 11.0003 15.8953C10.8999 15.8953 10.8004 15.8753 10.7077 15.8367C10.615 15.798 10.5309 15.7414 10.4603 15.67L4.25028 9.43004C3.46603 8.62839 3.02689 7.55151 3.02689 6.43004C3.02689 5.30858 3.46603 4.2317 4.25028 3.43004C5.04943 2.64103 6.12725 2.19861 7.25028 2.19861C8.3733 2.19861 9.45112 2.64103 10.2503 3.43004C10.3432 3.52377 10.4538 3.59817 10.5757 3.64893C10.6976 3.6997 10.8283 3.72584 10.9603 3.72584C11.0923 3.72584 11.223 3.6997 11.3449 3.64893C11.4667 3.59817 11.5773 3.52377 11.6703 3.43004C12.4694 2.64103 13.5472 2.19861 14.6703 2.19861C15.7933 2.19861 16.8711 2.64103 17.6703 3.43004C18.4653 4.22119 18.9189 5.29223 18.9338 6.41373C18.9488 7.53522 18.5239 8.61798 17.7503 9.43004V9.46004Z" fill="#A1A0A9"/>
</svg>
