<svg width="22" height="18" viewBox="-1 0 22 18" fill="none" xmlns="http://www.w3.org/2000/svg">
  <path d="M13.5117 1.37891L10.5117 2.37891L8.01172 1.87891L4.51172 0.878906L1.51172 3.37891L1.01172 7.87891L5.01172 12.8789L10.5117 17.3789C11.1784 16.5456 12.6117 14.7789 13.0117 14.3789C13.4117 13.9789 16.5117 11.2122 18.0117 9.87891L19.0117 4.87891L16.0117 1.87891L13.5117 1.37891Z" fill="#D86F6F"/>
  <path d="M18.172 1.87907C17.112 0.816279 15.7068 0.167612 14.2103 0.0502417C12.7139 -0.0671284 11.2248 0.354538 10.012 1.23907C8.73965 0.292709 7.15599 -0.136417 5.57991 0.038109C4.00384 0.212635 2.55243 0.977849 1.51797 2.17966C0.483501 3.38146 -0.0571834 4.93059 0.00479541 6.51509C0.0667742 8.09958 0.726812 9.60174 1.85199 10.7191L8.06199 16.9391C8.58201 17.4509 9.28238 17.7377 10.012 17.7377C10.7416 17.7377 11.442 17.4509 11.962 16.9391L18.172 10.7191C19.3396 9.54434 19.9949 7.95535 19.9949 6.29907C19.9949 4.6428 19.3396 3.0538 18.172 1.87907ZM16.762 9.33907L10.552 15.5491C10.4813 15.6204 10.3972 15.6771 10.3045 15.7157C10.2118 15.7544 10.1124 15.7743 10.012 15.7743C9.91157 15.7743 9.81214 15.7544 9.71945 15.7157C9.62677 15.6771 9.54266 15.6204 9.47199 15.5491L3.26199 9.30907C2.47775 8.50742 2.0386 7.43054 2.0386 6.30907C2.0386 5.18761 2.47775 4.11073 3.26199 3.30907C4.06115 2.52006 5.13897 2.07764 6.26199 2.07764C7.38502 2.07764 8.46284 2.52006 9.26199 3.30907C9.35496 3.4028 9.46556 3.47719 9.58742 3.52796C9.70928 3.57873 9.83998 3.60487 9.97199 3.60487C10.104 3.60487 10.2347 3.57873 10.3566 3.52796C10.4784 3.47719 10.589 3.4028 10.682 3.30907C11.4811 2.52006 12.559 2.07764 13.682 2.07764C14.805 2.07764 15.8828 2.52006 16.682 3.30907C17.477 4.10022 17.9306 5.17126 17.9455 6.29276C17.9605 7.41425 17.5356 8.49701 16.762 9.30907V9.33907Z" fill="#D86F6F"/>
</svg>
