<?xml version="1.0" encoding="UTF-8"?>
<svg width="302px" height="302px" viewBox="0 0 302 302" version="1.1" xmlns="http://www.w3.org/2000/svg" xmlns:xlink="http://www.w3.org/1999/xlink">
    <title>Instagram</title>
    <g id="Page-1" stroke="none" stroke-width="1" fill="none" fill-rule="evenodd">
        <g id="Instagram" transform="translate(1.000000, 1.000000)">
            <path d="M0,150.004545 C0,120.339091 8.79481818,91.3381818 25.2751818,66.6710909 C41.7562727,42.0025455 65.1824545,22.7752727 92.5909091,11.4207273 C120,0.0661818182 150.16,-2.90558182 179.258182,2.88118182 C208.355455,8.66790909 235.083636,22.9533636 256.062727,43.9308182 C277.041818,64.9083636 291.328182,91.6354545 297.117273,120.732727 C302.905455,149.830909 299.935455,179.990909 288.582727,207.400909 C277.23,234.81 258.003636,258.237273 233.336364,274.72 C208.670909,291.200909 179.671818,300.000001 150.007273,300.000001 C110.233636,299.969091 72.0982727,284.156364 43.9735455,256.032727 C15.8494545,227.91 0.0341818182,189.777273 0,150.004545 Z" id="Path" stroke="#6D192B" stroke-width="2"></path>
            <path d="M148.431818,183.78 C165.981818,183.78 180.208182,169.553636 180.208182,152.004545 C180.208182,134.454545 165.981818,120.228182 148.431818,120.228182 C130.882727,120.228182 116.656364,134.454545 116.656364,152.004545 C116.656364,169.553636 130.882727,183.78 148.431818,183.78 Z" id="Path" fill="#6D192B" fill-rule="nonzero"></path>
            <path d="M188.000909,70.0595075 L108.852727,70.0595075 C103.430909,70.042 98.06,71.0966364 93.0472727,73.1629091 C88.0345455,75.2291818 83.4809091,78.2666364 79.6467273,82.1 C75.8126364,85.9327273 72.7744545,90.4863636 70.707,95.4981818 C68.6395455,100.51 67.5835455,105.880909 67.5997218,111.302727 L67.5997218,190.451818 C67.5835455,195.872727 68.6395455,201.244545 70.707,206.256364 C72.7744545,211.268182 75.8126364,215.820909 79.6467273,219.654545 C83.4809091,223.487273 88.0345455,226.524545 93.0472727,228.590909 C98.06,230.657273 103.430909,231.711818 108.852727,231.694754 L188.000909,231.694754 C193.422727,231.711818 198.794545,230.657273 203.806364,228.590909 C208.819091,226.524545 213.372727,223.487273 217.207273,219.654545 C221.040909,215.820909 224.079091,211.268182 226.146364,206.256364 C228.214545,201.244545 229.27,195.872727 229.253824,190.451818 L229.253824,111.302727 C229.27,105.880909 228.214545,100.51 226.146364,95.4981818 C224.079091,90.4863636 221.040909,85.9327273 217.207273,82.1 C213.372727,78.2666364 208.819091,75.2291818 203.806364,73.1629091 C198.794545,71.0966364 193.422727,70.042 188.000909,70.0595075 Z M148.421818,201.065455 C138.72,201.065455 129.235455,198.188182 121.168182,192.798182 C113.100909,187.408182 106.813636,179.747273 103.100909,170.782727 C99.3881818,161.819091 98.4163636,151.956364 100.309091,142.44 C102.201818,132.924545 106.874545,124.183636 113.734545,117.322727 C120.595455,110.462727 129.336364,105.79 138.851818,103.897273 C148.367273,102.004545 158.230909,102.976364 167.194545,106.689091 C176.159091,110.401818 183.82,116.689091 189.21,124.756364 C194.6,132.823636 197.477273,142.308182 197.477273,152.01 C197.46,165.015455 192.285455,177.482727 183.09,186.678182 C173.894545,195.873636 161.427273,201.048182 148.421818,201.065455 Z M200.814545,111.321818 C197.710909,111.321818 194.733636,110.088182 192.539091,107.893636 C190.343636,105.698182 189.11,102.721818 189.11,99.6172727 C189.11,96.5127273 190.343636,93.5363636 192.539091,91.3409091 C194.733636,89.1463636 197.710909,87.9127273 200.814545,87.9127273 C203.913636,87.93 206.880909,89.1690909 209.071818,91.3609091 C211.262727,93.5518182 212.501818,96.5181818 212.519091,99.6172727 C212.549091,101.161818 212.267273,102.697273 211.689091,104.13 C211.111818,105.562727 210.25,106.864545 209.157273,107.957273 C208.064545,109.049091 206.761818,109.909091 205.328182,110.486364 C203.894545,111.062727 202.36,111.343636 200.814545,111.312727 L200.814545,111.321818 Z" id="Shape" fill="#6D192B" fill-rule="nonzero"></path>
        </g>
    </g>
</svg>