<?xml version="1.0" encoding="UTF-8"?>
<svg width="200px" height="200px" viewBox="0 0 200 200" version="1.1" xmlns="http://www.w3.org/2000/svg" xmlns:xlink="http://www.w3.org/1999/xlink">
    <title>language-icon</title>
    <g id="Page-1" stroke="none" stroke-width="1" fill="none" fill-rule="evenodd">
        <g id="language-icon" fill="#FFFFFF" fill-rule="nonzero">
            <path d="M99.9,0 C44.7,0 0,44.8 0,100 C0,155.2 44.7,200 99.9,200 C155.2,200 200,155.2 200,100 C200,44.8 155.2,0 99.9,0 Z M169.2,60 L139.7,60 C136.5,47.5 131.9,35.5 125.9,24.4 C144.3,30.7 159.6,43.5 169.2,60 Z M100,20.4 C108.3,32.4 114.8,45.7 119.1,60 L80.9,60 C85.2,45.7 91.7,32.4 100,20.4 Z M22.6,120 C21,113.6 20,106.9 20,100 C20,93.1 21,86.4 22.6,80 L56.4,80 C55.6,86.6 55,93.2 55,100 C55,106.8 55.6,113.4 56.4,120 L22.6,120 Z M30.8,140 L60.3,140 C63.5,152.5 68.1,164.5 74.1,175.6 C55.7,169.3 40.4,156.6 30.8,140 Z M60.3,60 L30.8,60 C40.4,43.4 55.7,30.7 74.1,24.4 C68.1,35.5 63.5,47.5 60.3,60 Z M100,179.6 C91.7,167.6 85.2,154.3 80.9,140 L119.1,140 C114.8,154.3 108.3,167.6 100,179.6 Z M123.4,120 L76.6,120 C75.7,113.4 75,106.8 75,100 C75,93.2 75.7,86.5 76.6,80 L123.4,80 C124.3,86.5 125,93.2 125,100 C125,106.8 124.3,113.4 123.4,120 Z M125.9,175.6 C131.9,164.5 136.5,152.5 139.7,140 L169.2,140 C159.6,156.5 144.3,169.3 125.9,175.6 Z M143.6,120 C144.4,113.4 145,106.8 145,100 C145,93.2 144.4,86.6 143.6,80 L177.4,80 C179,86.4 180,93.1 180,100 C180,106.9 179,113.6 177.4,120 L143.6,120 Z" id="Shape"></path>
        </g>
    </g>
</svg>