<?xml version="1.0" encoding="UTF-8"?>
<svg width="302px" height="302px" viewBox="0 0 302 302" version="1.1" xmlns="http://www.w3.org/2000/svg" xmlns:xlink="http://www.w3.org/1999/xlink">
    <title>LinkedIn</title>
    <g id="Page-1" stroke="none" stroke-width="1" fill="none" fill-rule="evenodd">
        <g id="LinkedIn" transform="translate(1.000000, 1.000000)">
            <path d="M149.991818,300 C120.327273,300 91.3290909,291.200909 66.6644545,274.720909 C41.9970909,258.238182 22.7712727,234.811818 11.4181818,207.402727 C0.065,179.993636 -2.90550909,149.833636 2.88227273,120.736364 C8.67,91.64 22.9561818,64.9117273 43.934,43.9339091 C64.9118182,22.9560909 91.6390909,8.66990909 120.736364,2.88218182 C149.833636,-2.90560909 179.993636,0.0653636364 207.402727,11.4184545 C234.810909,22.7716364 258.238182,41.9974545 274.72,66.6647273 C291.200909,91.33 300.000002,120.327273 300.000002,149.991818 C299.963636,189.765455 284.148182,227.9 256.023636,256.023636 C227.9,284.148182 189.765455,299.964545 149.991818,300 Z" id="Path" stroke="#6D192B" stroke-width="2"></path>
            <path d="M240.043636,162.253636 L240.043636,221.908182 C240.067273,222.298182 240.007273,222.689091 239.869091,223.054545 C239.73,223.420909 239.515455,223.752727 239.239091,224.029091 C238.962727,224.305455 238.630909,224.52 238.265455,224.658182 C237.9,224.797273 237.509091,224.856364 237.119091,224.832727 L206.12,224.832727 C205.73,224.856364 205.339091,224.797273 204.973636,224.658182 C204.607273,224.52 204.275455,224.305455 203.999091,224.029091 C203.722727,223.752727 203.508182,223.420909 203.37,223.054545 C203.230909,222.689091 203.171818,222.298182 203.195455,221.908182 L203.195455,166.35 C203.195455,151.727273 197.936364,141.790909 185.095455,141.790909 C182.303636,141.864545 179.556364,142.507273 177.021818,143.68 C174.488182,144.853636 172.22,146.532727 170.358182,148.613636 C168.496364,150.695455 167.08,153.134545 166.195455,155.783636 C165.31,158.432727 164.976364,161.233636 165.213636,164.016364 L165.213636,221.917273 C165.237273,222.308182 165.177273,222.699091 165.039091,223.064545 C164.9,223.43 164.686364,223.761818 164.409091,224.038182 C164.132727,224.314545 163.800909,224.529091 163.435455,224.668182 C163.07,224.806364 162.679091,224.866364 162.289091,224.842727 L131.29,224.842727 C130.9,224.866364 130.509091,224.806364 130.143636,224.668182 C129.778182,224.529091 129.446364,224.314545 129.17,224.038182 C128.892727,223.761818 128.678182,223.43 128.54,223.064545 C128.400909,222.699091 128.341818,222.308182 128.365455,221.917273 C128.365455,207.294545 128.946364,135.951818 128.365455,119.032727 C128.341818,118.642727 128.400909,118.251818 128.54,117.886364 C128.678182,117.520909 128.892727,117.189091 129.17,116.911818 C129.446364,116.635455 129.778182,116.420909 130.143636,116.282727 C130.509091,116.143636 130.9,116.084545 131.29,116.108182 L161.698182,116.108182 C162.088182,116.084545 162.479091,116.143636 162.844545,116.282727 C163.21,116.420909 163.542727,116.635455 163.819091,116.911818 C164.095455,117.189091 164.31,117.520909 164.448182,117.886364 C164.587273,118.251818 164.646364,118.642727 164.622727,119.032727 L164.622727,132.483636 L164.622727,131.827273 C167.865455,126.068182 172.646364,121.325455 178.43,118.129091 C184.214545,114.932727 190.773636,113.408182 197.374545,113.726364 C222.524545,113.145455 240.062727,128.968182 240.062727,162.310909 L240.043636,162.253636 Z M76.8753636,224.232727 L107.874545,224.232727 C108.264545,224.256364 108.655455,224.196364 109.020909,224.058182 C109.386364,223.919091 109.718182,223.704545 109.994545,223.428182 C110.270909,223.151818 110.485455,222.82 110.624545,222.454545 C110.762727,222.089091 110.822727,221.698182 110.799091,221.308182 L110.799091,118.422727 C110.822727,118.032727 110.762727,117.641818 110.624545,117.276364 C110.485455,116.910909 110.270909,116.579091 109.994545,116.302727 C109.718182,116.025455 109.386364,115.810909 109.020909,115.672727 C108.655455,115.533636 108.264545,115.474545 107.874545,115.498182 L76.8753636,115.498182 C76.4850909,115.474545 76.0942727,115.533636 75.7287273,115.672727 C75.3631818,115.810909 75.0312727,116.025455 74.7548182,116.302727 C74.4783636,116.579091 74.2638182,116.910909 74.1252727,117.276364 C73.9866364,117.641818 73.9271818,118.032727 73.9508182,118.422727 L73.9508182,221.308182 C73.9271818,221.698182 73.9866364,222.089091 74.1252727,222.454545 C74.2638182,222.82 74.4783636,223.151818 74.7548182,223.428182 C75.0312727,223.704545 75.3631818,223.919091 75.7287273,224.058182 C76.0942727,224.196364 76.4850909,224.256364 76.8753636,224.232727 Z" id="Shape" fill="#6D192B" fill-rule="nonzero"></path>
            <path d="M90.9172727,102.024545 C101.576364,102.024545 110.217273,93.3827273 110.217273,82.7236364 C110.217273,72.0643636 101.576364,63.4232727 90.9172727,63.4232727 C80.2575455,63.4232727 71.6164545,72.0643636 71.6164545,82.7236364 C71.6164545,93.3827273 80.2575455,102.024545 90.9172727,102.024545 Z" id="Path" fill="#6D192B" fill-rule="nonzero"></path>
        </g>
    </g>
</svg>