<?xml version="1.0" encoding="UTF-8"?>
<svg width="400px" height="200px" viewBox="0 0 400 200" version="1.1" xmlns="http://www.w3.org/2000/svg" xmlns:xlink="http://www.w3.org/1999/xlink">
    <title>mada</title>
    <g id="Page-1" stroke="none" stroke-width="1" fill="none" fill-rule="evenodd">
        <g id="mada" fill-rule="nonzero">
            <polygon id="Path" fill="#84B740" points="169.139048 115.327619 0 115.327619 0 199.846667 169.139048 199.846667"></polygon>
            <polygon id="Path" fill="#259BD6" points="169.139048 0 0 0 0 84.5946667 169.139048 84.5946667"></polygon>
            <path d="M338.278095,182.669524 L337.525079,182.895238 C334.913651,183.648571 333.959365,183.950476 332.050794,183.950476 C327.631746,183.950476 322.408889,180.56 322.408889,164.590476 C322.408889,156.38 323.313016,145.457143 331.548571,145.457143 L331.599365,145.457143 C333.005079,145.607619 334.612063,145.833333 337.625397,147.189524 L338.278095,147.490476 L338.278095,182.669524 Z M339.634286,103.046667 L338.278095,103.422857 L338.278095,132.952381 L337.073016,132.424762 L336.72127,132.274286 C335.365714,131.671429 332.252063,130.31619 329.23873,130.31619 C312.766984,130.31619 309.301587,148.997143 309.301587,164.665714 C309.301587,186.134286 317.336508,198.488571 331.347937,198.488571 C337.273651,198.488571 341.643175,197.584762 346.062222,195.4 C350.130159,193.441905 351.586667,190.654286 351.586667,184.70381 L351.586667,99.9580952 C347.669206,101.012381 343.60127,102.067619 339.634286,103.046667 Z" id="Shape" fill="#27292D"></path>
            <path d="M387.241905,183.200952 L386.539048,183.501905 L384.027937,184.481905 C381.667937,185.385714 379.55873,185.912381 377.951746,185.912381 C374.084444,185.912381 371.774603,183.050476 371.774603,178.154286 C371.774603,174.990476 372.728889,169.641905 379.056508,169.641905 L387.241905,169.641905 L387.241905,183.200952 Z M381.466667,129.942857 C376.394921,129.942857 371.172063,131.299048 364.693333,134.312381 L360.474921,136.195238 L361.88127,150.508571 L365.999365,148.474286 C370.318095,146.364762 375.691429,145.009524 379.709206,145.009524 C381.516825,145.009524 387.04127,145.009524 387.04127,153.973333 L387.04127,157.890476 L379.35746,157.890476 C365.346667,157.890476 358.867937,164.594286 358.867937,178.982857 C358.867937,191.260952 364.844444,198.64381 374.888254,198.64381 C378.001905,198.64381 382.320635,197.74 386.036825,196.38381 L386.23746,196.308571 L386.43873,196.38381 L387.693968,196.684762 C391.611429,197.74 395.67873,198.794286 399.646349,199.92381 L399.646349,152.919048 C399.646349,137.701905 393.519365,129.942857 381.466667,129.942857 Z" id="Shape" fill="#27292D"></path>
            <path d="M289.666032,183.200952 L288.96254,183.501905 L286.451429,184.481905 C284.091429,185.385714 282.032381,185.912381 280.375238,185.912381 C276.508571,185.912381 274.198095,183.050476 274.198095,178.154286 C274.198095,174.990476 275.152381,169.641905 281.429841,169.641905 L289.615238,169.641905 L289.615238,183.200952 L289.666032,183.200952 Z M283.940952,129.942857 C278.818413,129.942857 273.645714,131.299048 267.167619,134.312381 L262.949206,136.195238 L264.354921,150.508571 L268.473016,148.474286 C272.791746,146.364762 278.165714,145.009524 282.182857,145.009524 C283.991111,145.009524 289.514921,145.009524 289.514921,153.973333 L289.514921,157.890476 L281.831746,157.890476 C267.820317,157.890476 261.292063,164.594286 261.292063,178.982857 C261.292063,191.260952 267.267937,198.64381 277.361905,198.64381 C280.475556,198.64381 284.794286,197.74 288.510476,196.38381 L288.711746,196.308571 L288.912381,196.38381 L290.11746,196.684762 C294.085079,197.74 298.102857,198.794286 302.070147,199.999048 L302.070147,152.994286 C302.12,137.626667 295.993651,129.942857 283.940952,129.942857 Z" id="Shape" fill="#27292D"></path>
            <path d="M236.784762,130.093333 C230.406984,130.093333 225.133968,133.257143 223.175238,134.612381 L222.673016,134.989524 L222.220952,134.461905 C219.509206,131.52381 215.541587,130.018095 210.017778,130.018095 C205.146667,130.018095 200.576508,131.072381 195.605079,133.257143 C191.335873,135.215238 189.67873,138.30381 189.67873,144.10381 L189.67873,197.814286 L203.03746,197.814286 L203.03746,148.172381 L203.690159,147.870476 C206.401905,146.514286 208.008889,146.288571 209.565714,146.288571 C213.432381,146.288571 215.391111,149.377143 215.391111,155.40381 L215.391111,197.889524 L228.548571,197.889524 L228.548571,154.575238 C228.548571,152.013333 228.19746,150.507619 228.146667,150.205714 L227.695238,148.925714 L228.59873,148.322857 C230.607619,146.966667 232.817143,146.288571 235.127619,146.288571 C237.789206,146.288571 240.953016,147.870476 240.953016,155.40381 L240.953016,197.889524 L254.060317,197.889524 L254.060317,153.444762 C254.060317,137.700952 248.435556,130.093333 236.784762,130.093333 Z" id="Path" fill="#27292D"></path>
            <path d="M377.399365,55.1409524 C375.440635,55.1409524 372.176508,54.839619 369.615238,54.086381 L368.862222,53.860381 L368.862222,24.8586667 C368.862222,22.4480952 368.560635,20.9415238 368.510476,20.7155238 L368.108571,19.5102857 L368.96254,18.9829524 C369.163175,18.8322857 369.364444,18.7569524 369.615238,18.6062857 L369.765714,18.455619 C370.067302,18.3049524 370.368254,18.154381 370.669841,18.0037143 C370.820317,17.928381 370.92127,17.8530476 371.021587,17.8530476 C373.984127,16.6477143 376.696508,16.798381 377.901587,16.6477143 L377.951746,16.6477143 C386.137778,16.6477143 387.091429,27.5704762 387.091429,35.7813333 C387.04127,51.7511429 381.768254,55.1409524 377.399365,55.1409524 Z M377.349206,0 C377.248889,0 377.097778,0 376.99746,0 C369.313651,0 361.429206,3.16384762 358.617143,9.3408381 C357.110476,12.354 356.257143,16.1204762 356.206984,20.5648571 L356.206984,50.4705714 C356.206984,53.0317143 355.855238,54.0110476 355.805079,54.2370476 L355.353016,55.517619 L331.097143,55.517619 L331.097143,34.7267619 L331.046984,34.7267619 C330.745397,12.806 322.107937,0.753291429 309.603175,0.753291429 L308.146667,0.753291429 L297.4,0.753291429 C296.897778,6.10166667 296.495873,9.86809524 295.993651,15.2164762 L308.146667,15.2164762 C314.524444,15.2164762 317.889524,23.3520952 317.889524,35.8566667 L317.889524,56.7981905 L317.035556,56.1202857 C316.885079,56.0449524 315.830476,55.517619 314.172698,55.517619 L293.180952,55.517619 C292.779683,59.5100952 292.27746,64.7078095 291.725079,69.9055238 L356.257143,69.9055238 C358.466667,69.2275238 361.027937,68.6249524 363.23746,68.097619 C366.501587,70.5080952 372.578413,71.7887619 376.746667,71.7887619 C390.75746,71.7887619 399.847619,57.7021905 399.847619,36.0073333 C399.79746,14.5385714 391.008889,0.451975238 377.349206,0 Z" id="Shape" fill="#27292D"></path>
            <path d="M264.204444,78.7180952 L264.806984,78.7180952 C278.818413,78.7180952 285.346667,71.7878095 285.346667,54.6880952 C285.346667,42.4094286 279.370794,32.6166667 269.326984,32.6166667 L256.420317,32.6166667 C252.553651,32.6166667 250.24381,29.3021905 250.24381,23.7278095 C250.24381,19.9613333 251.19746,15.2909524 257.525079,15.2909524 L285.748571,15.2909524 C286.351111,9.79190476 286.652698,6.32678095 287.205079,0.827753333 L257.876825,0.827753333 C244.217143,0.827753333 237.337143,9.41527619 237.337143,23.7278095 C237.337143,37.8897143 243.313016,45.272 253.356825,45.272 L266.263492,45.272 C270.130159,45.272 272.440635,49.8670476 272.440635,54.6880952 C272.440635,57.8519048 271.486349,64.405619 265.208889,64.405619 L263.049524,64.405619 L221.71873,64.2549524 L214.186032,64.2549524 C207.808254,64.2549524 203.338413,58.8312381 203.338413,46.2512381 L203.338413,37.588381 C203.338413,24.4811429 206.80381,16.3455238 214.186032,16.3455238 L226.439365,16.3455238 C226.991746,10.7712381 227.343492,7.23073333 227.845714,1.95769524 L212.579048,1.95769524 L211.12254,1.95769524 C198.617778,1.95769524 189.980317,14.5377143 189.67873,36.4584762 L189.67873,37.2870476 L189.67873,46.2512381 C189.980317,68.1720952 198.617778,78.6428571 211.12254,78.6428571 L212.579048,78.6428571 L223.325714,78.6428571 L245.72381,78.7180952 L259.081905,78.7180952 L264.204444,78.7180952 Z" id="Path" fill="#27292D"></path>
        </g>
    </g>
</svg>