<?xml version="1.0" encoding="UTF-8"?>
<svg width="290px" height="191px" viewBox="0 0 290 191" version="1.1" xmlns="http://www.w3.org/2000/svg" xmlns:xlink="http://www.w3.org/1999/xlink">
    <title>mastercard</title>
    <g id="Page-1" stroke="none" stroke-width="1" fill="none" fill-rule="evenodd">
        <g id="mastercard" fill-rule="nonzero">
            <path d="M49.7614286,171.362727 C48.9153214,170.654545 47.9111786,170.096364 46.8079286,169.720909 C45.6126429,169.320909 44.3378571,169.119091 43.0528929,169.128182 C42.3048214,169.132727 41.55825,169.188182 40.8205714,169.293636 C40.0331786,169.396364 39.264,169.582727 38.5309286,169.847273 C37.7727857,170.128182 37.0670357,170.500909 36.4359643,170.954545 C35.7296786,171.451818 35.1362143,172.054545 34.6843929,172.731818 C33.9010714,171.624545 32.7823929,170.715455 31.4446071,170.1 C30.0080357,169.44 28.3955357,169.105455 26.7623571,169.128182 C26.1485357,169.131818 25.536,169.177273 24.9306429,169.264545 C24.2862857,169.364545 23.6567143,169.524545 23.0531786,169.74 C22.4138571,169.971818 21.8164286,170.279091 21.2787857,170.653636 C20.6781429,171.068182 20.1567857,171.56 19.73325,172.11 L19.73325,169.652727 L14.7533571,169.652727 L14.7533571,189.75 L19.7791071,189.75 L19.7791071,178.609091 C19.7644286,177.831818 19.9277143,177.06 20.2598571,176.335455 C20.5517143,175.711818 20.9876786,175.143636 21.5420357,174.665455 C22.0801071,174.232727 22.7199643,173.901818 23.4196071,173.693636 C24.1505357,173.457273 24.927,173.339091 25.7091429,173.343636 C26.4433929,173.309091 27.1776429,173.412727 27.85875,173.647273 C28.5399643,173.882727 29.1508929,174.243636 29.6472857,174.703636 C30.6534643,175.811818 31.1499643,177.193636 31.0438929,178.589091 L31.0438929,189.769091 L36.0696429,189.769091 L36.0696429,178.609091 C36.0549643,177.831818 36.2183571,177.06 36.5503929,176.335455 C36.84225,175.711818 37.2782143,175.143636 37.8325714,174.665455 C38.37075,174.232727 39.0105,173.901818 39.7101429,173.693636 C40.4415,173.459091 41.2176429,173.34 41.9996786,173.343636 C42.7321071,173.309091 43.4644286,173.413636 44.1436071,173.649091 C44.8226786,173.883636 45.4316786,174.244545 45.9263571,174.703636 C46.9366071,175.810909 47.4371786,177.191818 47.3345357,178.589091 L47.3345357,189.769091 L52.3487143,189.769091 L52.3487143,177.141818 C52.3721786,176.023636 52.1388214,174.911818 51.6618214,173.868182 C51.2326071,172.933636 50.5864286,172.081818 49.7614286,171.362727 Z" id="Path" fill="#1D1D1B"></path>
            <path d="M76.2519643,172.093636 C75.4220357,171.210909 74.3750357,170.490909 73.1839286,169.986364 C71.8266429,169.415455 70.3251429,169.135455 68.8107857,169.17 C67.2447857,169.156364 65.6919643,169.413636 64.2471429,169.926364 C62.8023214,170.439091 61.4959286,171.196364 60.4078929,172.151818 C59.3164286,173.113636 58.4603571,174.25 57.8892857,175.493636 C56.6678571,178.231818 56.6678571,181.254545 57.8892857,183.992727 C58.4576786,185.238182 59.3139643,186.374545 60.4078929,187.334545 C61.5025714,188.285455 62.8144286,189.037273 64.2631071,189.542727 C65.7118929,190.049091 67.2671786,190.299091 68.8336071,190.277273 C70.3456071,190.314545 71.8457143,190.040909 73.2068571,189.480909 C74.4012857,188.967273 75.4486071,188.238182 76.2748929,187.344545 L76.2748929,189.752727 L81.4265357,189.752727 L81.4265357,169.655455 L76.2519643,169.655455 L76.2519643,172.093636 Z M76.0573929,182.263636 C75.7340357,183.02 75.2358214,183.713636 74.592,184.303636 C73.9485,184.884545 73.1685,185.344545 72.3023571,185.653636 C71.3817857,185.992727 70.3866429,186.161818 69.3831429,186.149091 C68.3513571,186.163636 67.3281429,185.987273 66.3837857,185.634545 C65.5137857,185.313636 64.7334643,184.84 64.0941429,184.245455 C63.4744286,183.649091 62.9963571,182.956364 62.6860714,182.205455 C62.3533929,181.403636 62.1867857,180.559091 62.19375,179.709091 C62.1849643,178.859091 62.3515714,178.014545 62.6860714,177.212727 C62.99625,176.459091 63.4743214,175.763636 64.0941429,175.163636 C64.7373214,174.574545 65.5167857,174.105455 66.3837857,173.784545 C67.3264286,173.426364 68.3508214,173.250909 69.3831429,173.269091 C70.3866429,173.257273 71.3817857,173.425455 72.3023571,173.764545 C73.1708571,174.07 73.9517143,174.530909 74.592,175.114545 C75.2333571,175.702727 75.7313571,176.392727 76.0573929,177.144545 C76.4080714,177.967273 76.5825,178.835455 76.5725357,179.709091 C76.5833571,180.58 76.4088214,181.445455 76.0573929,182.263636 Z" id="Shape" fill="#1D1D1B"></path>
            <path d="M105.169607,179.703636 C103.38225,178.623636 101.296071,177.953636 99.1136786,177.760909 L96.66375,177.45 C96.1256786,177.371818 95.6105357,177.294545 95.1297857,177.207273 C94.7014286,177.127273 94.28625,177.002727 93.8933571,176.838182 C93.5682857,176.697273 93.2860714,176.494545 93.0691071,176.245455 C92.8553571,175.990909 92.7467143,175.683636 92.76,175.370909 C92.75025,175.021818 92.8513929,174.677273 93.0528214,174.373636 C93.25425,174.069091 93.5485714,173.816364 93.9048214,173.641818 C94.9029643,173.150909 96.0501429,172.920909 97.2018214,172.981818 C97.9352143,172.978182 98.6673214,173.032727 99.3883929,173.146364 C100.077,173.250909 100.757571,173.39 101.426143,173.564545 C102.023893,173.715455 102.609,173.900909 103.177714,174.118182 C103.635964,174.291818 104.083071,174.486364 104.517107,174.700909 L106.738071,171.281818 C105.400071,170.572727 103.940143,170.045455 102.410679,169.718182 C100.690821,169.341818 98.9207143,169.155455 97.1446071,169.164545 C95.7679286,169.147273 94.3954286,169.297273 93.0691071,169.610909 C91.9580357,169.872727 90.9138214,170.308182 89.9896071,170.892727 C89.1597857,171.424545 88.4923929,172.117273 88.0433571,172.913636 C87.5738571,173.753636 87.3387857,174.674545 87.3565714,175.604545 C87.3356786,176.339091 87.50775,177.069091 87.8601429,177.741818 C88.2125357,178.413636 88.7365714,179.010909 89.3943214,179.49 C91.1316429,180.613636 93.2147143,181.288182 95.3930357,181.431818 L97.8657857,181.704545 C98.9586429,181.786364 100.01925,182.060909 100.979679,182.51 C101.277,182.652727 101.525357,182.858182 101.7,183.107273 C101.87475,183.355455 101.969786,183.639091 101.975679,183.928182 C101.970536,184.306364 101.840036,184.675455 101.599071,184.993636 C101.358107,185.310909 101.016536,185.564545 100.613357,185.725455 C99.3558214,186.227273 97.9706786,186.453636 96.5836071,186.386364 C95.70975,186.390909 94.8368571,186.335455 93.9735,186.220909 C93.2576786,186.118182 92.5531071,185.965455 91.8670714,185.764545 C91.2761786,185.591818 90.7052143,185.374545 90.16125,185.113636 C89.6768571,184.876364 89.2104643,184.613636 88.7646429,184.327273 L86.3720357,187.62 C87.2006786,188.152727 88.1043214,188.597273 89.0622857,188.940909 C89.9583214,189.268182 90.885,189.530909 91.8326786,189.727273 C92.6777143,189.912727 93.5391429,190.04 94.4085,190.106364 C95.2098214,190.174545 95.9196429,190.203636 96.5378571,190.203636 C98.0832857,190.220909 99.6242143,190.057273 101.117036,189.718182 C102.350893,189.452727 103.515643,188.995455 104.5515,188.367273 C105.410357,187.835455 106.115143,187.144545 106.612071,186.347273 C107.106536,185.527273 107.358214,184.616364 107.344286,183.695455 C107.385,182.930909 107.209286,182.169091 106.830643,181.474545 C106.452107,180.78 105.882536,180.171818 105.169607,179.703636 Z" id="Path" fill="#1D1D1B"></path>
            <path d="M153.549643,172.061818 C152.567143,171.132727 151.360714,170.393636 150.011786,169.895455 C148.565357,169.371818 147.005357,169.11 145.4325,169.128182 C143.793214,169.113636 142.166786,169.374545 140.6475,169.895455 C139.241786,170.388182 137.974286,171.126364 136.926429,172.061818 C135.860357,173.025455 135.034286,174.161818 134.499643,175.402727 C133.911429,176.781818 133.621071,178.24 133.641429,179.706364 C133.613571,181.187273 133.9125,182.66 134.522143,184.048182 C135.077143,185.291818 135.926786,186.425455 137.018571,187.38 C138.107143,188.311818 139.413214,189.039091 140.853214,189.516364 C142.414286,190.033636 144.077143,190.290909 145.752857,190.274545 C147.489643,190.28 149.217857,190.067273 150.881786,189.642727 C152.571429,189.19 154.131429,188.442727 155.461071,187.448182 L152.897143,184.32 C151.913571,184.99 150.806786,185.518182 149.622857,185.883636 C148.479643,186.243636 147.27,186.431818 146.050714,186.437273 C145.228929,186.44 144.411429,186.341818 143.623929,186.146364 C142.863214,185.956364 142.152857,185.647273 141.528214,185.232727 C140.877857,184.796364 140.330357,184.259091 139.914643,183.65 C139.44,182.928182 139.129286,182.137273 138.998571,181.318182 L156.5025,181.318182 C156.5025,181.066364 156.560357,180.803636 156.582857,180.521818 C156.605357,180.24 156.582857,179.959091 156.582857,179.686364 C156.606429,178.224545 156.323571,176.770909 155.747143,175.393636 C155.271429,174.173636 154.525714,173.042727 153.549643,172.061818 Z M139.090714,177.987273 C139.213929,177.292727 139.448571,176.616364 139.788214,175.976364 C140.101071,175.396364 140.531786,174.866364 141.058929,174.412727 C141.583929,173.963636 142.217143,173.615455 142.913571,173.392727 C143.7,173.140909 144.535714,173.019091 145.375714,173.032727 C146.116071,173.009091 146.854286,173.112727 147.546429,173.336364 C148.238571,173.56 148.870714,173.899091 149.405357,174.334545 C150.519643,175.334545 151.216071,176.618182 151.385357,177.987273 L139.090714,177.987273 Z" id="Shape" fill="#1D1D1B"></path>
            <path d="M222.237857,172.096364 C221.356071,171.146364 220.2225,170.387273 218.929286,169.880909 C217.636071,169.374545 216.219643,169.134545 214.796786,169.181818 C213.230357,169.168182 211.677857,169.425455 210.2325,169.938182 C208.788214,170.450909 207.481071,171.208182 206.393571,172.163636 C205.298571,173.125455 204.438214,174.260909 203.863929,175.505455 C202.6425,178.243636 202.6425,181.266364 203.863929,184.004545 C204.436071,185.250909 205.296429,186.386364 206.393571,187.346364 C207.458571,188.284545 208.735714,189.030909 210.148929,189.541818 C211.616786,190.072727 213.199286,190.340909 214.796786,190.328182 C216.308571,190.363636 217.8075,190.090909 219.169286,189.531818 C220.362857,189.016364 221.409643,188.287273 222.237857,187.394545 L222.237857,189.803636 L227.401071,189.803636 L227.401071,169.658182 L222.237857,169.658182 L222.237857,172.096364 Z M222.031071,182.266364 C221.712857,183.021818 221.217857,183.715455 220.577143,184.305455 C219.933214,184.886364 219.153214,185.345455 218.2875,185.656364 C217.371429,185.994545 216.380357,186.162727 215.380714,186.151818 C214.344643,186.165455 213.318214,185.99 212.368929,185.636364 C211.496786,185.319091 210.715714,184.845455 210.079286,184.247273 C209.46,183.650909 208.982143,182.958182 208.671429,182.208182 C208.339286,181.406364 208.172143,180.561818 208.179643,179.711818 C208.171071,178.860909 208.337143,178.016364 208.671429,177.215455 C208.982143,176.461818 209.46,175.765455 210.079286,175.165455 C210.72,174.573636 211.5,174.103636 212.368929,173.786364 C213.306429,173.452727 214.3125,173.281818 215.328214,173.281818 C216.345,173.281818 217.351071,173.452727 218.2875,173.786364 C219.155357,174.092727 219.936429,174.553636 220.577143,175.136364 C221.215714,175.725455 221.709643,176.415455 222.031071,177.166364 C222.391071,177.986364 222.57,178.855455 222.558214,179.730909 C222.553929,180.599091 222.36,181.458182 221.986071,182.266364 L222.031071,182.266364 Z" id="Shape" fill="#1D1D1B"></path>
            <path d="M127.322143,185.745455 C126.535714,186.001818 125.702143,186.137273 124.861071,186.143636 C124.360714,186.15 123.863571,186.077273 123.395357,185.93 C122.958214,185.788182 122.567143,185.561818 122.25,185.27 C121.89,184.932727 121.616786,184.536364 121.448571,184.103636 C121.238571,183.549091 121.137857,182.968182 121.151786,182.384545 L121.151786,173.642727 L129.451071,173.642727 L129.451071,169.65 L121.151786,169.65 L121.151786,163.57 L115.965,163.57 L115.965,169.65 L111.191786,169.65 L111.191786,173.642727 L115.92,173.642727 L115.92,182.471818 C115.92,185.143636 116.663571,187.105455 118.209643,188.378182 C119.048571,189.035455 120.036429,189.541818 121.112143,189.867273 C122.188929,190.192727 123.331071,190.33 124.471071,190.271818 C125.853214,190.289091 127.226786,190.091818 128.524286,189.689091 C129.281786,189.441818 130.016786,189.146364 130.721786,188.805455 L128.959286,185.133636 C128.427857,185.364545 127.881429,185.569091 127.322143,185.745455 Z" id="Path" fill="#1D1D1B"></path>
            <path d="M173.972143,169.128182 C172.617857,169.11 171.273214,169.341818 170.034643,169.808182 C168.826071,170.417273 167.814643,171.271818 167.0925,172.294545 L167.0925,169.652727 L162.410357,169.652727 L162.410357,189.75 L167.149286,189.75 L167.149286,178.725455 C167.133214,177.949091 167.276786,177.176364 167.573571,176.442727 C167.814643,175.815455 168.204643,175.237273 168.717857,174.742727 C169.205357,174.280909 169.812857,173.921818 170.492143,173.693636 C171.219643,173.446364 171.998571,173.324545 172.781786,173.334545 C173.463214,173.340909 174.1425,173.405455 174.807857,173.528182 C175.1625,173.582727 175.510714,173.660909 175.850357,173.761818 L177.372857,169.565455 C176.959286,169.455455 176.538214,169.364545 176.113929,169.293636 C175.405714,169.19 174.69,169.134545 173.972143,169.128182 Z" id="Path" fill="#1D1D1B"></path>
            <path d="M245.7975,169.128182 C244.442143,169.109091 243.0975,169.341818 241.858929,169.808182 C240.648214,170.414545 239.636786,171.27 238.916786,172.295455 L238.916786,169.652727 L234.222857,169.652727 L234.222857,189.75 L238.974643,189.75 L238.974643,178.725455 C238.959643,177.95 239.098929,177.178182 239.386071,176.442727 C239.633571,175.818182 240.0225,175.24 240.531429,174.742727 C241.017857,174.280909 241.626429,173.921818 242.305714,173.693636 C243.033214,173.446364 243.811071,173.324545 244.595357,173.334545 C245.276786,173.340909 245.956071,173.406364 246.621429,173.528182 C246.975,173.584545 247.323214,173.662727 247.662857,173.761818 L249.185357,169.565455 C248.768571,169.454545 248.344286,169.363636 247.914643,169.293636 C247.215,169.19 246.506786,169.135455 245.7975,169.128182 Z" id="Path" fill="#1D1D1B"></path>
            <path d="M269.930357,161.500909 L269.930357,172.099091 C269.048571,171.149091 267.915,170.39 266.621786,169.883636 C265.328571,169.376364 263.912143,169.137273 262.489286,169.184545 C260.921786,169.172727 259.367143,169.43 257.920714,169.942727 C256.474286,170.455455 255.166071,171.211818 254.074286,172.166364 C252.986786,173.130909 252.130714,174.265455 251.556429,175.508182 C250.335,178.246364 250.335,181.269091 251.556429,184.007273 C252.128571,185.250909 252.984643,186.386364 254.074286,187.349091 C255.166071,188.303636 256.474286,189.06 257.920714,189.572727 C259.367143,190.085455 260.921786,190.342727 262.489286,190.330909 C264.001071,190.366364 265.5,190.092727 266.861786,189.534545 C268.054286,189.019091 269.101071,188.29 269.930357,187.397273 L269.930357,189.806364 L275.093571,189.806364 L275.093571,161.500909 L269.930357,161.500909 Z M269.723571,182.269091 C269.405357,183.024545 268.910357,183.718182 268.269643,184.308182 C267.625714,184.888182 266.845714,185.348182 265.98,185.659091 C265.063929,185.997273 264.071786,186.165455 263.072143,186.153636 C262.037143,186.168182 261.010714,185.992727 260.061429,185.639091 C259.209643,185.316364 258.448929,184.842727 257.829643,184.25 C257.200714,183.659091 256.721786,182.964545 256.421786,182.21 C256.084286,181.409091 255.913929,180.564545 255.917064,179.713636 C255.912857,178.863636 256.083214,178.018182 256.421786,177.217273 C256.722857,176.460909 257.201786,175.763636 257.829643,175.168182 C258.452143,174.581818 259.212857,174.111818 260.061429,173.789091 C260.998929,173.455455 262.005,173.283636 263.020714,173.283636 C264.0375,173.283636 265.043571,173.455455 265.98,173.789091 C266.847857,174.095455 267.628929,174.555455 268.269643,175.139091 C268.908214,175.727273 269.402143,176.417273 269.723571,177.169091 C270.078214,177.99 270.257143,178.859091 270.250714,179.733636 C270.255,180.598182 270.077143,181.457273 269.723571,182.269091 Z" id="Shape" fill="#1D1D1B"></path>
            <path d="M186.336429,175.052727 C187.006071,174.483636 187.804286,174.033636 188.683929,173.731818 C189.619286,173.416364 190.618929,173.258182 191.626071,173.265455 C192.729643,173.257273 193.826786,173.415455 194.865,173.731818 C195.7875,174.019091 196.638214,174.450909 197.372143,175.004545 L199.856786,171.497273 C198.906429,170.847273 197.844643,170.323636 196.708929,169.943636 C193.441071,168.855455 189.81,168.855455 186.543214,169.943636 C185.043214,170.44 183.677143,171.189091 182.528571,172.145455 C181.378929,173.102727 180.470357,174.246364 179.8575,175.509091 C178.575,178.200909 178.575,181.21 179.8575,183.901818 C180.474643,185.161818 181.385357,186.304545 182.533929,187.260909 C183.6825,188.216364 185.045357,188.967273 186.543214,189.467273 C189.813214,190.542727 193.437857,190.542727 196.708929,189.467273 C197.840357,189.08 198.9,188.556364 199.856786,187.913636 L197.372143,184.407273 C196.637143,184.957273 195.786429,185.385455 194.865,185.67 C193.826786,185.989091 192.729643,186.150909 191.626071,186.145455 C190.617857,186.15 189.618214,185.988182 188.683929,185.67 C187.802143,185.371818 187.002857,184.921818 186.336429,184.348182 C185.6625,183.767273 185.132143,183.077273 184.779643,182.318182 C184.016786,180.636364 184.016786,178.774545 184.779643,177.092727 C185.135357,176.332727 185.664643,175.639091 186.336429,175.052727 Z" id="Path" fill="#1D1D1B"></path>
            <path d="M285.980357,186.807273 C286.310357,186.807273 286.637143,186.862727 286.941429,186.972727 C287.233929,187.076364 287.501786,187.224545 287.732143,187.41 C287.958214,187.593636 288.137143,187.815455 288.258214,188.060909 C288.393214,188.31 288.459643,188.582727 288.453214,188.857273 C288.458571,189.131818 288.392143,189.403636 288.258214,189.653636 C288.135,189.898182 287.956071,190.119091 287.732143,190.304545 C287.501786,190.492727 287.235,190.643636 286.941429,190.750909 C286.637143,190.857273 286.309286,190.910909 285.980357,190.906364 C285.642857,190.910909 285.308571,190.858182 284.995714,190.750909 C284.401071,190.547273 283.923214,190.152727 283.667143,189.653636 C283.542857,189.401818 283.480714,189.13 283.483929,188.857273 C283.478571,188.583636 283.540714,188.311818 283.667143,188.060909 C283.791429,187.816364 283.970357,187.595455 284.194286,187.41 C284.6775,187.023636 285.316071,186.808182 285.980357,186.807273 Z M285.980357,190.343636 C286.211786,190.343636 286.442143,190.304545 286.655357,190.226364 C286.86,190.15 287.046429,190.040909 287.205,189.906364 C287.360357,189.771818 287.484643,189.613636 287.571429,189.44 C287.6625,189.255455 287.709643,189.057273 287.708571,188.857273 C287.710714,188.66 287.663571,188.464545 287.571429,188.283636 C287.487857,188.106364 287.3625,187.944545 287.205,187.808182 C287.043214,187.679091 286.857857,187.574545 286.655357,187.497273 C286.442143,187.419091 286.211786,187.38 285.980357,187.380909 C285.740357,187.379091 285.5025,187.418182 285.281786,187.497273 C285.078214,187.571818 284.891786,187.677273 284.732143,187.808182 C284.570357,187.943636 284.441786,188.105455 284.353929,188.283636 C284.265,188.465455 284.222143,188.660909 284.228571,188.857273 C284.223214,189.056364 284.266071,189.254545 284.353929,189.44 C284.445,189.613636 284.573571,189.771818 284.732143,189.906364 C284.888571,190.042727 285.075,190.151818 285.281786,190.226364 C285.499286,190.319091 285.737143,190.371818 285.980357,190.381818 L285.980357,190.343636 Z M286.1175,187.943636 C286.3575,187.928182 286.594286,187.990909 286.781786,188.119091 C286.858929,188.170909 286.92,188.237273 286.959643,188.313636 C286.999286,188.39 287.016429,188.472727 287.01,188.556364 C287.014286,188.623636 287.0025,188.690909 286.975714,188.754545 C286.947857,188.818182 286.905,188.876364 286.850357,188.925455 C286.7175,189.03 286.549286,189.094545 286.369286,189.11 L287.044286,189.76 L286.346786,189.76 L285.751071,189.129091 L285.670714,189.129091 L285.670714,189.76 L285.076071,189.76 L285.076071,187.943636 L286.1175,187.943636 Z" id="Shape" fill="#1D1D1B"></path>
            <path d="M110.870357,75.7696364 C110.861786,64.3427273 113.906786,53.0628182 119.776071,42.7780909 C125.645357,32.4934545 134.186786,23.4716364 144.7575,16.3910909 C131.6025,7.54507273 115.774286,2.02421818 99.0906429,0.461784545 C82.4065714,-1.10065455 65.5413214,1.35860909 50.42925,7.55749091 C35.3171786,13.7563636 22.5702857,23.4438182 13.65075,35.5087273 C4.73112857,47.5737273 0,61.5274545 0,75.7696364 C0,90.0118182 4.73112857,103.965455 13.65075,116.030909 C22.5702857,128.095455 35.3171786,137.782727 50.42925,143.981818 C65.5413214,150.180909 82.4065714,152.64 99.0906429,151.077273 C115.774286,149.515455 131.6025,143.994545 144.7575,135.148182 C134.185714,128.068182 125.644286,119.046364 119.775,108.761818 C113.905714,98.4763636 110.861786,87.1967273 110.870357,75.7696364 Z" id="Path" fill="#E30D17"></path>
            <path d="M144.7575,135.100909 C163.472143,135.100909 178.643571,108.516364 178.643571,75.7226364 C178.643571,42.9287273 163.472143,16.3440909 144.7575,16.3440909 C126.042857,16.3440909 110.871429,42.9287273 110.871429,75.7226364 C110.871429,108.516364 126.042857,135.100909 144.7575,135.100909 Z" id="Path" fill="#EB610A"></path>
            <path d="M283.324286,116.688182 L283.324286,114.473636 L282.271071,114.473636 L282.271071,113.871818 L285.201429,113.871818 L285.201429,114.473636 L284.057143,114.473636 L284.057143,116.688182 L283.324286,116.688182 Z M288.9225,116.688182 L288.9225,114.745455 L288.166071,116.436364 L287.342143,116.436364 L286.598571,114.745455 L286.598571,116.688182 L285.807857,116.688182 L285.807857,113.871818 L286.953214,113.871818 L287.777143,115.678182 L288.601071,113.871818 L289.746429,113.871818 L289.746429,116.688182 L288.9225,116.688182 Z" id="Shape" fill="#F69F00"></path>
            <path d="M200.119286,-5.18227885e-10 C180.017143,-0.0201331818 160.501071,5.74279091 144.7575,16.3479091 C155.323929,23.432 163.862143,32.4543636 169.7325,42.7380909 C175.602857,53.0218182 178.652143,64.2999091 178.652143,75.7264545 C178.652143,87.1529091 175.602857,98.4309091 169.7325,108.714545 C163.862143,118.998182 155.323929,128.020909 144.7575,135.104545 C155.925,142.627273 169.054286,147.770909 183.045,150.106364 C197.036786,152.440909 211.482857,151.899091 225.176786,148.525455 C238.870714,145.150909 251.412857,139.044545 261.754286,130.714545 C272.095714,122.384545 279.936429,112.074545 284.619643,100.646364 C289.301786,89.219 290.691429,77.0059091 288.670714,65.0291818 C286.65,53.0525455 281.278929,41.6605455 273.005357,31.8063636 C264.731786,21.9521818 253.797857,13.9224545 241.1175,8.38884545 C228.437143,2.85526364 214.378929,-0.0211938182 200.119286,-5.18227885e-10 Z" id="Path" fill="#F69F00"></path>
        </g>
    </g>
</svg>