<?xml version="1.0" encoding="UTF-8"?>
<svg width="250px" height="250px" viewBox="0 0 250 250" version="1.1" xmlns="http://www.w3.org/2000/svg" xmlns:xlink="http://www.w3.org/1999/xlink">
    <!-- Generator: Sketch 61.2 (89653) - https://sketch.com -->
    <title>Vector</title>
    <desc>Created with Sketch.</desc>
    <g id="Page-1" stroke="none" stroke-width="1" fill="none" fill-rule="evenodd">
        <g id="Vector" fill="#FFFFFF" fill-rule="nonzero">
            <path d="M150,143.75 L200,143.75 L200,125 L150,125 L150,143.75 Z M150,181.25 L200,181.25 L200,162.5 L150,162.5 L150,181.25 Z M225,62.5 L162.5,62.5 L162.5,25 C162.5,11.25 151.25,0 137.5,0 L112.5,0 C98.75,0 87.5,11.25 87.5,25 L87.5,62.5 L25,62.5 C11.25,62.5 0,73.75 0,87.5 L0,225 C0,238.75 11.25,250 25,250 L225,250 C238.75,250 250,238.75 250,225 L250,87.5 C250,73.75 238.75,62.5 225,62.5 Z M112.5,25 L137.5,25 L137.5,87.5 L112.5,87.5 L112.5,25 Z M225,225 L25,225 L25,87.5 L87.5,87.5 C87.5,101.25 98.75,112.5 112.5,112.5 L137.5,112.5 C151.25,112.5 162.5,101.25 162.5,87.5 L225,87.5 L225,225 Z M87.5,162.5 C97.875,162.5 106.25,154.125 106.25,143.75 C106.25,133.375 97.875,125 87.5,125 C77.125,125 68.75,133.375 68.75,143.75 C68.75,154.125 77.125,162.5 87.5,162.5 Z M113.5,177.25 C105.5,173.75 96.75,171.875 87.5,171.875 C78.25,171.875 69.5,173.75 61.5,177.25 C54.5,180.25 50,187 50,194.625 L50,200 L125,200 L125,194.625 C125,187 120.5,180.25 113.5,177.25 Z" id="Shape"></path>
        </g>
    </g>
</svg>