<?xml version="1.0" encoding="UTF-8"?>
<svg width="270px" height="300px" viewBox="0 0 270 300" version="1.1" xmlns="http://www.w3.org/2000/svg" xmlns:xlink="http://www.w3.org/1999/xlink">
    <!-- Generator: Sketch 61.2 (89653) - https://sketch.com -->
    <title>Vector</title>
    <desc>Created with Sketch.</desc>
    <g id="Page-1" stroke="none" stroke-width="1" fill="none" fill-rule="evenodd">
        <g id="Vector" fill="#FFFFFF" fill-rule="nonzero">
            <path d="M210,71.4285714 C210,32 176.4,0 135,0 C93.6,0 60,32 60,71.4285714 L30,71.4285714 C13.5,71.4285714 0,84.2857143 0,100 L0,271.428571 C0,287.142857 13.5,300 30,300 L240,300 C256.5,300 270,287.142857 270,271.428571 L270,100 C270,84.2857143 256.5,71.4285714 240,71.4285714 L210,71.4285714 Z M135,28.5714286 C159.9,28.5714286 180,47.7142857 180,71.4285714 L90,71.4285714 C90,47.7142857 110.1,28.5714286 135,28.5714286 Z M240,271.428571 L30,271.428571 L30,100 L240,100 L240,271.428571 Z M135,157.142857 C110.1,157.142857 90,138 90,114.285714 L60,114.285714 C60,153.714286 93.6,185.714286 135,185.714286 C176.4,185.714286 210,153.714286 210,114.285714 L180,114.285714 C180,138 159.9,157.142857 135,157.142857 Z" id="Shape"></path>
        </g>
    </g>
</svg>