<?xml version="1.0" encoding="UTF-8"?>
<svg width="280px" height="240px" viewBox="0 0 280 240" version="1.1" xmlns="http://www.w3.org/2000/svg" xmlns:xlink="http://www.w3.org/1999/xlink">
    <!-- Generator: Sketch 61.2 (89653) - https://sketch.com -->
    <title>Vector</title>
    <desc>Created with Sketch.</desc>
    <g id="Page-1" stroke="none" stroke-width="1" fill="none" fill-rule="evenodd">
        <g id="Vector" fill="#FFFFFF" fill-rule="nonzero">
            <path d="M254.545455,7.05882353 C240.418182,2.11764706 224.890909,0 210,0 C185.181818,0 158.454545,5.64705882 140,21.1764706 C121.545455,5.64705882 94.8181818,0 70,0 C45.1818182,0 18.4545455,5.64705882 0,21.1764706 L0,228 C0,231.529412 3.18181818,235.058824 6.36363636,235.058824 C7.63636364,235.058824 8.27272727,234.352941 9.54545455,234.352941 C26.7272727,225.176471 51.5454545,218.823529 70,218.823529 C94.8181818,218.823529 121.545455,224.470588 140,240 C157.181818,228 188.363636,218.823529 210,218.823529 C231,218.823529 252.636364,223.058824 270.454545,233.647059 C271.727273,234.352941 272.363636,234.352941 273.636364,234.352941 C276.818182,234.352941 280,230.823529 280,227.294118 L280,21.1764706 C272.363636,14.8235294 264.090909,10.5882353 254.545455,7.05882353 Z M25.4545455,197.647059 L25.4545455,35.2941176 C39.4545455,30.3529412 54.7272727,28.2352941 70,28.2352941 C87.0545455,28.2352941 109.836364,34.0235294 127.272727,42.2117647 L127.272727,204.564706 C109.836364,196.376471 87.0545455,190.588235 70,190.588235 C54.7272727,190.588235 39.4545455,192.705882 25.4545455,197.647059 Z M254.545455,197.647059 C240.545455,192.705882 225.272727,190.588235 210,190.588235 C192.945455,190.588235 170.163636,196.376471 152.727273,204.564706 L152.727273,42.2117647 C170.163636,33.8823529 192.945455,28.2352941 210,28.2352941 C225.272727,28.2352941 240.545455,30.3529412 254.545455,35.2941176 L254.545455,197.647059 Z" id="Shape"></path>
        </g>
    </g>
</svg>