<?xml version="1.0" encoding="UTF-8"?>
<svg width="195px" height="195px" viewBox="0 0 195 195" version="1.1" xmlns="http://www.w3.org/2000/svg" xmlns:xlink="http://www.w3.org/1999/xlink">
    <title>search-icon</title>
    <g id="Page-1" stroke="none" stroke-width="1" fill="none" fill-rule="evenodd">
        <g id="search-icon" transform="translate(-3.000000, -3.000000)" fill="#5A5A5A" fill-rule="nonzero">
            <path d="M142.592593,125.925926 L133.814815,125.925926 L130.703704,122.925926 C141.592593,110.259259 148.148148,93.8148148 148.148148,75.9259259 C148.148148,36.037037 115.814815,3.7037037 75.9259259,3.7037037 C36.037037,3.7037037 3.7037037,36.037037 3.7037037,75.9259259 C3.7037037,115.814815 36.037037,148.148148 75.9259259,148.148148 C93.8148148,148.148148 110.259259,141.592593 122.925926,130.703704 L125.925926,133.814815 L125.925926,142.592593 L181.481481,198.037037 L198.037037,181.481481 L142.592593,125.925926 Z M75.9259259,125.925926 C48.2592593,125.925926 25.9259259,103.592593 25.9259259,75.9259259 C25.9259259,48.2592593 48.2592593,25.9259259 75.9259259,25.9259259 C103.592593,25.9259259 125.925926,48.2592593 125.925926,75.9259259 C125.925926,103.592593 103.592593,125.925926 75.9259259,125.925926 Z" id="Shape"></path>
        </g>
    </g>
</svg>