<?xml version="1.0" encoding="UTF-8"?>
<svg width="302px" height="302px" viewBox="0 0 302 302" version="1.1" xmlns="http://www.w3.org/2000/svg" xmlns:xlink="http://www.w3.org/1999/xlink">
    <title>Snapchat</title>
    <g id="Page-1" stroke="none" stroke-width="1" fill="none" fill-rule="evenodd">
        <g id="Snapchat" transform="translate(1.000000, 1.000000)">
            <path d="M149.988182,299.99999 C120.325455,299.99999 91.3281818,291.2 66.6645455,274.72 C41.9971818,258.238182 22.7712727,234.811818 11.4180909,207.402727 C0.065,179.993636 -2.9055,149.833636 2.88227273,120.736364 C8.67009091,91.6390909 22.9561818,64.9119091 43.934,43.9340909 C64.9119091,22.9561818 91.6390909,8.67009091 120.736364,2.88227273 C149.833636,-2.90548182 179.993636,0.0649090909 207.402727,11.4180909 C234.810909,22.7711818 258.238182,41.9972727 274.72,66.6646364 C291.2,91.3290909 300.000003,120.325455 300.000003,149.988182 C299.948182,189.758182 284.126364,227.883636 256.004545,256.004545 C227.883636,284.126364 189.757273,299.948182 149.988182,299.99999 Z" id="Path" stroke="#6D192B" stroke-width="2"></path>
            <path d="M46.2718182,204.772727 L46.2718182,201.308182 C47.3989091,199.662727 49.0371818,198.434545 50.9329091,197.814545 C58.8011818,195.929091 66.1862727,192.412727 72.6108182,187.494545 C79.0353636,182.575455 84.3563636,176.363636 88.23,169.26 C95.2263636,157.024545 94.0590909,154.689091 80.636,149.449091 C80.0569091,149.449091 78.8893636,148.87 78.3008182,148.87 C75.2894545,147.897273 72.5127273,146.31 70.1463636,144.209091 C68.9340909,143.132727 68.0604545,141.728182 67.6317273,140.165455 C67.2029091,138.602727 67.2375455,136.949091 67.7313636,135.404545 C68.2250909,133.860909 69.1567273,132.494545 70.413,131.470909 C71.6692727,130.446364 73.1959091,129.81 74.8073636,129.637273 C80.057,128.47 84.7181818,131.972727 89.3790909,132.551818 C92.8727273,133.130909 94.04,131.972727 93.4609091,128.47 C92.4009091,119.38 92.2063636,110.209091 92.8818182,101.082727 C93.0463636,92.9645455 95.3409091,85.0318182 99.5336364,78.0781818 C103.726364,71.1246364 109.671818,65.3940909 116.775455,61.4595455 C126.502727,55.1814545 137.834545,51.8421818 149.411818,51.8421818 C160.989091,51.8421818 172.320909,55.1814545 182.048182,61.4595455 C188.656364,65.1001818 194.281818,70.2893636 198.443636,76.5821818 C202.605455,82.8754545 205.178182,90.0836364 205.941818,97.5890909 C206.816364,108.060909 206.816364,118.587273 205.941818,129.058182 C205.362727,133.719091 206.520909,134.308182 211.190909,133.14 C217.02,131.972727 221.680909,129.058182 226.930909,131.393636 C228.527273,131.969091 229.924545,132.99 230.958182,134.336364 C231.990909,135.682727 232.616364,137.296364 232.759091,138.987273 C232.768182,140.12 232.508182,141.239091 232.001818,142.251818 C231.495455,143.265455 230.756364,144.143636 229.844545,144.816364 C226.988182,146.828182 223.846364,148.399091 220.522727,149.477273 C218.187273,150.645455 215.273636,151.223636 212.928182,152.391818 C207.688182,154.726364 206.520909,157.631818 208.846364,162.880909 C212.219091,171.424545 217.569091,179.047273 224.456364,185.124545 C231.343636,191.201818 239.572727,195.560909 248.47,197.843636 C250.706364,198.427273 252.729091,199.639091 254.298182,201.336364 L254.298182,204.83 C252.442727,208.370909 249.320909,211.082727 245.555455,212.424545 C241.754545,213.854545 237.86,215.022727 233.898182,215.918182 C228.07,216.497273 225.155455,218.831818 224.576364,224.660909 C223.997273,230.489091 222.240909,231.068182 216.421818,230.489091 C215.254545,230.489091 213.507273,229.91 212.34,229.91 C207.029091,228.762727 201.537273,228.740909 196.216364,229.844545 C190.896364,230.948182 185.866364,233.152727 181.45,236.318182 C179.605455,237.813636 177.658182,239.178182 175.621818,240.4 C168.711818,245.360909 160.491818,248.173636 151.991818,248.484545 C143.490909,248.794545 135.088182,246.59 127.834545,242.146364 C123.173636,239.811818 119.091818,236.318182 115.01,233.991818 C111.477273,231.778182 107.494545,230.383636 103.352727,229.91 C96.7263636,229.409091 90.0627273,229.801818 83.5409091,231.078182 C80.0474545,231.657273 77.1331818,230.499091 76.5445455,226.996364 C75.9655455,218.841818 70.716,216.506364 63.7197273,215.927273 C60.3428182,215.226364 57.0283636,214.250909 53.8091818,213.012727 C50.5757273,211.025455 47.9643636,208.170909 46.2718182,204.772727 Z" id="Path" fill="#6D192B" fill-rule="nonzero"></path>
        </g>
    </g>
</svg>