<?xml version="1.0" encoding="UTF-8"?>
<svg width="496px" height="250px" viewBox="0 0 496 250" version="1.1" xmlns="http://www.w3.org/2000/svg" xmlns:xlink="http://www.w3.org/1999/xlink">
    <title>stc-pay</title>
    <g id="Page-1" stroke="none" stroke-width="1" fill="none" fill-rule="evenodd">
        <g id="stc-pay" fill-rule="nonzero">
            <path d="M321.699306,184.640476 L321.699306,52.5815476 L334.763194,52.5815476 L334.763194,63.1707143 C338.739583,54.6507143 344.631944,50.0255952 351.945139,50.0255952 C366.997222,50.0255952 377.788889,70.5952381 377.788889,100.049881 C377.788889,129.504762 366.926389,150.439286 351.945139,150.439286 C344.561111,150.439286 338.739583,145.571429 334.763194,137.05119 L334.763194,184.640476 L321.699306,184.640476 Z M334.763194,87.8785714 L334.763194,112.22131 C337.532639,122.079762 342.502083,129.260714 349.672917,129.260714 C358.335417,129.260714 364.156944,118.185238 364.156944,99.9282143 C364.156944,81.9145238 358.335417,70.9603571 349.672917,70.9603571 C342.502083,71.0820238 337.532639,77.7763095 334.763194,87.8785714 Z" id="Shape" fill="#02AA7C"></path>
            <path d="M386.238194,120.492857 C386.238194,104.427143 392.060417,93.2295238 401.715972,91.1603571 L423.938889,86.2917857 L423.938889,81.544881 C423.938889,75.8244048 422.235417,72.7815476 419.111111,72.7815476 L391.208333,72.7815476 L391.208333,52.4553571 L419.608333,52.4553571 C430.897222,52.4553571 437.074306,61.9490476 437.074306,78.7454762 L437.074306,147.514286 L423.868056,147.514286 L423.868056,135.95119 C420.034028,145.20119 413.715278,150.434524 405.55,150.434524 C394.048611,150.434524 386.238194,138.385714 386.238194,120.492857 Z M408.745139,132.177381 C415.419444,132.177381 421.595833,125.727381 423.868056,116.233333 L423.868056,104.305357 L406.899306,108.321905 C402.213194,109.417381 399.586111,113.677381 399.586111,120.615476 C399.586111,128.039286 402.922917,132.177381 408.745139,132.177381 Z" id="Shape" fill="#02AA7C"></path>
            <path d="M446.5875,164.310714 L456.101389,164.310714 C459.722917,164.310714 461.355556,161.754762 462.5625,155.911905 L464.266667,147.514286 L444.102778,52.4553571 L457.734722,52.4553571 L470.301389,118.667619 L470.585417,118.667619 L482.584722,52.4553571 L496.003472,52.4553571 L473.922917,161.632143 C470.940972,176.603571 466.964583,184.636905 457.2375,184.636905 L446.5875,184.636905 L446.5875,164.310714 Z" id="Path" fill="#02AA7C"></path>
            <path d="M47.9247917,250 C63.1186806,250 75.6145833,241.845238 83.8506944,228.213095 C90.0277778,217.745238 93.6486111,203.627381 93.6486111,187.317857 C93.6486111,172.590476 90.4534722,159.32381 84.5604167,149.221429 C78.6673611,139.119048 70.21875,131.694048 59.56875,128.164286 L42.1027778,122.322619 C34.8608333,120.009524 30.7428472,113.802381 30.7428472,105.160714 C30.7428472,93.8413095 37.1328472,86.0516667 47.3568056,86.0516667 C53.7467361,86.0516667 59.21375,89.5813095 62.8347222,95.7886905 C65.1066667,100.04869 66.6686806,105.525833 67.1656944,111.733214 L92.3708333,101.996071 C91.6604167,89.5813095 88.2527778,78.6270238 83.0694444,69.6202381 C74.7625,55.6232143 62.0536806,46.7380952 47.0727778,46.7380952 C33.2278472,46.7380952 21.6549306,54.5277381 13.6319444,66.9425 C6.81596528,77.8967857 2.98198611,92.6241667 2.98198611,109.055476 C2.98198611,123.417857 5.67997222,135.589286 11.1469444,144.839286 C16.6138889,154.210714 24.5659028,161.14881 35.0028472,165.530952 L52.2557639,172.590476 C60.9177083,176.120238 64.7516667,181.596429 64.7516667,191.334524 C64.7516667,203.383333 58.3617361,210.442857 47.9247917,210.442857 C40.3988194,210.442857 34.2928472,206.183333 30.4588889,199.12381 C27.7609028,194.49881 26.1278472,188.169048 25.9148611,181.232143 L0,190.969048 C0.71,204.235714 4.33097917,215.920238 9.79798611,225.291667 C18.3888889,240.75 32.3048611,250 47.9247917,250 Z M239.765972,250 C256.593056,250 269.514583,239.532143 278.389583,224.683333 C285.41875,212.99881 289.749306,199.366667 292.021528,185.370238 L265.468056,170.155952 C264.331944,177.215476 262.059722,184.639286 258.438889,190.360714 C254.107639,197.420238 248.214583,202.409524 239.765972,202.409524 C232.027083,202.409524 224.784722,197.297619 219.53125,188.413095 C214.277083,179.040476 211.081944,165.408333 211.081944,148.247619 C211.081944,130.720238 214.277083,117.45381 219.53125,108.081786 C224.713889,99.075 231.813889,94.449881 239.552778,94.449881 C247.718056,94.449881 253.397917,99.075 257.515972,106.134405 C260.923611,111.976667 262.982639,119.40119 264.331944,126.82619 L291.382639,111.24631 C289.323611,97.6144048 284.992361,83.9825 278.673611,72.6630952 C269.585417,57.4489286 256.379861,46.6164286 238.913889,46.6164286 C222.797222,46.6164286 208.242361,57.0836905 197.804861,75.097381 C187.368056,93.3544048 180.978472,118.792619 180.978472,148.369048 C180.978472,177.945238 187.58125,203.261905 198.23125,221.640476 C208.597222,239.532143 223.365278,250 239.765972,250 Z M147.963194,250 C159.749306,250 168.197917,243.792857 171.819444,238.315476 L171.819444,196.202381 C169.05,199.732143 163.654167,203.991667 156.554167,203.991667 C151.513194,203.991667 147.892361,202.045238 145.194444,197.784524 C142.922222,193.890476 141.786111,187.195238 141.786111,178.310714 L141.786111,0 L111.753472,0 L111.753472,52.5803571 L171.747917,52.5803571 L171.747917,102.482976 L111.753472,102.482976 L111.753472,190.969048 C111.753472,208.860714 114.948611,223.345238 120.628472,233.446429 C127.01875,244.157143 136.390278,250 147.963194,250 Z" id="Shape" fill="#502C84"></path>
        </g>
    </g>
</svg>