<?xml version="1.0" encoding="UTF-8"?>
<svg width="300px" height="200px" viewBox="0 0 300 200" version="1.1" xmlns="http://www.w3.org/2000/svg" xmlns:xlink="http://www.w3.org/1999/xlink">
    <title>tard</title>
    <g id="Page-1" stroke="none" stroke-width="1" fill="none" fill-rule="evenodd">
        <g id="tard" fill-rule="nonzero">
            <path d="M118.3425,161.277143 L118.298438,107.352381 C118.298438,104.744762 116.173125,102.630476 113.605312,102.585714 L56.7610312,102.585714 C54.1932187,102.585714 52.1125312,104.744762 52.1125312,107.352381 L52.1125312,128.220952 C52.1125312,130.829524 54.2375625,132.942857 56.8052812,132.942857 L90.31875,132.942857 L90.31875,135.641905 L43.036875,135.686667 C40.4690625,135.686667 38.388375,137.845714 38.388375,140.408571 L38.388375,161.277143 C38.388375,163.885714 40.4690625,166.04381 43.081125,166.04381 L113.694375,166.04381 C116.262188,166.04381 118.3425,163.885714 118.3425,161.277143 Z" id="Path" fill="#F7B622"></path>
            <path d="M285.910312,102.586667 L190.726875,102.586667 C186.698438,102.586667 183.421875,99.2580952 183.421875,95.165619 L183.421875,7.4659619 C183.421875,4.85745714 181.2975,2.74367619 178.729687,2.74367619 L158.187187,2.74367619 C155.619375,2.74367619 153.539062,4.9024381 153.539062,7.51094286 L153.539062,94.9857143 L153.539062,107.039048 C153.539062,107.128571 153.539062,107.26381 153.539062,107.353333 L153.539062,133.348571 C153.539062,134.202857 153.539062,134.832381 153.539062,135.237143 C153.539062,135.372381 153.539062,135.552381 153.539062,135.732381 C153.539062,135.777143 153.539062,135.777143 153.539062,135.821905 C153.495,136.497143 153.22875,137.260952 152.210625,137.260952 C151.1925,137.260952 150.97125,136.497143 150.882188,135.821905 C150.882188,135.821905 150.882188,135.777143 150.882188,135.732381 C150.882188,135.552381 150.882188,135.417143 150.882188,135.237143 C150.882188,134.832381 150.882188,134.202857 150.882188,133.348571 L150.882188,107.08381 C150.75,104.610476 148.71375,102.631429 146.234062,102.631429 L125.736562,102.631429 C123.16875,102.631429 121.0875,104.790476 121.0875,107.399048 L121.0875,136.361905 L121.0875,192.58 C121.0875,195.188571 123.212812,197.301905 125.780625,197.301905 L146.19,197.301905 C148.757812,197.301905 150.882188,195.188571 150.882188,192.534286 L150.882188,173.555238 C150.882188,169.462857 154.15875,166.135238 158.187187,166.089524 L285.86625,166.089524 C291.754687,166.089524 296.535937,161.187619 296.58,155.205714 L296.58,113.38 C296.58,107.488571 291.754687,102.586667 285.910312,102.586667 Z M272.451562,135.687619 L182.226562,135.687619 L182.226562,132.988571 L272.451562,132.988571 L272.451562,135.687619 Z" id="Shape" fill="#F7B622"></path>
            <path d="M285.909375,99.887619 L190.725938,99.887619 C188.158125,99.887619 186.077812,97.7285714 186.03375,95.1202857 L186.03375,7.42073333 C186.03375,3.32808571 182.757188,0 178.72875,0 L158.187188,0 C154.157813,0 150.882188,3.32808571 150.882188,7.42073333 L150.882188,94.8954286 L150.882188,101.59619 C149.597813,100.517143 148.004063,99.887619 146.233125,99.887619 L125.691563,99.887619 C123.211875,99.887619 120.998438,101.191429 119.670938,103.125714 C118.3425,101.191429 116.129063,99.887619 113.649375,99.887619 L56.7609375,99.887619 C52.7322188,99.887619 49.456125,103.215238 49.456125,107.353333 L49.456125,128.220952 C49.456125,130.02 50.1201563,131.68381 51.1827188,132.988571 L43.0810313,132.988571 C39.0523125,132.988571 35.7762188,136.31619 35.7762188,140.409524 L35.7762188,161.277143 C35.7762188,165.369524 39.0523125,168.742857 43.0810313,168.742857 L113.738438,168.742857 C115.509375,168.742857 117.147188,168.068571 118.386563,167.034286 L118.386563,192.579048 C118.386563,196.672381 121.663125,200 125.691563,200 L146.189063,200 C150.2175,200 153.538125,196.672381 153.538125,192.579048 L153.538125,173.6 C153.538125,170.991429 155.663438,168.878095 158.187188,168.833333 L285.865313,168.833333 C293.214375,168.833333 299.190938,162.71619 299.235938,155.250476 L299.235938,113.424762 C299.235938,106.00381 293.214375,99.932381 285.909375,99.887619 Z M296.579063,155.295238 C296.579063,161.277143 291.75375,166.134286 285.865313,166.179048 L158.187188,166.179048 C154.157813,166.179048 150.882188,169.507619 150.882188,173.644762 L150.882188,192.579048 C150.882188,195.187619 148.756875,197.346667 146.189063,197.346667 L125.691563,197.346667 C123.12375,197.346667 121.043438,195.187619 120.998438,192.62381 L120.998438,136.31619 L120.998438,107.353333 C120.998438,104.744762 123.12375,102.631429 125.6475,102.585714 L146.189063,102.585714 C148.66875,102.585714 150.705,104.564762 150.838125,107.038095 L150.838125,133.30381 C150.838125,134.158095 150.838125,134.787619 150.838125,135.192381 C150.838125,135.327619 150.838125,135.506667 150.838125,135.686667 C150.838125,135.732381 150.838125,135.732381 150.838125,135.777143 C150.882188,136.451429 151.1475,137.21619 152.165625,137.21619 C153.18375,137.21619 153.405,136.451429 153.494063,135.777143 C153.494063,135.777143 153.494063,135.732381 153.494063,135.686667 C153.494063,135.506667 153.494063,135.372381 153.494063,135.192381 C153.494063,134.787619 153.494063,134.158095 153.494063,133.30381 L153.494063,107.308571 C153.494063,107.218095 153.494063,107.08381 153.494063,106.993333 L153.494063,94.940381 L153.494063,7.46571429 C153.494063,4.85720952 155.619375,2.74341905 158.142188,2.69844762 L178.684688,2.69844762 C181.2525,2.69844762 183.332813,4.85720952 183.376875,7.42073333 L183.376875,95.1202857 C183.376875,99.2133333 186.653438,102.540952 190.681875,102.540952 L285.865313,102.540952 C291.75375,102.540952 296.535,107.442857 296.579063,113.424762 L296.579063,155.295238 Z M43.0367813,166.044762 C40.4689688,166.044762 38.3439375,163.885714 38.3439375,161.277143 L38.3439375,140.409524 C38.3439375,137.800952 40.4689688,135.686667 42.9924375,135.686667 L90.2744063,135.641905 L90.2744063,132.94381 L56.7609375,132.94381 C54.193125,132.94381 52.1123438,130.784762 52.0680938,128.220952 L52.0680938,107.353333 C52.0680938,104.744762 54.193125,102.631429 56.7165938,102.585714 L113.56125,102.585714 C116.129063,102.585714 118.209375,104.744762 118.254375,107.353333 L118.298438,161.277143 C118.298438,163.885714 116.217188,166.044762 113.605313,166.044762 L43.0367813,166.044762 Z" id="Shape" fill="#3E474E"></path>
            <polygon id="Path" fill="#3E474E" points="272.451562 132.989524 182.226562 132.989524 182.226562 135.687619 272.451562 135.687619"></polygon>
            <polygon id="Path" fill="#3E474E" points="234.909375 38.9507619 256.823438 38.9507619 256.823438 37.6015238 257.177813 37.6015238 257.177813 29.5060952 254.520938 29.5060952 254.520938 36.2522857 247.215938 36.2522857 247.215938 29.5060952 244.56 29.5060952 244.56 36.2522857 237.255 36.2522857 237.255 29.5060952 234.599063 29.5060952 234.599063 37.6015238 234.909375 37.6015238"></polygon>
            <polygon id="Path" fill="#3E474E" points="256.824375 22.6655238 234.909375 22.6655238 234.909375 25.364 256.824375 25.364"></polygon>
            <path d="M28.3392188,70.9294286 L26.1256875,70.8844762 C25.7715,70.8844762 25.4615625,71.1542857 25.4615625,71.5140952 L25.4173125,74.1226667 C25.4173125,74.482381 25.683,74.7972381 26.0370937,74.7972381 L28.2507187,74.8421905 C28.6049062,74.8421905 28.91475,74.572381 28.91475,74.2125714 L28.959,71.6040952 C29.0033437,71.2442857 28.7376563,70.9294286 28.3392188,70.9294286 Z" id="Path" fill="#3E474E"></path>
            <path d="M33.7849687,71.0131429 L31.5713438,70.9681905 C31.2171562,70.9681905 30.9073125,71.238 30.9073125,71.5978095 L30.8629688,74.2062857 C30.8629688,74.3861905 30.9073125,74.5660952 31.0400625,74.656 C31.1729063,74.7909524 31.30575,74.836 31.4828437,74.836 L33.696375,74.8809524 C33.8734688,74.8809524 34.0063125,74.8359048 34.1390625,74.7010476 C34.2719063,74.5660952 34.3161562,74.4311429 34.3161562,74.2512381 L34.3605,71.6427619 C34.3605,71.4629524 34.3161562,71.2830476 34.1834062,71.1930476 C34.1390625,71.0580952 33.9620625,71.0131429 33.7849687,71.0131429 Z" id="Path" fill="#3E474E"></path>
            <path d="M33.0320625,67.3694286 C34.0502813,67.6842857 35.0685,67.8191429 36.1310625,67.8191429 L38.7872813,67.8641905 C39.3628125,67.8641905 39.9383438,67.8640952 40.469625,67.7741905 C40.9566563,67.7292381 41.4435938,67.5942857 41.8862813,67.3694286 C42.2404688,67.5493333 42.5946562,67.6842857 42.9488438,67.7292381 C43.3915313,67.8191429 43.8785625,67.8641905 44.3655,67.8641905 L55.4776875,67.9990476 C56.80575,68.044 58.1339063,67.9990476 59.4178125,67.8641905 C60.3917813,67.7741905 61.36575,67.4593333 62.206875,66.8746667 C63.00375,66.2450476 63.5350313,65.345619 63.800625,64.3561905 C64.1990625,62.9169524 64.3761563,61.3879048 64.3319063,59.9037143 C64.3319063,58.6894286 64.2434063,57.4751429 64.0220625,56.3058095 C63.800625,55.0915238 63.3136875,53.9671429 62.6495625,52.9777143 C61.8526875,51.8982857 60.7902188,51.0438095 59.5949063,50.4591429 C58.311,49.8295238 56.5401563,49.4697143 54.370875,49.4247619 C52.4671875,49.3798095 50.6520938,49.649619 48.8369063,50.2342857 C47.2874063,50.7289524 45.7379063,51.3586667 44.277,52.0781905 L44.277,50.9539048 C44.32125,50.774 44.277,50.6390476 44.1884062,50.5040952 C44.0999063,50.3692381 43.9670625,50.2792381 43.7899688,50.2342857 C43.7457188,50.2342857 43.657125,50.2342857 43.612875,50.2342857 L42.1519688,50.2342857 C41.974875,50.1893333 41.8420313,50.2342857 41.7091875,50.3241905 C41.5764375,50.4141905 41.4878438,50.5491429 41.4435938,50.7289524 C41.4435938,50.774 41.4435938,50.8639048 41.4435938,50.9088571 L41.31075,61.6127619 C41.3550938,62.5121905 41.2665,63.4566667 41.0009063,64.3111429 C40.8238125,64.8059048 40.2482813,65.0307619 39.3185625,65.0307619 L36.1753125,64.9858095 L35.909625,64.9858095 C34.8914063,65.0307619 33.9174375,64.7609524 33.0763125,64.1762857 C32.3679375,63.6365714 32.01375,62.8270476 32.0580938,61.9275238 L32.1908438,50.6390476 C32.2351875,50.3241905 32.0580938,50.0094286 31.7039062,49.9194286 C31.6596563,49.9194286 31.5710625,49.9194286 31.5268125,49.9194286 L30.0658125,49.9194286 C29.7559688,49.8744762 29.4460313,50.054381 29.3575313,50.4141905 C29.3575313,50.4591429 29.3575313,50.5490476 29.3575313,50.5940952 L29.2246875,61.5227619 C29.2246875,62.1074286 29.1804375,62.6471429 29.1361875,63.0968571 C29.0918438,63.4566667 29.0033438,63.8164762 28.8705,64.1762857 C28.73775,64.4460952 28.5606563,64.626 28.2949688,64.716 C27.8965313,64.8508571 27.4980938,64.9408571 27.0996562,64.8958095 L23.9121563,64.8508571 L23.336625,64.8508571 C22.4069063,64.8958095 21.4771875,64.626 20.7245625,64.0862857 C20.1047813,63.501619 19.7505938,62.6920952 19.8391875,61.7926667 L20.1047813,38.6309524 C20.1490313,38.4510476 20.1047813,38.3160952 20.0162812,38.1812381 C19.9276875,38.0462857 19.7948438,37.956381 19.6178437,37.9113333 C19.5735,37.9113333 19.485,37.9113333 19.44075,37.9113333 L17.97975,37.9113333 C17.6698125,37.866381 17.3599688,38.0462857 17.271375,38.4060952 C17.271375,38.4510476 17.271375,38.5410476 17.271375,38.586 L16.9615313,66.6948571 C16.9615313,67.6842857 16.7844375,68.6737143 16.386,69.5731429 C16.0760625,70.2927619 15.5447812,70.9673333 14.925,71.4620952 C14.3052187,71.9567619 13.5525937,72.3165714 12.7557187,72.4964762 C11.8703437,72.7213333 10.984875,72.8113333 10.0551562,72.8113333 C9.25828125,72.8113333 8.41712812,72.676381 7.62024375,72.4964762 C6.77908125,72.271619 6.026475,71.9567619 5.31812812,71.4620952 C4.60979062,70.922381 3.98998125,70.2478095 3.59154375,69.4382857 C3.10455937,68.4487619 2.88319687,67.3244762 2.92746562,66.2000952 C2.92746562,64.8958095 3.19309687,63.6365714 3.72435937,62.4672381 C4.16706562,61.3879048 4.74259687,60.3534286 5.31812812,59.364 C5.53949062,59.1391429 5.4952125,58.734381 5.27385937,58.5544762 C5.22958125,58.5095238 5.1853125,58.5095238 5.1853125,58.4645714 L3.857175,57.5650476 C3.6358125,57.4300952 3.41445937,57.3851429 3.237375,57.4300952 C3.10455937,57.4751429 3.0160125,57.5200952 2.97174375,57.6550476 C2.17485937,58.824381 1.51079062,60.083619 0.979528125,61.3879048 C0.35973,63.0069524 0.00555987187,64.6709524 0.00555987187,66.4249524 C-0.0387115313,67.7292381 0.182642812,68.9884762 0.625356562,70.2478095 C1.02379687,71.3720952 1.68786562,72.4065714 2.48475937,73.2160952 C3.37018125,74.0705714 4.43269687,74.7451429 5.58375,75.1499048 C7.00044375,75.6446667 8.46139687,75.8695238 9.9223125,75.8695238 C11.3390625,75.8695238 12.7114687,75.6446667 14.083875,75.1949524 C15.2349375,74.7901905 16.2974063,74.1155238 17.182875,73.2610476 C17.97975,72.4515238 18.6437812,71.4171429 18.9979688,70.3377143 C19.3964063,69.1234286 19.6178437,67.9091429 19.6178437,66.6048571 L19.6178437,66.5599048 C20.1047813,66.9646667 20.6360625,67.2344762 21.2115938,67.3694286 C22.0084688,67.5942857 22.8495938,67.6842857 23.6907188,67.7292381 L27.0996562,67.7741905 C28.029375,67.8640952 28.91475,67.6392381 29.7117188,67.1445714 C30.1986563,66.7847619 30.5970938,66.3350476 30.9512813,65.8402857 C31.6153125,66.5149524 32.2794375,67.099619 33.0320625,67.3694286 Z M43.9670625,65.0757143 C44.0999063,64.4011429 44.1884062,63.7264762 44.1884062,63.0069524 L44.277,55.1814286 C44.9410313,54.8665714 45.6494063,54.5518095 46.4020313,54.192 C47.2431563,53.8321905 48.0842813,53.5174286 48.96975,53.2475238 C49.855125,52.9777143 50.7848438,52.7528571 51.7145625,52.5729524 C52.6442812,52.3930476 53.574,52.3030476 54.503625,52.3480952 C55.6546875,52.3480952 56.80575,52.528 57.9125625,52.9327619 C58.7536875,53.2475238 59.4620625,53.7422857 60.0375938,54.4168571 C60.568875,55.0915238 60.9673125,55.9010476 61.1444063,56.7555238 C61.36575,57.7899048 61.45425,58.824381 61.45425,59.9037143 C61.45425,60.9380952 61.36575,61.9275238 61.1886563,62.9169524 C61.0558125,63.501619 60.7902188,64.0413333 60.3917813,64.4910476 C59.9933438,64.8508571 59.5063125,65.0757143 59.019375,65.1657143 C58.26675,65.255619 57.514125,65.3005714 56.7615,65.3005714 L43.9670625,65.0757143 Z" id="Shape" fill="#3E474E"></path>
            <path d="M95.7646875,46.9527619 L97.9790625,46.9977143 C98.1553125,46.9977143 98.2884375,46.9527619 98.4215625,46.8179048 C98.55375,46.6829524 98.59875,46.548 98.59875,46.3680952 L98.6428125,43.759619 C98.6428125,43.5797143 98.59875,43.3998095 98.465625,43.3099048 C98.3325,43.2199048 98.2003125,43.13 98.023125,43.13 L95.8096875,43.0850476 C95.4553125,43.0850476 95.145,43.3548571 95.145,43.7146667 L95.1009375,46.3231429 C95.1009375,46.638 95.41125,46.9527619 95.7646875,46.9527619 Z" id="Path" fill="#3E474E"></path>
            <path d="M90.3200625,46.9062857 L92.5335938,46.9512381 C92.7106875,46.9512381 92.8435312,46.9062857 92.9762812,46.7713333 C93.109125,46.6364762 93.153375,46.5015238 93.153375,46.321619 L93.1977188,43.7131429 C93.1977188,43.5332381 93.153375,43.3533333 93.020625,43.2633333 C92.8877813,43.1284762 92.7549375,43.0835238 92.5778437,43.0835238 L90.3643125,43.0384762 C90.1872188,43.0384762 90.010125,43.0834286 89.921625,43.218381 C89.7887812,43.3533333 89.7445312,43.4882857 89.7445312,43.6680952 L89.7001875,46.2766667 C89.7001875,46.4565714 89.7445312,46.6364762 89.8772812,46.726381 C89.965875,46.816381 90.1429687,46.9062857 90.3200625,46.9062857 Z" id="Path" fill="#3E474E"></path>
            <path d="M71.3715938,66.4291429 C72.079875,67.1486667 72.9653438,67.6434286 73.9393125,67.9132381 C75.0017813,68.2280952 76.1085937,68.408 77.2154063,68.3630476 L81.7753125,68.408 L81.7310625,70.3419048 C81.7310625,71.826 81.376875,72.8154286 80.8013438,73.2652381 C80.1815625,73.7599048 79.1633437,73.9847619 77.8351875,73.9398095 L72.69975,73.8948571 C72.5226563,73.8499048 72.3898125,73.8948571 72.2569688,73.9847619 C72.1242187,74.0747619 72.035625,74.2097143 71.991375,74.3895238 C71.991375,74.4345714 71.991375,74.5244762 71.991375,74.5694286 L71.991375,76.0985714 C71.947125,76.4134286 72.1242187,76.7281905 72.4783125,76.8181905 C72.5226563,76.8181905 72.6111563,76.8181905 72.6554062,76.8181905 L78.5435625,76.9080952 C78.5878125,76.9080952 78.6320625,76.9080952 78.6763125,76.9080952 C80.62425,76.9080952 82.1295,76.4134286 83.0592187,75.424 C84.0331875,74.3895238 84.520125,72.7255238 84.520125,70.4318095 L84.5644688,68.5429524 L90.762375,68.6328571 C91.6920937,68.7227619 92.5775625,68.4979048 93.3744375,68.0032381 C93.8615625,67.6434286 94.26,67.1937143 94.614375,66.6989524 C94.9678125,67.4185714 95.6325,68.0032381 96.429375,68.318 C97.4475,68.6328571 98.465625,68.7678095 99.5278125,68.7678095 L102.804375,68.8127619 C103.734375,68.9026667 104.619375,68.6778095 105.41625,68.1831429 C105.902812,67.8233333 106.30125,67.373619 106.655625,66.8788571 C107.01,67.5984762 107.67375,68.1831429 108.470625,68.4979048 C109.356562,68.7678095 110.285625,68.9477143 111.215625,68.9477143 L114.181875,68.9926667 C115.067812,69.037619 115.90875,68.9477143 116.749687,68.6778095 C117.369375,68.4979048 117.945,68.1381905 118.3875,67.6434286 C118.785938,67.1037143 119.09625,66.5190476 119.229375,65.8444762 C119.405625,65.0349524 119.494687,64.2254286 119.494687,63.3708571 L119.76,39.9393333 C119.804062,39.804381 119.76,39.6244762 119.715937,39.4895238 C119.627813,39.3546667 119.494687,39.2646667 119.361562,39.2197143 C119.3175,39.2197143 119.273438,39.2197143 119.229375,39.2197143 L117.767812,39.2197143 C117.590625,39.1747619 117.458438,39.2197143 117.325312,39.309619 C117.192188,39.399619 117.104062,39.5345714 117.06,39.7144762 C117.06,39.7594286 117.06,39.8493333 117.06,39.8942857 L116.79375,64.0904762 C116.79375,64.8550476 116.616562,65.3946667 116.307187,65.6645714 C115.864688,65.9793333 115.333125,66.1592381 114.801562,66.1142857 L111.747187,66.0693333 L111.481875,66.0693333 C110.462812,66.1142857 109.48875,65.8444762 108.647813,65.2598095 C107.94,64.7200952 107.585625,63.9105714 107.629687,63.0110476 L107.895,39.804381 C107.94,39.4895238 107.762812,39.1747619 107.408437,39.0847619 C107.364375,39.0847619 107.275312,39.0847619 107.23125,39.0847619 L105.770625,39.0847619 C105.593437,39.0398095 105.460313,39.0847619 105.328125,39.1747619 C105.195,39.2646667 105.105937,39.399619 105.061875,39.5795238 C105.061875,39.6244762 105.061875,39.7144762 105.061875,39.7594286 L104.796562,62.6513333 C104.796562,63.236 104.7525,63.775619 104.7075,64.2254286 C104.663437,64.5851429 104.575312,64.9449524 104.442187,65.3047619 C104.309062,65.5745714 104.132812,65.7544762 103.866563,65.8444762 C103.468125,65.9794286 103.069687,66.0693333 102.67125,66.024381 L99.6609375,65.9793333 L99.395625,65.9793333 C98.3775,66.024381 97.4034375,65.7544762 96.5615625,65.1698095 C95.85375,64.6301905 95.499375,63.8206667 95.5434375,62.9211429 L95.6765625,51.6325714 C95.720625,51.4526667 95.6765625,51.3178095 95.5884375,51.1828571 C95.499375,51.0479048 95.36625,50.958 95.19,50.9130476 C95.145,50.9130476 95.056875,50.9130476 95.0128125,50.9130476 L93.5515312,50.9130476 C93.3744375,50.868 93.2415937,50.9130476 93.1088437,51.0029524 C92.976,51.0929524 92.8874062,51.2278095 92.8431562,51.4077143 C92.8431562,51.4526667 92.8431562,51.5426667 92.8431562,51.587619 L92.7104063,62.516381 C92.7104063,63.1010476 92.6660625,63.6407619 92.6218125,64.0904762 C92.5775625,64.4502857 92.4889687,64.8100952 92.3562188,65.1698095 C92.223375,65.4397143 92.0462812,65.619619 91.7806875,65.7095238 C91.38225,65.8444762 90.9838125,65.934381 90.585375,65.8894286 L84.6087187,65.7995238 L84.6972187,59.5480952 C84.7415625,56.3548571 84.1216875,53.9712381 82.926375,52.3971429 C81.6868125,50.8230476 79.783125,49.9685714 77.2154063,49.9685714 C76.1528438,49.9685714 75.090375,50.1484762 74.1164063,50.5981905 C73.1424375,51.0029524 72.3012188,51.677619 71.5929375,52.4420952 C70.8403125,53.341619 70.2647812,54.376 69.8663438,55.500381 C69.0252188,58.2438095 68.980875,61.1221905 69.7335,63.865619 C70.0434375,64.7200952 70.6189688,65.6645714 71.3715938,66.4291429 Z M72.1684688,59.5480952 C72.2127187,57.2094286 72.69975,55.4554286 73.629375,54.2860952 C74.4705938,53.1617143 75.843,52.5320952 77.2154063,52.622 C78.942,52.622 80.1815625,53.2066667 80.8899375,54.376 C81.5982188,55.5453333 81.9524063,57.254381 81.9524063,59.4131429 L81.8639063,65.619619 L77.3039062,65.5745714 C76.5070313,65.5745714 75.7544063,65.4846667 75.0017813,65.2148571 C74.382,65.0349524 73.8507187,64.6751429 73.4080313,64.2254286 C72.9653438,63.7306667 72.6554062,63.1010476 72.4783125,62.426381 C72.2127187,61.4369524 72.124125,60.4925714 72.1684688,59.5480952 Z" id="Shape" fill="#3E474E"></path>
        </g>
    </g>
</svg>