<?xml version="1.0" encoding="UTF-8"?>
<svg width="302px" height="302px" viewBox="0 0 302 302" version="1.1" xmlns="http://www.w3.org/2000/svg" xmlns:xlink="http://www.w3.org/1999/xlink">
    <title>Twitter</title>
    <g id="Page-1" stroke="none" stroke-width="1" fill="none" fill-rule="evenodd">
        <g id="Twitter" transform="translate(1.000000, 1.000000)">
            <path d="M149.988182,299.99999 C120.325455,299.99999 91.3281818,291.2 66.6645455,274.72 C41.9971818,258.238182 22.7712727,234.811818 11.4180909,207.402727 C0.065,179.993636 -2.9055,149.833636 2.88227273,120.736364 C8.67009091,91.6390909 22.9561818,64.9119091 43.934,43.9340909 C64.9119091,22.9561818 91.6390909,8.67009091 120.736364,2.88227273 C149.833636,-2.90548182 179.993636,0.0649090909 207.402727,11.4180909 C234.810909,22.7711818 258.238182,41.9972727 274.72,66.6646364 C291.2,91.3290909 300.000003,120.325455 300.000003,149.988182 C299.948182,189.758182 284.126364,227.883636 256.004545,256.004545 C227.883636,284.126364 189.757273,299.948182 149.988182,299.99999 Z" id="Path" stroke="#6D192B" stroke-width="2"></path>
            <path d="M241.482727,91.6881818 C235.548182,94.3145455 229.270909,96.0818182 222.838182,96.9381818 C225.752727,96.3590909 230.432727,91.1090909 232.160909,88.7836364 C235.053636,85.5872727 237.237273,81.8152727 238.568182,77.715 L238.568182,76.5472727 L237.400909,76.5472727 C230.380909,80.3076364 222.949091,83.2418182 215.253636,85.29 C214.938182,85.33 214.617273,85.2990909 214.314545,85.1981818 C214.012727,85.0981818 213.736364,84.9318182 213.507273,84.7109091 L211.76,82.9645455 C208.682727,80.2080909 205.128182,78.0367273 201.270909,76.5568182 C196.091818,74.4658182 190.535455,73.4733636 184.952727,73.6424545 C179.428182,74.026 174.055455,75.617 169.213636,78.3033636 C164.19,80.7686364 159.800909,84.3581818 156.388182,88.7927273 C152.72,93.2027273 150.120909,98.4009091 148.794545,103.981818 C147.729091,109.16 147.533636,114.478182 148.215455,119.720909 C148.215455,120.888182 148.215455,120.888182 147.636364,120.888182 C118.25,117.716364 91.0672727,103.814545 71.2945455,81.8445455 C70.127,80.6767273 70.1269091,80.6767273 68.9593636,81.8445455 C65.0788182,89.2245455 63.6099091,97.6363636 64.7593636,105.894545 C65.9087273,114.153636 69.6186364,121.844545 75.367,127.884545 C77.1136364,129.052727 78.2812727,130.799091 80.028,131.966364 C74.9482727,131.585455 69.995,130.198182 65.4564545,127.884545 C64.2888182,127.305455 64.2888182,127.884545 64.2888182,128.463636 L64.2888182,133.124545 C65.2456364,139.976364 67.9449091,146.468182 72.1284545,151.977273 C76.3119091,157.487273 81.84,161.830909 88.1827273,164.593636 C89.7709091,165.079091 91.3272727,165.662727 92.8436364,166.34 C88.0472727,167.298182 83.1290909,167.493636 78.2718182,166.919091 C77.1041818,166.919091 77.1041818,167.498182 77.1041818,168.087273 C79.5130909,174.610909 83.57,180.400909 88.88,184.892727 C94.19,189.383636 100.571818,192.424545 107.405455,193.718182 C108.791818,193.622727 110.182727,193.82 111.487273,194.297273 C105.591818,199.770909 98.3545455,203.589091 90.5081818,205.365455 C80.4500909,209.039091 69.7017273,210.433636 59.0392727,209.447273 L56.704,209.447273 C56.125,209.447273 56.704,210.026364 57.2830909,210.615455 C59.6183636,211.782727 61.365,213.529091 63.6908182,214.697273 C70.368,218.166364 77.4023636,220.900909 84.67,222.850909 C103.482727,228.556364 123.469091,229.19 142.605455,224.689091 C161.741818,220.189091 179.35,210.712727 193.648182,197.220909 C203.940909,186.010909 211.916364,172.878182 217.116364,158.576364 C222.316364,144.273636 224.639091,129.085455 223.949091,113.882727 C223.949091,112.715455 225.117273,112.136364 226.284545,111.547273 C231.998182,107.381818 236.930909,102.24 240.856364,96.3590909 C241.247273,95.9845455 241.553636,95.5309091 241.755455,95.0281818 C241.956364,94.5254545 242.048182,93.9854545 242.023636,93.4445455 C242.070909,91.1381818 242.070909,91.6881818 241.482727,91.6881818 Z" id="Path" fill="#6D192B" fill-rule="nonzero"></path>
        </g>
    </g>
</svg>