<svg width="20" height="20" viewBox="0 0 20 20" fill="none" xmlns="http://www.w3.org/2000/svg">
<path d="M14.9997 10.9833V8.33332C14.9985 7.15259 14.5795 6.01038 13.8169 5.10897C13.0542 4.20756 11.9972 3.60511 10.833 3.40832V2.49999C10.833 2.27898 10.7452 2.06701 10.5889 1.91073C10.4326 1.75445 10.2207 1.66666 9.99967 1.66666C9.77866 1.66666 9.5667 1.75445 9.41042 1.91073C9.25414 2.06701 9.16634 2.27898 9.16634 2.49999V3.40832C8.00212 3.60511 6.94511 4.20756 6.1825 5.10897C5.41988 6.01038 5.00087 7.15259 4.99967 8.33332V10.9833C4.51338 11.1553 4.09217 11.4734 3.79379 11.8941C3.49541 12.3148 3.33446 12.8175 3.33301 13.3333V15C3.33301 15.221 3.42081 15.433 3.57709 15.5892C3.73337 15.7455 3.94533 15.8333 4.16634 15.8333H6.78301C6.97491 16.5395 7.39384 17.1628 7.97517 17.6073C8.5565 18.0517 9.26792 18.2925 9.99967 18.2925C10.7314 18.2925 11.4428 18.0517 12.0242 17.6073C12.6055 17.1628 13.0244 16.5395 13.2163 15.8333H15.833C16.054 15.8333 16.266 15.7455 16.4223 15.5892C16.5785 15.433 16.6663 15.221 16.6663 15V13.3333C16.6649 12.8175 16.5039 12.3148 16.2056 11.8941C15.9072 11.4734 15.486 11.1553 14.9997 10.9833ZM6.66634 8.33332C6.66634 7.44927 7.01753 6.60142 7.64265 5.9763C8.26777 5.35118 9.11562 4.99999 9.99967 4.99999C10.8837 4.99999 11.7316 5.35118 12.3567 5.9763C12.9818 6.60142 13.333 7.44927 13.333 8.33332V10.8333H6.66634V8.33332ZM9.99967 16.6667C9.70882 16.6649 9.42349 16.5871 9.17203 16.4409C8.92058 16.2947 8.71177 16.0852 8.56634 15.8333H11.433C11.2876 16.0852 11.0788 16.2947 10.8273 16.4409C10.5759 16.5871 10.2905 16.6649 9.99967 16.6667ZM14.9997 14.1667H4.99967V13.3333C4.99967 13.1123 5.08747 12.9003 5.24375 12.7441C5.40003 12.5878 5.61199 12.5 5.83301 12.5H14.1663C14.3874 12.5 14.5993 12.5878 14.7556 12.7441C14.9119 12.9003 14.9997 13.1123 14.9997 13.3333V14.1667Z" fill="white"/>
</svg>
