<?xml version="1.0" encoding="UTF-8"?>
<svg width="245px" height="300px" viewBox="0 0 245 300" version="1.1" xmlns="http://www.w3.org/2000/svg" xmlns:xlink="http://www.w3.org/1999/xlink">
    <title>vat-icon</title>
    <g id="Page-1" stroke="none" stroke-width="1" fill="none" fill-rule="evenodd">
        <g id="vat-icon" transform="translate(-1.000000, 0.000000)" fill-rule="nonzero">
            <path d="M13.387,205.0626 L233.748125,205.0626 C238.175,205.0626 242.235625,206.5788 245.388125,209.091 L245.388125,11.94828 C245.388125,5.348574 239.794375,0 232.893125,0 L14.239125,0 C7.340375,0 1.74408125,5.348574 1.74408125,11.94828 L1.74408125,209.091 C4.896625,206.5788 8.9575625,205.0626 13.387,205.0626 Z" id="Path" fill="#005D4A"></path>
            <path d="M38.3878125,61.2594 C25.446375,61.2594 20.851125,53.26614 20.851125,46.4181 C20.851125,37.65258 28.4758125,31.52742 39.38825,31.52742 L41.13325,31.52742 L41.13325,28.92432 L46.923375,28.92432 L46.923375,55.66302 L86.12125,55.66302 L86.12125,31.52742 L91.90875,31.52742 L91.90875,55.66302 L128.448125,55.66302 L128.448125,31.52742 L134.120625,31.52742 L134.120625,61.2594 L38.3878125,61.2594 Z M37.61,37.1235 C32.3341875,37.1235 26.64125,40.67544 26.64125,46.4181 C26.64125,52.8066 32.1499375,55.66302 37.61,55.66302 L41.13325,55.66302 L41.13325,37.1235 L37.61,37.1235 Z M47.678125,21.6069 C47.678125,19.68438 46.0278125,18.18162 43.9195625,18.18162 C41.8445,18.18162 40.21725,19.68438 40.21725,21.6069 C40.21725,23.58654 41.81125,25.0818 43.9195625,25.0818 C46.063625,25.0818 47.678125,23.58654 47.678125,21.6069 Z M37.2134375,21.6069 C37.2134375,19.68438 35.5861875,18.18162 33.511125,18.18162 C31.4335625,18.18162 29.80625,19.68438 29.80625,21.6069 C29.80625,23.58654 31.3976875,25.0818 33.511125,25.0818 C35.622,25.0818 37.2134375,23.58654 37.2134375,21.6069 Z M92.8275,68.6262 C92.8275,66.6792 91.15375,65.1486 89.015,65.1486 C86.87625,65.1486 85.2,66.6792 85.2,68.6262 C85.2,70.638 86.84,72.156 89.015,72.156 C91.1875,72.156 92.8275,70.638 92.8275,68.6262 Z M125.393125,68.7306 C125.393125,66.7806 123.76625,65.2554 121.69125,65.2554 C119.610625,65.2554 117.98375,66.7806 117.98375,68.7306 C117.98375,70.683 119.5775,72.156 121.69125,72.156 C123.801875,72.156 125.393125,70.683 125.393125,68.7306 Z M135.858125,68.7306 C135.858125,66.7806 134.205,65.2554 132.099375,65.2554 C130.024375,65.2554 128.396875,66.7806 128.396875,68.7306 C128.396875,70.683 129.98875,72.156 132.099375,72.156 C134.276875,72.156 135.858125,70.7154 135.858125,68.7306 Z M145.335,72.7272 C144.106875,72.7272 142.896875,72.5658 141.635625,72.2328 L140.92375,72.0468 L142.44125,66.6642 L143.1475,66.843 C144.135,67.0914 144.50125,67.131 145.17375,67.131 C147.694375,67.131 148.535625,66.309 148.535625,61.4358 L148.535625,31.52742 L154.32625,31.52742 L154.32625,55.66302 L189.010625,55.66302 L189.010625,31.52742 L194.803125,31.52742 L194.803125,34.81104 L213.724375,34.81104 C218.148125,34.81104 221.054375,35.94372 223.449375,38.59896 C225.27375,40.5885 226.276875,43.6983 226.276875,47.35704 L226.276875,61.2594 L153.69125,61.2594 L153.709375,61.557 C153.921875,65.7996 153.110625,68.8794 151.306875,70.71 C149.31875,72.7272 146.63,72.7272 145.34,72.7272 L145.335,72.7272 Z M194.803125,55.66302 L220.48625,55.66302 L220.48625,47.35704 C220.48625,45.1116 220.03875,43.57908 219.033125,42.38682 C217.925625,41.07288 216.139375,40.40718 213.724375,40.40718 L194.803125,40.40718 L194.803125,55.66302 Z M211.119375,26.35104 C211.119375,24.37392 209.44625,22.82148 207.306875,22.82148 C205.168125,22.82148 203.495,24.37392 203.495,26.35104 C203.495,28.36296 205.1325,29.87814 207.306875,29.87814 C209.481875,29.87814 211.119375,28.36296 211.119375,26.35104 Z" id="Shape" fill="#FFFFFF"></path>
            <path d="M43.9063125,84.7896 C41.794125,84.7896 40.2035625,83.2986 40.2035625,81.321 C40.2035625,79.4028 41.8299375,77.8986 43.9063125,77.8986 C46.0134375,77.8986 47.66275,79.4028 47.66275,81.321 C47.66275,83.2986 46.04925,84.7896 43.9063125,84.7896 Z M37.2040625,81.321 C37.2040625,79.4028 35.57775,77.8986 33.5013125,77.8986 C31.4249375,77.8986 29.801125,79.4028 29.801125,81.321 C29.801125,83.2986 31.389125,84.7896 33.5013125,84.7896 C35.6135,84.7896 37.2040625,83.2986 37.2040625,81.321 Z M127.24875,128.3994 C127.24875,126.4512 125.625,124.9278 123.55125,124.9278 C121.475,124.9278 119.848125,126.4512 119.848125,128.3994 C119.848125,130.35 121.43875,131.8188 123.55125,131.8188 C125.660625,131.8188 127.24875,130.35 127.24875,128.3994 Z M137.71,128.3994 C137.71,126.4512 136.058125,124.9278 133.95375,124.9278 C131.876875,124.9278 130.250625,126.4512 130.250625,128.3994 C130.250625,130.35 131.84375,131.8188 133.95375,131.8188 C136.13,131.8188 137.71,130.3824 137.71,128.3994 Z M170.001875,83.3508 C170.001875,81.4326 168.3725,79.9314 166.29625,79.9314 C164.2225,79.9314 162.59625,81.4326 162.59625,83.3508 C162.59625,85.3284 164.184375,86.8224 166.29625,86.8224 C168.40875,86.8224 170.001875,85.3284 170.001875,83.3508 Z M180.4575,83.3508 C180.4575,81.4326 178.805625,79.9314 176.70125,79.9314 C174.6275,79.9314 173.00125,81.4326 173.00125,83.3508 C173.00125,85.3284 174.591875,86.8224 176.70125,86.8224 C178.841875,86.8224 180.4575,85.3284 180.4575,83.3508 Z M97.345625,121.0194 L97.435,120.9354 L209.621875,120.9354 L209.621875,77.2734 L203.8325,77.2734 L203.8325,115.3446 L181.96625,115.3446 L181.96625,91.2318 L173.9525,91.2318 C162.959375,91.2318 155.855625,97.0506 155.855625,106.056 C155.855625,109.4484 156.968125,112.416 159.156875,114.8754 L159.57375,115.3446 L132.04875,115.3446 L132.04875,91.2318 L126.264375,91.2318 L126.264375,115.3446 L101.030625,115.3446 L101.160625,114.9672 C101.720625,113.3766 102.004375,111.6768 102.004375,109.9122 C102.004375,100.8378 94.92125,93.9912 85.52625,93.9912 C76.499375,93.9912 69.424375,100.9842 69.424375,109.9122 C69.424375,111.6174 69.705625,113.3196 70.2575,114.972 L70.383125,115.3446 L46.9084375,115.3446 L46.9084375,88.626 L41.121625,88.626 L41.121625,91.2318 L39.377625,91.2318 C28.468875,91.2318 20.851125,97.3512 20.851125,106.1082 C20.851125,113.277 25.7199375,120.9354 39.377625,120.9354 L73.9425,120.9354 L74.026875,121.0194 C77.0725,124.0224 81.15375,125.6724 85.52625,125.6724 C90.021875,125.6724 94.328125,123.9774 97.345625,121.0194 Z M96.220625,109.8576 C96.220625,115.6596 91.6225,120.0318 85.52625,120.0318 C79.745,120.0318 75.213125,115.563 75.213125,109.8576 C75.213125,104.0958 79.745,99.5796 85.52625,99.5796 C91.7225,99.5796 96.220625,103.902 96.220625,109.8576 Z M176.179375,96.8226 L176.179375,115.3446 L167.676875,115.3446 L167.608125,115.3044 C163.818125,113.1558 161.645,109.7856 161.645,106.056 C161.645,100.0584 167.06875,96.8226 172.1725,96.8226 L176.179375,96.8226 Z M41.121625,96.8226 L41.121625,115.3446 L37.597875,115.3446 C32.1435,115.3446 26.6379375,112.4856 26.6379375,106.1082 C26.6379375,100.3734 32.3275625,96.8226 37.597875,96.8226 L41.121625,96.8226 Z M226.276875,77.2734 L220.49,77.2734 L220.49,120.9354 L226.276875,120.9354 L226.276875,77.2734 Z" id="Shape" fill="#FFFFFF"></path>
            <path d="M43.922375,147.9702 C41.8089375,147.9702 40.2149375,146.5674 40.2149375,144.708 C40.2149375,142.9086 41.84475,141.4962 43.922375,141.4962 C46.0306875,141.4962 47.681,142.9086 47.681,144.708 C47.681,146.5674 46.0639375,147.9702 43.922375,147.9702 Z M37.213625,144.708 C37.213625,142.9086 35.5863125,141.4962 33.5113125,141.4962 C31.4336875,141.4962 29.806375,142.9086 29.806375,144.708 C29.806375,146.5674 31.397875,147.9702 33.5113125,147.9702 C35.6221875,147.9702 37.213625,146.5674 37.213625,144.708 Z M82.343125,181.9128 L82.343125,154.0176 L74.324375,154.0176 C63.324375,154.0176 56.216625,159.4824 56.216625,167.9394 C56.216625,171.123 57.3245625,173.91 59.5173125,176.2218 L59.9369375,176.6622 L46.9236875,176.6622 L46.9236875,151.5732 L41.1335,151.5732 L41.1335,154.0176 L39.3910625,154.0176 C28.475875,154.0176 20.851125,159.762 20.851125,167.991 C20.851125,174.7212 25.72025,181.9128 39.3910625,181.9128 L82.343125,181.9128 Z M76.5525,159.2682 L76.5525,176.6622 L68.045,176.6622 L67.97625,176.625 C64.181875,174.6048 62.006875,171.4422 62.006875,167.9394 C62.006875,163.7376 65.69875,159.2682 72.543125,159.2682 L76.5525,159.2682 Z M41.1335,159.2682 L41.1335,176.6622 L37.61025,176.6622 C32.1500625,176.6622 26.643875,173.982 26.643875,167.991 C26.643875,162.6054 32.336875,159.2682 37.61025,159.2682 L41.1335,159.2682 Z M75.598125,146.565 C75.598125,144.7098 73.9225,143.2584 71.78625,143.2584 C69.649375,143.2584 67.97375,144.7098 67.97375,146.565 C67.97375,148.4526 69.61375,149.8764 71.78625,149.8764 C73.958125,149.8764 75.598125,148.4526 75.598125,146.565 Z M132.32875,149.1588 C132.32875,147.3036 130.6525,145.8498 128.51375,145.8498 C126.379375,145.8498 124.70375,147.3036 124.70375,149.1588 C124.70375,151.0464 126.34375,152.4702 128.51375,152.4702 C130.688125,152.4702 132.32875,151.0464 132.32875,149.1588 Z M186.024375,181.9944 L186.11125,181.9128 L209.6125,181.9128 L209.6125,140.9094 L203.821875,140.9094 L203.821875,176.6622 L189.70625,176.6622 L189.83875,176.3106 C190.399375,174.8166 190.68625,173.22 190.68625,171.5586 C190.68625,163.0362 183.59625,156.609 174.195625,156.609 C165.16625,156.609 158.08625,163.1784 158.08625,171.5586 C158.08625,173.1642 158.3675,174.7656 158.918125,176.3148 L159.040625,176.6622 L147.483125,176.6622 L147.483125,168.8694 C147.483125,165.4368 146.483125,162.519 144.65875,160.6548 C142.26375,158.1612 139.351875,157.0986 134.935625,157.0986 L116.63125,157.0986 L116.63125,154.0176 L110.84125,154.0176 L110.84125,176.6622 L96.904375,176.6622 L96.904375,140.9094 L91.11125,140.9094 L91.11125,181.9128 L162.6075,181.9128 L162.691875,181.9944 C165.741875,184.8114 169.825625,186.3636 174.195625,186.3636 C178.69375,186.3636 183.005,184.7718 186.024375,181.9944 Z M184.893125,171.51 C184.893125,176.9556 180.295625,181.0644 174.195625,181.0644 C168.410625,181.0644 163.879375,176.8674 163.879375,171.51 C163.879375,166.0986 168.410625,161.862 174.195625,161.862 C180.3975,161.862 184.893125,165.9192 184.893125,171.51 Z M116.63125,162.3492 L134.935625,162.3492 C137.34875,162.3492 139.134375,162.9756 140.2425,164.2062 C141.245625,165.3246 141.695625,166.7628 141.695625,168.8694 L141.695625,176.6622 L116.63125,176.6622 L116.63125,162.3492 Z M226.276875,140.9094 L220.48625,140.9094 L220.48625,181.9152 L226.276875,181.9152 L226.276875,140.9094 Z" id="Shape" fill="#FFFFFF"></path>
            <path d="M232.92375,300.0012 L14.2085625,300.0012 C7.3250625,300.0012 1.74408125,294.5598 1.74408125,287.8524 L1.74408125,221.238 C1.74408125,214.5306 7.3250625,209.0916 14.2085625,209.0916 L232.92375,209.0916 C239.8075,209.0916 245.388125,214.5306 245.388125,221.238 L245.388125,287.8524 C245.388125,294.5598 239.8075,300.0012 232.92375,300.0012 Z" id="Path" fill="#D09E2B"></path>
            <path d="M56.679875,271.5816 L71.598125,222.7266 L92.51125,222.7266 C85.57375,242.9748 70.686875,286.3632 70.518125,286.3632 L42.844,286.3632 C42.6756875,286.3632 27.7885,242.9748 20.851125,222.7266 L41.7641875,222.7266" id="Path" fill="#FFFFFF"></path>
            <polyline id="Path" fill="#FFFFFF" points="226.245625 222.7266 159.395625 222.7266 164.438125 237.3234 185.80375 237.3234 185.80375 286.3632 204.975 286.3632 204.975 237.3234 226.278125 237.3234"></polyline>
            <path d="M159.39875,245.4546 L157.141875,240.9084 C145.551875,247.9242 126.336875,269.0724 126.336875,269.0724 L119.288125,261.7194 L116.730625,269.6976 L116.4025,270.8634 C119.086875,274.425 126.444375,286.3626 126.444375,286.3626 C143.403125,257.8056 159.39875,245.4546 159.39875,245.4546 Z" id="Path" fill="#005D4A"></path>
            <path d="M123.455625,237.5076 L130.245,259.8132 C134.378125,255.3648 139.838125,249.7542 145.065625,245.1498 C140.754375,232.614 137.33125,222.7266 137.25125,222.7266 L109.6625,222.7266 C109.495,222.7266 94.65125,266.115 87.7375,286.3632 L108.58625,286.3632" id="Path" fill="#FFFFFF"></path>
            <path d="M135.51,277.167 L138.44,286.3626 L159.396875,286.3626 C156.840625,279.2148 153.210625,269.0652 149.631875,259.0896 C145.669375,263.4534 140.76,269.442 135.51,277.167 Z" id="Path" fill="#FFFFFF"></path>
        </g>
    </g>
</svg>