<?xml version="1.0" encoding="UTF-8"?>
<svg width="395px" height="200px" viewBox="0 0 395 200" version="1.1" xmlns="http://www.w3.org/2000/svg" xmlns:xlink="http://www.w3.org/1999/xlink">
    <title>visa</title>
    <defs>
        <linearGradient x1="-46.1208805%" y1="51.8201837%" x2="66.8343552%" y2="49.8424878%" id="linearGradient-1">
            <stop stop-color="#262860" offset="0%"></stop>
            <stop stop-color="#3D429B" offset="100%"></stop>
        </linearGradient>
        <linearGradient x1="749.214982%" y1="8950.99836%" x2="12674.2969%" y2="8757.66506%" id="linearGradient-2">
            <stop stop-color="#262860" offset="0%"></stop>
            <stop stop-color="#3D429B" offset="100%"></stop>
        </linearGradient>
        <linearGradient x1="1825.88013%" y1="8798.02562%" x2="32122.3929%" y2="8305.37966%" id="linearGradient-3">
            <stop stop-color="#262860" offset="0%"></stop>
            <stop stop-color="#3D429B" offset="100%"></stop>
        </linearGradient>
        <linearGradient x1="320.605396%" y1="8913.0011%" x2="4937.46994%" y2="8838.16962%" id="linearGradient-4">
            <stop stop-color="#262860" offset="0%"></stop>
            <stop stop-color="#3D429B" offset="100%"></stop>
        </linearGradient>
    </defs>
    <g id="Page-1" stroke="none" stroke-width="1" fill="none" fill-rule="evenodd">
        <g id="visa" fill-rule="nonzero">
            <path d="M394.074545,196.880952 L364.406061,196.880952 C363.32303,188.687619 362.159394,180.665714 361.235758,172.586667 C360.857576,169.227619 360.173939,167.924762 357.789091,168.01619 C345.892727,168.25619 333.996364,168.199048 322.099394,168.01619 C320.296364,168.01619 319.583636,168.930476 319.030909,171.513333 C317.395152,179.214286 315.606061,186.847619 313.766061,194.435238 C313.518788,195.475238 312.697576,196.892381 312.130303,196.892381 C301.404242,197.040952 290.686061,197.006667 279.654545,197.006667 C281.661818,189.39619 283.566667,182.151429 285.472121,174.88381 C299.317576,123.04381 313.155758,71.2224762 326.986061,19.420381 C329.982424,8.14194286 334.497576,3.42261905 342.198788,3.42261905 L368.238788,3.42261905 C369.103636,9.75314286 369.969091,15.9922857 370.798182,22.2199048 C377.623636,73.4431429 384.430303,124.670476 391.21697,175.900952 C392.089697,182.471429 393.122424,188.973333 394.081818,195.509524 L394.074545,196.880952 Z M355.244242,128.147619 L345.841818,57.3006667 L345.463636,57.186381 L329.095152,128.124762 L355.244242,128.147619 Z" id="Shape" fill="url(#linearGradient-1)"></path>
            <path d="M264.835152,0 C268.747273,1.14269524 272.695758,2.07970476 276.571515,3.48521905 C280.105455,4.7650381 283.573939,6.55906667 287.333333,8.23882857 C285.433333,22.1644762 283.581212,35.7700952 281.778182,49.0559048 C276.818788,46.7704762 272.077576,44.1308571 267.234545,42.439619 C260.566667,40.1542857 253.738182,39.2515238 247.070303,42.1654286 C244.28303,43.4139048 241.695758,45.5753333 239.478788,48.5073333 C235.84303,53.432381 235.770303,60.5284762 239.267879,65.6478095 C241.763636,69.134 244.486061,72.198 247.390303,74.7893333 C253.883636,80.925619 260.697576,86.2162857 267.023636,92.809619 C274.455152,100.522857 279.872727,111.092381 281.014545,125.479048 C283.021212,150.846667 277.051515,170.832381 263.49697,184.967619 C254.967273,193.858095 245.317576,197.822857 235.261212,199.297143 C221.346667,201.36381 207.310909,198.860952 194.044848,191.949524 C193.143636,191.492381 192.270909,190.909524 191.390909,190.339048 C191.08,190.093333 190.783636,189.805714 190.503636,189.481905 C192.394545,175.540952 194.292121,161.577143 196.241212,147.201905 C198.531515,148.767619 200.67697,150.344762 202.872727,151.772381 C213.351515,158.4 224.178788,161.44 235.392121,158.137143 C238.385455,157.198095 241.230303,155.333333 243.761818,152.652381 C249.127879,146.99619 249.644242,136.369524 244.757576,129.719048 C241.543636,125.353333 237.682424,122.131429 234.024848,118.634286 C228.258182,113.252381 222.179394,108.55619 216.769091,102.454286 C209.832121,94.603619 204.814545,84.1708571 203.861818,70.23 C202.407273,49.3872381 207.352121,32.5210476 217.532727,19.334381 C226.382424,7.90744762 236.89697,2.82245714 248.073939,0.68561619 C248.69697,0.51266 249.313939,0.283745714 249.920606,0 L264.835152,0 Z" id="Path" fill="url(#linearGradient-2)"></path>
            <path d="M149.469697,3.59837143 C147.804242,9.906 146.226667,15.9165714 144.626667,21.8815238 C129.366061,79.1380952 114.121818,136.390476 98.8951515,193.64 C98.1678788,196.370476 97.2878788,197.067619 95.5284848,197.067619 C85.8860606,196.941905 76.2509091,196.89619 66.6157576,197.067619 C64.5727273,197.067619 63.9036364,195.993333 63.4381818,193.114286 C55.2648485,143.109524 46.9315152,93.1284762 38.8526667,43.0670476 C37.398303,33.9255238 34.4096364,27.606381 28.8467879,23.7555238 C19.9264242,17.7713333 10.6772727,13.0782857 1.2143697,9.73466667 L0,9.25471429 C0.0436301212,3.42697143 0.0436301212,3.42697143 3.56312727,3.42697143 L54.152303,3.42697143 C62.1509091,3.42697143 67.9248485,10.7287619 69.4230303,23.1727619 C73.7206061,58.4134286 77.9090909,93.6998095 82.170303,128.895238 C82.3521212,130.437143 82.5630303,131.968571 82.8466667,134.14 C83.2824242,132.848571 83.5733333,132.128571 83.7842424,131.34 C94.2460606,89.700381 104.695152,48.0567619 115.132727,6.4094 C115.7,4.12400952 116.398182,3.35840952 117.961212,3.38076279 C127.749091,3.5069619 137.529697,3.38076279 147.309697,3.44981905 C147.942424,3.42697143 148.575152,3.5412381 149.469697,3.59837143 Z" id="Path" fill="url(#linearGradient-3)"></path>
            <path d="M136.707879,196.999048 C145.513939,132.3 154.261818,68.0574286 163.031515,3.65513333 L194.98303,3.65513333 C193.652121,13.4594286 192.350909,23.0809524 191.041818,32.702381 C183.809091,85.8986667 176.587879,139.099048 169.379394,192.302857 C168.877576,196.004762 168.048485,197.181905 165.605455,197.101905 C156.879394,196.839048 148.087879,196.999048 139.325455,196.999048 L136.707879,196.999048 Z" id="Path" fill="url(#linearGradient-4)"></path>
        </g>
    </g>
</svg>