<?xml version="1.0" encoding="UTF-8"?>
<svg width="302px" height="302px" viewBox="0 0 302 302" version="1.1" xmlns="http://www.w3.org/2000/svg" xmlns:xlink="http://www.w3.org/1999/xlink">
    <title>YouTube</title>
    <g id="Page-1" stroke="none" stroke-width="1" fill="none" fill-rule="evenodd">
        <g id="YouTube" transform="translate(1.000000, 1.000000)">
            <path d="M149.988182,299.99999 C120.325455,299.99999 91.3281818,291.2 66.6644545,274.72 C41.9970909,258.238182 22.7713636,234.810909 11.4181818,207.401818 C0.065,179.993636 -2.90551818,149.833636 2.88227273,120.736364 C8.67009091,91.6390909 22.9561818,64.9116364 43.934,43.9338182 C64.9118182,22.9559091 91.6390909,8.67009091 120.736364,2.88227273 C149.833636,-2.90548182 179.993636,0.0649090909 207.402727,11.4180909 C234.811818,22.7711818 258.238182,41.997 274.72,66.6643636 C291.2,91.3281818 299.999998,120.324545 299.999998,149.988182 C299.948182,189.757273 284.126364,227.883636 256.005455,256.004545 C227.883636,284.126364 189.758182,299.947273 149.988182,299.99999 Z" id="Path" stroke="#6D192B" stroke-width="2"></path>
            <path d="M245.573636,125.545455 C245.610909,120.175455 244.58,114.850909 242.541818,109.881818 C240.502727,104.912727 237.498182,100.398182 233.7,96.6009091 C229.902727,92.8027273 225.388182,89.7972727 220.419091,87.7590909 C215.45,85.7209091 210.125455,84.69 204.754545,84.7254341 L98.7481818,84.7254341 C93.3772727,84.69 88.0527273,85.7209091 83.0836364,87.7590909 C78.1150909,89.7972727 73.6006364,92.8027273 69.8029091,96.6009091 C66.0051818,100.398182 62.9998182,104.912727 60.9614545,109.881818 C58.923,114.850909 57.8920909,120.175455 57.927784,125.545455 L57.927784,175.079091 C57.8920909,180.45 58.923,185.774545 60.9614545,190.743636 C62.9998182,195.712727 66.0051818,200.227273 69.8029091,204.024545 C73.6006364,207.822727 78.1150909,210.828182 83.0836364,212.866364 C88.0527273,214.904545 93.3772727,215.935455 98.7481818,215.90002 L204.783636,215.90002 C210.153636,215.935455 215.478182,214.904545 220.447273,212.866364 C225.416364,210.828182 229.930909,207.822727 233.728182,204.024545 C237.526364,200.227273 240.531818,195.712727 242.57,190.743636 C244.608182,185.774545 245.639091,180.45 245.603657,175.079091 L245.573636,125.545455 Z M178.554545,152.932727 L136.596364,176.247273 C134.849091,177.414545 133.102727,175.668182 133.102727,173.911818 L133.102727,126.124545 C133.102727,123.79 134.849091,122.631818 136.596364,123.79 L179.133636,148.262727 C180.89,149.410909 180.310909,151.746364 178.563636,152.913636 L178.554545,152.932727 Z" id="Shape" fill="#6D192B" fill-rule="nonzero"></path>
        </g>
    </g>
</svg>