<?xml version="1.0" encoding="UTF-8"?>
<svg width="214px" height="214px" viewBox="0 0 214 214" version="1.1" xmlns="http://www.w3.org/2000/svg" xmlns:xlink="http://www.w3.org/1999/xlink">
    <title>zid-logo</title>
    <g id="Page-1" stroke="none" stroke-width="1" fill="none" fill-rule="evenodd">
        <g id="zid-logo" fill="#FCD34C">
            <path d="M104.9,0.111 C91.66,1.248 83.038,10.092 82.204,23.391 C81.041,41.94 87.38,65.842 97.698,81.811 C98.274,82.702 90.529,91.102 84.496,96.133 L82.175,98.067 L81.617,97.702 C73.634,92.483 60.811,87.198 50.469,84.865 C37.087,81.846 22.652,81.309 15.839,83.578 C-3.49,90.015 -5.597,119.191 12.586,128.627 C17.284,131.065 21.782,131.738 30.821,131.356 C48.721,130.599 65.326,125.707 80.122,116.832 C81.19,116.191 82.162,115.706 82.281,115.753 C84.106,116.476 97.09,129.445 97.818,131.271 C97.859,131.374 97.159,132.71 96.263,134.24 C87.752,148.776 83.056,164.865 82.216,182.366 C81.805,190.938 82.414,195.684 84.49,200.072 C93.508,219.14 123.328,217.559 130.008,197.659 C132.634,189.836 131.424,172.014 127.297,157.715 C124.794,149.045 119.814,137.826 115.831,131.886 C115.476,131.357 115.772,130.93 119.13,127.126 C122.437,123.378 130.647,115.7 131.346,115.7 C131.436,115.7 132.248,116.149 133.151,116.699 C148.899,126.293 167.512,131.402 186.682,131.392 C192.468,131.389 194.462,131.138 197.748,130.001 C218.407,122.852 218.77,91.505 198.284,83.799 C194.732,82.463 192.032,82.158 184.825,82.279 C166.621,82.584 149.485,87.338 134.187,96.327 C132.728,97.184 131.445,97.886 131.336,97.886 C130.251,97.886 120.862,88.79 116.882,83.883 L115.521,82.206 L116.115,81.274 C121.93,72.144 126.857,59.636 129.274,47.863 C131.808,35.524 132.069,21.889 129.89,15.711 C126.373,5.739 115.849,-0.83 104.9,0.111 M110.358,15.009 C113.739,16.144 115.904,18.493 116.705,21.896 C117.085,23.511 116.964,33.019 116.516,36.707 C115.21,47.48 112.44,57.028 107.971,66.16 L106.755,68.646 L105.849,66.847 C98.111,51.477 93.923,26.923 97.747,19.346 C99.761,15.356 105.506,13.38 110.358,15.009 M110.058,97.986 C112.132,100.246 115.734,103.746 117.857,105.566 L119.287,106.793 L118.797,107.217 C115.102,110.414 110.706,114.787 107.676,118.28 L106.765,119.33 L104.947,117.29 C102.993,115.096 97.96,110.084 95.661,108.044 L94.25,106.791 L96.108,105.172 C98.486,103.101 103.089,98.5 105.151,96.132 L106.751,94.295 L107.49,95.144 C108.337296,96.0991617 109.193332,97.0465348 110.058,97.986 M30.293,96.627 C43.205,97.204 54.791,100.102 66.105,105.585 L68.606,106.797 L65.566,108.268 C53.533,114.092 40.725,117.015 27.167,117.033039 C19.18,117.043 15.982,115.134 14.671,109.572 C13.078,102.815 17.095,97.088 23.749,96.631 L25.998,96.476 C26.196,96.462 28.129,96.53 30.293,96.627 M192.153,97.008 C201.509,99.378 201.442,114.161 192.064,116.696 C189.717,117.33 181.776,117.192 175.615,116.41 C165.817,115.167 156.485,112.415 147.724,108.187 L144.935,106.841 L147.814,105.427 C156.869,100.979 167.185,98.069 177.774,96.977 C183.354,96.401 189.81,96.415 192.153,97.008 M110.005,151.957 C114.487,162.498 116.698,173.058 116.904,184.913 C117.01,190.998 116.887,192.072 115.837,194.173 C112.497,200.856 100.903,200.805 97.619,194.092 C96.512,191.829 96.228,188.437 96.607,182.006 C97.337,169.638 100.192,158.586 105.536,147.448 L106.74,144.939 L107.799,147.099 C108.570086,148.701859 109.305599,150.321589 110.005,151.957" id="Shape"></path>
        </g>
    </g>
</svg>