<?xml version="1.0" encoding="UTF-8"?>
<svg width="291px" height="200px" viewBox="0 0 291 200" version="1.1" xmlns="http://www.w3.org/2000/svg" xmlns:xlink="http://www.w3.org/1999/xlink">
    <title>zidship</title>
    <g id="Page-1" stroke="none" stroke-width="1" fill="none" fill-rule="evenodd">
        <g id="zidship">
            <path d="M35.00568,156.845714 C31.84584,156.734286 28.56924,156.947619 25.29276,156.604762 C13.06128,155.318095 2.427144,147.258095 0.6314784,137.578095 C-0.53454,131.461905 -0.2313792,125.372381 2.776944,119.541905 C5.624808,114.031429 10.605156,109.380952 16.99932,106.261905 C23.39352,103.14381 30.87072,101.718095 38.35212,102.190476 C56.07564,103.02381 71.15232,115.146667 71.32716,129.953333 C71.32716,131.554286 71.32716,133.145714 71.32716,134.746667 C71.3208,135.487619 71.15928,136.222857 70.84908,136.920952 C70.602,137.677143 70.04988,138.347619 69.27708,138.830476 C68.50428,139.313333 67.5534,139.582857 66.56976,139.59619 C64.1652,139.771429 61.74516,139.771429 59.34048,139.59619 C56.61204,139.373333 54.67644,138.540952 54.41988,135.413333 C54.24504,133.719048 54.41988,132.007619 54.41988,130.314286 C54.44292,128.369524 53.98308,126.440952 53.06676,124.637143 C52.15032,122.833333 50.7954,121.191429 49.07928,119.80381 C45.61332,117.000952 40.88652,115.405714 35.93856,115.368571 C33.48852,115.350476 31.05804,115.715238 28.78572,116.442857 C26.51352,117.169524 24.44388,118.244762 22.69524,119.606667 C19.16376,122.358095 17.15376,126.109524 17.10732,130.03619 C17.10732,131.258095 17.10732,132.488571 17.10732,133.738095 C17.1558,136.241905 18.43488,138.632381 20.6718,140.399048 C22.90872,142.165714 25.92672,143.169524 29.08236,143.195238 C33.37332,143.279048 37.66428,143.195238 41.90856,143.195238 C54.73476,143.408571 63.60816,148.452381 69.06504,157.511429 C69.95268,159.007619 70.54644,160.601904 70.8258,162.240952 C71.72676,166.873333 71.56884,171.598095 70.35936,176.186667 C67.63092,186.106667 55.92408,196.055238 40.64928,197.526667 C20.32548,199.479048 7.102872,189.392381 2.403828,179.721905 C1.0420356,176.882857 0.2892516,173.882857 0.1767324,170.846667 C0.0834504,168.829524 0.1767324,166.812381 0.1767324,164.785714 C0.20934,164.095238 0.3543468,163.410476 0.6081528,162.749524 C0.7596792,162.088571 1.1645988,161.48 1.767672,161.007619 C2.370744,160.53619 3.142596,160.222857 3.977952,160.112381 C7.08408,159.654286 10.269936,159.654286 13.37604,160.112381 C14.17944,160.214286 14.92512,160.507619 15.51588,160.951429 C16.10664,161.395238 16.515,161.970476 16.68756,162.601904 C16.97184,163.367619 17.11704,164.162857 17.11896,164.960952 C17.11896,166.451429 17.06064,167.940952 17.11896,169.431429 C17.37552,175.57619 21.02508,180.110476 27.89304,182.794286 C34.76088,185.478095 41.26728,184.728571 47.29548,181.091429 C49.44396,179.798095 51.19716,178.138095 52.42464,176.232381 C53.65212,174.327619 54.3222,172.227619 54.38496,170.088571 C54.46656,168.764762 54.44328,167.432381 54.38496,166.1 C54.26676,163.675238 53.0004,161.375238 50.83884,159.66 C48.67716,157.944762 45.77952,156.939048 42.7248,156.845714 C40.21776,156.780952 37.67592,156.845714 35.00568,156.845714 Z" id="Path" fill="#FDCE07" fill-rule="nonzero"></path>
            <path d="M108.27828,134.973333 C109.44432,134.482857 110.42376,134.047619 111.35652,133.733333 C115.87548,131.930476 120.8184,130.895238 125.8692,130.693333 C130.9212,130.491429 135.9696,131.127619 140.694,132.560952 C145.4184,133.993333 149.7144,136.192381 153.3084,139.017143 C156.9012,141.841905 159.714,145.230476 161.5656,148.965714 C163.1172,152.040952 163.908,155.32381 163.897309,158.63619 C163.897309,170.913333 163.897309,183.193333 163.897309,195.477143 C163.897309,198.438095 162.0432,199.909524 158.37,199.946667 C156.2952,199.946667 154.2192,199.946667 152.1444,199.946667 C149.4852,199.946667 147.3864,198.724762 147.0132,195.920952 C146.9664,195.230476 146.9664,194.538095 147.0132,193.847619 C147.0132,182.471429 147.0132,171.095238 147.0132,159.719048 C147.0672,155.754286 145.1856,151.926667 141.7644,149.038095 C138.342,146.149524 133.6452,144.42381 128.6568,144.220952 C123.6672,144.019048 118.77312,145.357143 114.99852,147.954286 C111.22404,150.551429 108.86184,154.206667 108.40656,158.155238 C108.3366,158.84 108.32484,159.533333 108.32484,160.227619 C108.32484,171.869524 108.32484,183.514286 108.32484,195.161905 C108.35808,196.025714 108.15516,196.88381 107.73024,197.679048 C107.42184,198.361905 106.85028,198.950476 106.0968,199.36 C105.34332,199.770476 104.44608,199.981905 103.53252,199.964762 C101.1228,200.008571 98.71296,200.008571 96.30324,199.964762 C93.59808,199.964762 91.82568,198.650476 91.371,196.133333 C91.33008,195.708571 91.33008,195.281905 91.371,194.85619 C91.371,164.91619 91.371,134.995238 91.371,105.091429 C91.332,104.189524 91.48176,103.289524 91.81404,102.426667 C92.05536,101.699048 92.58204,101.051429 93.31776,100.577143 C94.05348,100.102857 94.9602,99.827619 95.90676,99.7895238 C98.3724,99.5542857 100.86276,99.5333333 103.33428,99.7247619 C106.33104,100.029524 107.81184,100.890476 108.30156,103.907619 C108.35988,104.649524 108.35988,105.394286 108.30156,106.137143 L108.30156,135.047619 L108.27828,134.973333 Z" id="Path" fill="#FDCE07" fill-rule="nonzero"></path>
            <path d="M132.87,92.3815238 L109.74768,92.3815238 C106.863,92.3894286 104.00124,91.9753333 101.30568,91.1599048 C99.23208,90.5986667 97.3596,89.6485714 95.84724,88.390381 C94.335,87.1320952 93.22752,85.6028571 92.61888,83.9324762 C91.2402,80.4264762 91.26576,76.6674286 92.6922,73.1735238 C94.11852,69.679619 96.8754,66.6228571 100.5828,64.4247619 C103.551,62.6897143 106.63788,61.0862857 109.82928,59.6219048 C120.324,54.4827619 130.818,49.3714286 141.312,44.2878095 C142.8372,43.6164762 144.222,42.7610476 145.416,41.7521905 C147.4572,39.9014286 146.7804,38.226381 143.76,37.6434286 C142.6368,37.4894286 141.4944,37.4366667 140.3556,37.4860952 L106.821,37.4860952 C104.74512,37.5248571 102.66828,37.447619 100.60608,37.2546667 C98.09916,36.9770476 97.10808,36.1627619 96.67668,34.2193333 C96.26844,32.168381 96.26844,30.0793333 96.67668,28.028381 C97.09644,26.048 98.07588,25.2520952 100.55952,24.9375238 C101.75352,24.808 102.95736,24.7430476 104.16252,24.7431429 L142.7112,24.7431429 C145.4484,24.7106667 148.1832,24.8998095 150.8736,25.307619 C157.8696,26.4551429 161.3088,29.2869524 162.4164,34.8949524 C162.9012,37.4221905 162.9012,39.9930476 162.4164,42.5202857 C161.7852,46.038 159.4932,49.2337143 156.0036,51.4598095 C152.004,53.9599048 147.7704,56.2151429 143.3412,58.206 C132.9792,63.1909524 122.6124,68.182 112.24296,73.1792381 C110.74044,73.7809524 109.43196,74.6484762 108.41844,75.7148571 C107.04252,77.3713333 107.6838,78.8426667 110.08584,79.4164762 C111.91248,79.7677143 113.79528,79.8987619 115.67112,79.8051429 L154.8612,79.8051429 C156.1344,79.800381 157.4064,79.8466667 158.6736,79.9439048 C159.5196,79.9709524 160.3308,80.2214286 160.9764,80.655619 C161.6232,81.0898095 162.0684,81.6829524 162.2424,82.3407619 C163.0224,84.7670476 163.0512,87.3073333 162.324,89.7440952 C162.1632,90.4325714 161.7168,91.0584762 161.0544,91.5215238 C160.3932,91.9845714 159.5544,92.2580952 158.6736,92.2981905 C157.8072,92.3815238 156.9348,92.4186667 156.0624,92.4092381 C148.2888,92.4092381 140.5152,92.4092381 132.7416,92.4092381 L132.87,92.3815238 Z" id="Path" fill="#FDCE07" fill-rule="nonzero"></path>
            <path d="M196.4184,59.9338095 L196.4184,86.0951429 C196.4712,87.2127619 196.3536,88.3314286 196.068,89.4266667 C195.912,90.1715238 195.4476,90.8538095 194.7492,91.3664762 C194.0496,91.8790476 193.1568,92.1928571 192.2088,92.2584762 C189.3504,92.5822857 186.45,92.5822857 183.5916,92.2584762 C182.4996,92.2069524 181.4724,91.8289524 180.7176,91.2004762 C179.9616,90.572 179.5356,89.7398095 179.5224,88.8714286 C179.3592,87.8710476 179.2776,86.8633333 179.2776,85.8545714 C179.2776,68.2964762 179.2776,50.7444762 179.2776,33.1986667 C179.25,32.1886667 179.34,31.1787619 179.5452,30.1818095 C179.6496,29.5161905 180.0108,28.892381 180.5784,28.3955238 C181.146,27.8985714 181.8924,27.5528571 182.7168,27.405619 C186.0564,26.772 189.5352,26.7530476 192.8844,27.3500952 C193.6812,27.4794286 194.4096,27.7984762 194.9724,28.2646667 C195.5352,28.7309524 195.9048,29.3222857 196.0332,29.9597143 C196.3512,31.2109524 196.4844,32.4874286 196.4292,33.7631429 L196.4292,59.9338095 L196.4184,59.9338095 Z" id="Path" fill="#545555" fill-rule="nonzero"></path>
            <path d="M196.4184,167.559048 L196.4184,193.720952 C196.4964,194.892381 196.3632,196.067619 196.0212,197.209524 C195.834,197.97619 195.3168,198.667619 194.5572,199.16381 C193.7976,199.660952 192.8436,199.931429 191.8584,199.930476 C189.2472,200.00381 186.624,200.013333 184.0116,199.930476 C182.898,199.95619 181.8132,199.641905 180.984,199.050476 C180.1548,198.46 179.6436,197.638095 179.5572,196.75619 C179.3628,195.701905 179.2728,194.637143 179.2896,193.572381 C179.2896,175.971429 179.2896,158.369524 179.2896,140.768571 C179.2776,139.810476 179.3712,138.854286 179.5692,137.908571 C179.6688,137.244762 180.024,136.621905 180.588,136.124762 C181.152,135.627619 181.896,135.280952 182.7168,135.132381 C186.1188,134.47619 189.6696,134.47619 193.0716,135.132381 C193.83,135.277143 194.5176,135.597143 195.0468,136.051429 C195.576,136.506667 195.9228,137.075238 196.0452,137.686667 C196.3728,138.937143 196.5096,140.214286 196.4532,141.490476 L196.4532,167.651429 L196.4184,167.559048 Z" id="Path" fill="#545555" fill-rule="nonzero"></path>
            <path d="M187.7664,16.5882857 C186.3888,16.6009524 185.022,16.3935238 183.7464,15.9784762 C182.472,15.5633333 181.3164,14.9489524 180.3468,14.1719048 C179.3772,13.3948571 178.6152,12.4709524 178.1052,11.4552381 C177.594,10.4395238 177.3468,9.35277143 177.3768,8.25958095 C177.3996,6.05067619 178.5276,3.93955238 180.5124,2.3906381 C182.4972,0.84171619 185.1756,-0.018118 187.9584,0.000289579048 C190.7412,0.0186971429 193.4016,0.91383619 195.3528,2.48879048 C197.3052,4.06374286 198.3876,6.18948571 198.3648,8.3984 C198.3816,9.49652381 198.1176,10.5859048 197.5872,11.6002857 C197.0568,12.6145714 196.272,13.5327619 195.2808,14.2988571 C194.2884,15.0649524 193.1112,15.6629524 191.82,16.0565714 C190.5276,16.4500952 189.1488,16.6310476 187.7664,16.5882857 Z" id="Path" fill="#545555" fill-rule="nonzero"></path>
            <path d="M187.9404,123.824762 C186.5664,123.857143 185.1972,123.668571 183.918,123.270476 C182.6376,122.872381 181.4724,122.272381 180.492,121.507619 C179.5104,120.741905 178.7352,119.827619 178.212,118.818095 C177.6888,117.808571 177.4284,116.725714 177.4464,115.635238 C177.3288,114.487619 177.5112,113.333333 177.9828,112.244762 C178.4544,111.157143 179.2056,110.158095 180.1884,109.311429 C181.1712,108.464762 182.364,107.789524 183.6924,107.327619 C185.0208,106.865714 186.456,106.626667 187.9056,106.626667 C189.3564,106.626667 190.7904,106.865714 192.1188,107.327619 C193.4472,107.789524 194.64,108.464762 195.6228,109.311429 C196.6056,110.158095 197.3568,111.157143 197.8284,112.244762 C198.3012,113.333333 198.4836,114.487619 198.3648,115.635238 C198.3804,116.720952 198.1212,117.798095 197.6016,118.802857 C197.082,119.808571 196.3128,120.72 195.3408,121.48381 C194.3676,122.247619 193.212,122.849524 191.94,123.251429 C190.6692,123.653333 189.3084,123.848571 187.9404,123.824762 Z" id="Path" fill="#545555" fill-rule="nonzero"></path>
            <path d="M231.3516,167.855238 C231.222,167.33619 231.3204,166.797143 231.6312,166.328571 C231.7188,166.374286 231.8016,166.410476 231.8748,166.44381 C232.0248,166.510476 232.14,166.562857 232.2024,166.642857 C235.806,170.548571 240.8424,172.547619 246.6732,173.519048 C252.2136,174.331429 257.8836,174.428571 263.4636,173.805714 C277.164,172.612381 286.9356,165.375238 289.2672,154.594286 C291.2232,145.345714 291.3216,135.910476 289.5588,126.638095 C287.7396,116.828571 280.872,110.350476 268.8156,107.574286 C258.336,105.118095 247.1916,105.089524 236.6916,107.490476 C232.8096,108.273333 229.1808,109.700952 226.0452,111.679048 C222.9096,113.657143 220.338,116.140952 218.502,118.965714 C215.6604,123.453333 214.2624,128.428571 214.4328,133.448571 L214.4328,194.386667 C214.4136,195.346667 214.6032,196.300952 214.992,197.209524 C215.1936,197.748571 215.5752,198.235238 216.0972,198.61619 C216.618,198.997143 217.26,199.26 217.9536,199.375238 C221.1732,199.930476 224.5056,199.930476 227.7252,199.375238 C228.6288,199.249524 229.4556,198.888571 230.0712,198.348571 C230.688,197.808571 231.0612,197.121905 231.1296,196.395238 C231.2964,195.342857 231.3708,194.281905 231.3516,193.220952 L231.3516,167.855238 Z M272.838,150.781905 C273.2676,146.969524 273.4464,143.142857 273.3744,139.31619 C273.3744,136.020952 273.3048,132.726667 272.8728,129.386667 C272.1972,123.833333 268.4184,120.419048 261.5388,119.253333 C255.684,118.272381 249.636,118.272381 243.7812,119.253333 C237.5076,120.299048 233.2872,123.102857 231.9804,128.257143 C231.7824,129.039048 231.654,129.830476 231.5964,130.626667 C231.2124,135.611429 231.3024,140.597143 231.3924,145.589524 C231.3984,145.917143 231.4032,146.24381 231.4092,146.571429 C231.432,148.057143 231.5724,149.540952 231.8292,151.013333 C232.7736,156.05619 236.6676,159.526667 242.79,160.68381 C249.1332,161.909524 255.7548,161.909524 262.0992,160.68381 C268.4424,159.44381 272.1732,155.945714 272.838,150.781905 Z" id="Shape" fill="#FDCE07"></path>
            <path d="M273.6228,32.1947619 C273.6648,32.5504762 273.708,32.9235238 273.3636,33.3019048 C273.2124,33.3089524 273.0624,33.284381 272.9268,33.2308571 C272.7924,33.1772381 272.6772,33.0964762 272.5932,32.9965714 C269.0376,29.2208571 264.1284,27.2497143 258.45,26.2688571 C252.4548,25.3315238 246.294,25.272 240.2712,26.0929524 C226.8396,27.6846667 217.7556,34.819619 215.5752,45.4618095 C213.714,54.6534286 213.6552,64.0182857 215.4,73.2241905 C217.1724,82.8021905 223.9356,89.2245714 235.6896,92.0562857 C246.138,94.5944762 257.286,94.6908571 267.8016,92.334 C271.9224,91.5388571 275.7684,90.0261905 279.0624,87.9054286 C282.3552,85.7846667 285.0132,83.1089524 286.842,80.0722857 C289.3632,75.8210476 290.616,71.1661905 290.5032,66.4686667 L290.5032,5.86349524 C290.5356,4.85125714 290.3784,3.84084762 290.0376,2.8651619 C289.8516,2.12447619 289.3476,1.45782857 288.612,0.978657143 C287.8764,0.499484762 286.9548,0.237397143 286.0032,0.236989524 C283.3212,0.153701905 280.6392,0.135194286 277.9692,0.236989524 C276.9516,0.249912381 275.9748,0.552255238 275.2152,1.08897143 C274.4556,1.62569524 273.9636,2.36109524 273.8292,3.16129524 C273.654,3.83991429 273.5748,4.53226667 273.5964,5.2249619 L273.5964,31.8582857 C273.5964,31.968381 273.6096,32.0806667 273.6228,32.1947619 Z M273.6,61.0478095 C273.5988,60.5773333 273.5964,60.1069524 273.5964,59.6364762 C273.7272,56.240381 273.6024,52.8411429 273.2232,49.4569524 C272.5584,44.228381 268.8744,40.4711429 262.8804,39.1940952 C256.1232,37.718 248.988,37.718 242.2308,39.1940952 C236.412,40.4619048 233.0772,43.5898095 232.1676,48.3371429 C231.8844,50.1305714 231.7164,51.9344762 231.666,53.741619 C231.252,59.4741905 231.4164,65.2238095 232.1556,70.9357143 C232.356,73.1578095 233.4696,75.266381 235.326,76.938 C237.1812,78.609619 239.676,79.752 242.4288,80.1898095 C248.9628,81.4900952 255.7992,81.4900952 262.3332,80.1898095 C265.0908,79.7601905 267.6072,78.6502857 269.5224,77.018381 C271.4388,75.3864762 272.6568,73.3159048 273.0012,71.1022857 C273.1884,70.2601905 273.282,69.4087619 273.3636,68.5666667 C273.618,66.0650476 273.6096,63.5569524 273.6,61.0478095 Z" id="Shape" fill="#FDCE07"></path>
        </g>
    </g>
</svg>